<svg width="700" height="280" viewBox="0 0 700 280" fill="none" xmlns="http://www.w3.org/2000/svg">
<g clip-path="url(#clip0)">
<line x1="0.5" y1="2.18557e-08" x2="0.499988" y2="280" stroke="#DEE2E6"/>
<line x1="340.5" y1="2.18557e-08" x2="340.5" y2="280" stroke="#DEE2E6"/>
<line x1="430.5" y1="2.18557e-08" x2="430.5" y2="280" stroke="#DEE2E6"/>
<line x1="520.5" y1="2.18557e-08" x2="520.5" y2="280" stroke="#DEE2E6"/>
<line x1="610.5" y1="2.18557e-08" x2="610.5" y2="280" stroke="#DEE2E6"/>
<line x1="699.5" y1="2.18557e-08" x2="699.5" y2="280" stroke="#DEE2E6"/>
<line y1="0.5" x2="700" y2="0.5" stroke="#DEE2E6"/>
<line y1="69.5" x2="700" y2="69.5" stroke="#DEE2E6"/>
<line y1="139.5" x2="700" y2="139.5" stroke="#DEE2E6"/>
<line y1="209.5" x2="700" y2="209.5" stroke="#DEE2E6"/>
<line y1="279.5" x2="700" y2="279.5" stroke="#DEE2E6"/>
<path d="M42.6591 28.9091H44.7045C44.6108 26.2756 42.1818 24.3068 38.8068 24.3068C35.4659 24.3068 32.8409 26.25 32.8409 29.1818C32.8409 31.5341 34.5455 32.9318 37.2727 33.7159L39.4205 34.3295C41.2614 34.8409 42.8977 35.4886 42.8977 37.2273C42.8977 39.1364 41.0568 40.3977 38.6364 40.3977C36.5568 40.3977 34.7159 39.4773 34.5455 37.5H32.3636C32.5682 40.3636 34.8864 42.3068 38.6364 42.3068C42.6591 42.3068 44.9432 40.0909 44.9432 37.2614C44.9432 33.9886 41.8409 32.9318 40.0341 32.4545L38.2614 31.9773C36.9659 31.6364 34.8864 30.9545 34.8864 29.0795C34.8864 27.4091 36.4205 26.1818 38.7386 26.1818C40.8523 26.1818 42.4545 27.1875 42.6591 28.9091ZM49.1383 42H51.252V35.625H55.0701C59.1355 35.625 60.9679 33.1534 60.9679 30.0682C60.9679 26.983 59.1355 24.5455 55.0361 24.5455H49.1383V42ZM51.252 33.75V26.4205H54.9679C57.8059 26.4205 58.8883 27.9716 58.8883 30.0682C58.8883 32.1648 57.8059 33.75 55.002 33.75H51.252ZM65.0927 42H75.7632V40.125H67.2063V34.1932H75.0813V32.3182H67.2063V26.4205H75.6268V24.5455H65.0927V42ZM94.2019 30C93.5542 26.4205 90.6905 24.3068 87.1792 24.3068C82.7133 24.3068 79.4746 27.75 79.4746 33.2727C79.4746 38.7955 82.7133 42.2386 87.1792 42.2386C90.6905 42.2386 93.5542 40.125 94.2019 36.5455H92.0883C91.5769 38.9659 89.4974 40.2614 87.1792 40.2614C84.0087 40.2614 81.5201 37.8068 81.5201 33.2727C81.5201 28.7386 84.0087 26.2841 87.1792 26.2841C89.4974 26.2841 91.5769 27.5795 92.0883 30H94.2019Z" fill="#3A3A3A"/>
<path d="M126.497 37.6364C126.497 41.9318 127.656 45.5114 129.735 48.5455H131.508C129.872 46.2955 128.576 41.6932 128.576 37.6364C128.576 33.5795 129.872 28.9773 131.508 26.7273H129.735C127.656 29.7614 126.497 33.3409 126.497 37.6364ZM140.233 45.2727C143.779 45.2727 146.165 42.5795 146.165 38.5227C146.165 34.4318 143.779 31.7386 140.233 31.7386C136.688 31.7386 134.301 34.4318 134.301 38.5227C134.301 42.5795 136.688 45.2727 140.233 45.2727ZM140.233 43.4659C137.54 43.4659 136.313 41.1477 136.313 38.5227C136.313 35.8977 137.54 33.5455 140.233 33.5455C142.926 33.5455 144.154 35.8977 144.154 38.5227C144.154 41.1477 142.926 43.4659 140.233 43.4659ZM151.967 37.125C151.967 34.8409 153.381 33.5455 155.308 33.5455C157.174 33.5455 158.308 34.7642 158.308 36.8182V45H160.319V36.6818C160.319 33.3409 158.538 31.7386 155.887 31.7386C153.91 31.7386 152.683 32.625 152.069 33.9545H151.898V31.9091H149.955V45H151.967V37.125ZM177.503 45.2727C180.4 45.2727 182.309 43.5 182.65 41.1818H180.639C180.264 42.6136 179.071 43.4659 177.503 43.4659C175.116 43.4659 173.582 41.4886 173.582 38.4545C173.582 35.4886 175.15 33.5455 177.503 33.5455C179.275 33.5455 180.332 34.6364 180.639 35.8295H182.65C182.309 33.375 180.23 31.7386 177.468 31.7386C173.923 31.7386 171.571 34.5341 171.571 38.5227C171.571 42.4432 173.821 45.2727 177.503 45.2727ZM186.311 45H188.322V36.8182C188.322 34.9006 189.72 33.5455 191.288 33.5455C192.813 33.5455 193.879 34.5426 193.879 36.0341V45H195.924V36.4773C195.924 34.7898 196.981 33.5455 198.822 33.5455C200.254 33.5455 201.481 34.304 201.481 36.2386V45H203.492V36.2386C203.492 33.1619 201.839 31.7386 199.504 31.7386C197.629 31.7386 196.257 32.5994 195.583 33.9545H195.447C194.799 32.5568 193.657 31.7386 191.936 31.7386C190.231 31.7386 188.97 32.5568 188.424 33.9545H188.254V31.9091H186.311V45ZM212.185 37.6364C212.185 33.3409 211.026 29.7614 208.947 26.7273H207.174C208.81 28.9773 210.106 33.5795 210.106 37.6364C210.106 41.6932 208.81 46.2955 207.174 48.5455H208.947C211.026 45.5114 212.185 41.9318 212.185 37.6364Z" fill="#3A3A3A"/>
<path d="M33.1136 112H43.3409V110.125H35.2273V94.5455H33.1136V112ZM47.0609 112H49.0723V98.9091H47.0609V112ZM48.0836 96.7273C48.8677 96.7273 49.5155 96.1136 49.5155 95.3636C49.5155 94.6136 48.8677 94 48.0836 94C47.2995 94 46.6518 94.6136 46.6518 95.3636C46.6518 96.1136 47.2995 96.7273 48.0836 96.7273ZM55.4876 104.125C55.4876 101.841 56.9024 100.545 58.8285 100.545C60.695 100.545 61.8285 101.764 61.8285 103.818V112H63.8399V103.682C63.8399 100.341 62.0586 98.7386 59.408 98.7386C57.4308 98.7386 56.2035 99.625 55.5899 100.955H55.4194V98.9091H53.4762V112H55.4876V104.125ZM73.5194 117.182C76.6557 117.182 79.1785 115.75 79.1785 112.375V98.9091H77.2353V100.989H77.0307C76.5876 100.307 75.7694 98.7386 73.2126 98.7386C69.9057 98.7386 67.6216 101.364 67.6216 105.386C67.6216 109.477 70.008 111.795 73.1785 111.795C75.7353 111.795 76.5535 110.295 76.9966 109.58H77.1671V112.239C77.1671 114.42 75.633 115.409 73.5194 115.409C71.1415 115.409 70.3063 114.156 69.7694 113.432L68.1671 114.557C68.9853 115.929 70.5961 117.182 73.5194 117.182ZM73.4512 109.989C70.9285 109.989 69.633 108.08 69.633 105.352C69.633 102.693 70.8944 100.545 73.4512 100.545C75.9057 100.545 77.2012 102.523 77.2012 105.352C77.2012 108.25 75.8716 109.989 73.4512 109.989ZM83.5803 112H85.5916V107.099L86.9979 105.795L91.8985 112H94.4553L88.5149 104.5L94.0462 98.9091H91.5576L85.8303 104.739H85.5916V94.5455H83.5803V112ZM101.207 112.307C103.491 112.307 104.685 111.08 105.094 110.227H105.196V112H107.207V103.375C107.207 99.2159 104.037 98.7386 102.366 98.7386C100.389 98.7386 98.1391 99.4205 97.1163 101.807L99.0254 102.489C99.4686 101.534 100.517 100.511 102.435 100.511C104.284 100.511 105.196 101.491 105.196 103.17V103.239C105.196 104.21 104.207 104.125 101.821 104.432C99.3919 104.747 96.7413 105.284 96.7413 108.284C96.7413 110.841 98.7186 112.307 101.207 112.307ZM101.514 110.5C99.9118 110.5 98.7527 109.784 98.7527 108.386C98.7527 106.852 100.15 106.375 101.719 106.17C102.571 106.068 104.855 105.83 105.196 105.42V107.261C105.196 108.898 103.9 110.5 101.514 110.5ZM111.598 112H113.61V103.716C113.61 101.943 115.007 100.648 116.917 100.648C117.454 100.648 118.007 100.75 118.144 100.784V98.7386C117.914 98.7216 117.385 98.7045 117.087 98.7045C115.519 98.7045 114.155 99.5909 113.678 100.886H113.542V98.9091H111.598V112ZM134.377 112C139.695 112 142.695 108.693 142.695 103.239C142.695 97.8182 139.695 94.5455 134.616 94.5455H128.991V112H134.377ZM131.104 110.125V96.4205H134.479C138.57 96.4205 140.65 99.0114 140.65 103.239C140.65 107.5 138.57 110.125 134.241 110.125H131.104ZM150.54 112.307C152.824 112.307 154.018 111.08 154.427 110.227H154.529V112H156.54V103.375C156.54 99.2159 153.37 98.7386 151.699 98.7386C149.722 98.7386 147.472 99.4205 146.449 101.807L148.359 102.489C148.802 101.534 149.85 100.511 151.768 100.511C153.617 100.511 154.529 101.491 154.529 103.17V103.239C154.529 104.21 153.54 104.125 151.154 104.432C148.725 104.747 146.074 105.284 146.074 108.284C146.074 110.841 148.052 112.307 150.54 112.307ZM150.847 110.5C149.245 110.5 148.086 109.784 148.086 108.386C148.086 106.852 149.484 106.375 151.052 106.17C151.904 106.068 154.188 105.83 154.529 105.42V107.261C154.529 108.898 153.234 110.5 150.847 110.5ZM165.875 112.273C168.397 112.273 169.25 110.705 169.693 109.989H169.932V112H171.875V94.5455H169.863V100.989H169.693C169.25 100.307 168.466 98.7386 165.909 98.7386C162.602 98.7386 160.318 101.364 160.318 105.489C160.318 109.648 162.602 112.273 165.875 112.273ZM166.147 110.466C163.625 110.466 162.329 108.25 162.329 105.455C162.329 102.693 163.591 100.545 166.147 100.545C168.602 100.545 169.897 102.523 169.897 105.455C169.897 108.42 168.568 110.466 166.147 110.466ZM180.41 112.307C182.694 112.307 183.887 111.08 184.296 110.227H184.399V112H186.41V103.375C186.41 99.2159 183.24 98.7386 181.569 98.7386C179.592 98.7386 177.342 99.4205 176.319 101.807L178.228 102.489C178.671 101.534 179.72 100.511 181.637 100.511C183.487 100.511 184.399 101.491 184.399 103.17V103.239C184.399 104.21 183.41 104.125 181.024 104.432C178.595 104.747 175.944 105.284 175.944 108.284C175.944 110.841 177.921 112.307 180.41 112.307ZM180.717 110.5C179.115 110.5 177.956 109.784 177.956 108.386C177.956 106.852 179.353 106.375 180.921 106.17C181.774 106.068 184.058 105.83 184.399 105.42V107.261C184.399 108.898 183.103 110.5 180.717 110.5Z" fill="#3A3A3A"/>
<path d="M33.1136 182H35.2273V175.625H39.0455C43.1108 175.625 44.9432 173.153 44.9432 170.068C44.9432 166.983 43.1108 164.545 39.0114 164.545H33.1136V182ZM35.2273 173.75V166.42H38.9432C41.7812 166.42 42.8636 167.972 42.8636 170.068C42.8636 172.165 41.7812 173.75 38.9773 173.75H35.2273ZM52.6476 182.307C54.9316 182.307 56.1248 181.08 56.5339 180.227H56.6362V182H58.6476V173.375C58.6476 169.216 55.4771 168.739 53.8066 168.739C51.8294 168.739 49.5794 169.42 48.5566 171.807L50.4657 172.489C50.9089 171.534 51.9572 170.511 53.8748 170.511C55.7243 170.511 56.6362 171.491 56.6362 173.17V173.239C56.6362 174.21 55.6476 174.125 53.2612 174.432C50.8322 174.747 48.1816 175.284 48.1816 178.284C48.1816 180.841 50.1589 182.307 52.6476 182.307ZM52.9544 180.5C51.3521 180.5 50.193 179.784 50.193 178.386C50.193 176.852 51.5907 176.375 53.1589 176.17C54.0112 176.068 56.2953 175.83 56.6362 175.42V177.261C56.6362 178.898 55.3407 180.5 52.9544 180.5ZM65.0501 174.125C65.0501 171.841 66.4649 170.545 68.391 170.545C70.2575 170.545 71.391 171.764 71.391 173.818V182H73.4024V173.682C73.4024 170.341 71.6211 168.739 68.9705 168.739C66.9933 168.739 65.766 169.625 65.1524 170.955H64.9819V168.909H63.0387V182H65.0501V174.125ZM77.7978 168.909V182.955C77.7978 184.284 77.2523 185.034 76.0251 185.034H75.6501V186.909H76.0591C78.5819 186.909 79.8091 185.375 79.8091 182.955V168.909H77.7978ZM78.7864 166.727C79.5705 166.727 80.2182 166.114 80.2182 165.364C80.2182 164.614 79.5705 164 78.7864 164C78.0023 164 77.3546 164.614 77.3546 165.364C77.3546 166.114 78.0023 166.727 78.7864 166.727ZM88.0654 182.307C90.3495 182.307 91.5426 181.08 91.9517 180.227H92.054V182H94.0654V173.375C94.0654 169.216 90.8949 168.739 89.2245 168.739C87.2472 168.739 84.9972 169.42 83.9745 171.807L85.8836 172.489C86.3267 171.534 87.375 170.511 89.2926 170.511C91.1421 170.511 92.054 171.491 92.054 173.17V173.239C92.054 174.21 91.0654 174.125 88.679 174.432C86.25 174.747 83.5995 175.284 83.5995 178.284C83.5995 180.841 85.5767 182.307 88.0654 182.307ZM88.3722 180.5C86.7699 180.5 85.6108 179.784 85.6108 178.386C85.6108 176.852 87.0086 176.375 88.5767 176.17C89.429 176.068 91.7131 175.83 92.054 175.42V177.261C92.054 178.898 90.7586 180.5 88.3722 180.5ZM100.468 174.125C100.468 171.841 101.883 170.545 103.809 170.545C105.675 170.545 106.809 171.764 106.809 173.818V182H108.82V173.682C108.82 170.341 107.039 168.739 104.388 168.739C102.411 168.739 101.184 169.625 100.57 170.955H100.4V168.909H98.4565V182H100.468V174.125ZM118.5 187.182C121.636 187.182 124.159 185.75 124.159 182.375V168.909H122.216V170.989H122.011C121.568 170.307 120.75 168.739 118.193 168.739C114.886 168.739 112.602 171.364 112.602 175.386C112.602 179.477 114.988 181.795 118.159 181.795C120.716 181.795 121.534 180.295 121.977 179.58H122.147V182.239C122.147 184.42 120.613 185.409 118.5 185.409C116.122 185.409 115.287 184.156 114.75 183.432L113.147 184.557C113.966 185.929 115.576 187.182 118.5 187.182ZM118.432 179.989C115.909 179.989 114.613 178.08 114.613 175.352C114.613 172.693 115.875 170.545 118.432 170.545C120.886 170.545 122.182 172.523 122.182 175.352C122.182 178.25 120.852 179.989 118.432 179.989ZM141.69 182C147.008 182 150.008 178.693 150.008 173.239C150.008 167.818 147.008 164.545 141.928 164.545H136.303V182H141.69ZM138.417 180.125V166.42H141.792C145.883 166.42 147.962 169.011 147.962 173.239C147.962 177.5 145.883 180.125 141.553 180.125H138.417ZM154.001 182H156.012V173.716C156.012 171.943 157.41 170.648 159.319 170.648C159.856 170.648 160.41 170.75 160.546 170.784V168.739C160.316 168.722 159.788 168.705 159.489 168.705C157.921 168.705 156.557 169.591 156.08 170.886H155.944V168.909H154.001V182ZM168.74 182.273C171.4 182.273 173.343 180.943 173.956 178.966L172.013 178.42C171.502 179.784 170.317 180.466 168.74 180.466C166.38 180.466 164.752 178.94 164.658 176.136H174.161V175.284C174.161 170.409 171.263 168.739 168.536 168.739C164.99 168.739 162.638 171.534 162.638 175.557C162.638 179.58 164.956 182.273 168.74 182.273ZM164.658 174.398C164.794 172.361 166.235 170.545 168.536 170.545C170.718 170.545 172.115 172.182 172.115 174.398H164.658ZM187.213 171.841C186.583 169.983 185.168 168.739 182.577 168.739C179.816 168.739 177.77 170.307 177.77 172.523C177.77 174.33 178.844 175.54 181.247 176.102L183.429 176.614C184.75 176.92 185.372 177.551 185.372 178.455C185.372 179.58 184.179 180.5 182.304 180.5C180.659 180.5 179.628 179.793 179.27 178.386L177.361 178.864C177.83 181.088 179.662 182.273 182.338 182.273C185.381 182.273 187.452 180.611 187.452 178.352C187.452 176.528 186.31 175.378 183.975 174.807L182.032 174.33C180.48 173.946 179.782 173.426 179.782 172.42C179.782 171.295 180.975 170.477 182.577 170.477C184.333 170.477 185.057 171.449 185.407 172.352L187.213 171.841ZM200.472 171.841C199.842 169.983 198.427 168.739 195.836 168.739C193.075 168.739 191.029 170.307 191.029 172.523C191.029 174.33 192.103 175.54 194.506 176.102L196.688 176.614C198.009 176.92 198.631 177.551 198.631 178.455C198.631 179.58 197.438 180.5 195.563 180.5C193.918 180.5 192.887 179.793 192.529 178.386L190.62 178.864C191.089 181.088 192.921 182.273 195.597 182.273C198.64 182.273 200.711 180.611 200.711 178.352C200.711 176.528 199.569 175.378 197.234 174.807L195.291 174.33C193.739 173.946 193.041 173.426 193.041 172.42C193.041 171.295 194.234 170.477 195.836 170.477C197.592 170.477 198.316 171.449 198.666 172.352L200.472 171.841Z" fill="#3A3A3A"/>
<path d="M33.1136 252H35.2273V245.625H39.0455C43.1108 245.625 44.9432 243.153 44.9432 240.068C44.9432 236.983 43.1108 234.545 39.0114 234.545H33.1136V252ZM35.2273 243.75V236.42H38.9432C41.7812 236.42 42.8636 237.972 42.8636 240.068C42.8636 242.165 41.7812 243.75 38.9773 243.75H35.2273ZM52.6476 252.307C54.9316 252.307 56.1248 251.08 56.5339 250.227H56.6362V252H58.6476V243.375C58.6476 239.216 55.4771 238.739 53.8066 238.739C51.8294 238.739 49.5794 239.42 48.5566 241.807L50.4657 242.489C50.9089 241.534 51.9572 240.511 53.8748 240.511C55.7243 240.511 56.6362 241.491 56.6362 243.17V243.239C56.6362 244.21 55.6476 244.125 53.2612 244.432C50.8322 244.747 48.1816 245.284 48.1816 248.284C48.1816 250.841 50.1589 252.307 52.6476 252.307ZM52.9544 250.5C51.3521 250.5 50.193 249.784 50.193 248.386C50.193 246.852 51.5907 246.375 53.1589 246.17C54.0112 246.068 56.2953 245.83 56.6362 245.42V247.261C56.6362 248.898 55.3407 250.5 52.9544 250.5ZM65.0501 244.125C65.0501 241.841 66.4649 240.545 68.391 240.545C70.2575 240.545 71.391 241.764 71.391 243.818V252H73.4024V243.682C73.4024 240.341 71.6211 238.739 68.9705 238.739C66.9933 238.739 65.766 239.625 65.1524 240.955H64.9819V238.909H63.0387V252H65.0501V244.125ZM77.7978 238.909V252.955C77.7978 254.284 77.2523 255.034 76.0251 255.034H75.6501V256.909H76.0591C78.5819 256.909 79.8091 255.375 79.8091 252.955V238.909H77.7978ZM78.7864 236.727C79.5705 236.727 80.2182 236.114 80.2182 235.364C80.2182 234.614 79.5705 234 78.7864 234C78.0023 234 77.3546 234.614 77.3546 235.364C77.3546 236.114 78.0023 236.727 78.7864 236.727ZM88.0654 252.307C90.3495 252.307 91.5426 251.08 91.9517 250.227H92.054V252H94.0654V243.375C94.0654 239.216 90.8949 238.739 89.2245 238.739C87.2472 238.739 84.9972 239.42 83.9745 241.807L85.8836 242.489C86.3267 241.534 87.375 240.511 89.2926 240.511C91.1421 240.511 92.054 241.491 92.054 243.17V243.239C92.054 244.21 91.0654 244.125 88.679 244.432C86.25 244.747 83.5995 245.284 83.5995 248.284C83.5995 250.841 85.5767 252.307 88.0654 252.307ZM88.3722 250.5C86.7699 250.5 85.6108 249.784 85.6108 248.386C85.6108 246.852 87.0086 246.375 88.5767 246.17C89.429 246.068 91.7131 245.83 92.054 245.42V247.261C92.054 248.898 90.7586 250.5 88.3722 250.5ZM100.468 244.125C100.468 241.841 101.883 240.545 103.809 240.545C105.675 240.545 106.809 241.764 106.809 243.818V252H108.82V243.682C108.82 240.341 107.039 238.739 104.388 238.739C102.411 238.739 101.184 239.625 100.57 240.955H100.4V238.909H98.4565V252H100.468V244.125ZM118.5 257.182C121.636 257.182 124.159 255.75 124.159 252.375V238.909H122.216V240.989H122.011C121.568 240.307 120.75 238.739 118.193 238.739C114.886 238.739 112.602 241.364 112.602 245.386C112.602 249.477 114.988 251.795 118.159 251.795C120.716 251.795 121.534 250.295 121.977 249.58H122.147V252.239C122.147 254.42 120.613 255.409 118.5 255.409C116.122 255.409 115.287 254.156 114.75 253.432L113.147 254.557C113.966 255.929 115.576 257.182 118.5 257.182ZM118.432 249.989C115.909 249.989 114.613 248.08 114.613 245.352C114.613 242.693 115.875 240.545 118.432 240.545C120.886 240.545 122.182 242.523 122.182 245.352C122.182 248.25 120.852 249.989 118.432 249.989ZM136.303 252H146.531V250.125H138.417V234.545H136.303V252ZM155.739 252.273C158.398 252.273 160.342 250.943 160.955 248.966L159.012 248.42C158.501 249.784 157.316 250.466 155.739 250.466C153.378 250.466 151.751 248.94 151.657 246.136H161.16V245.284C161.16 240.409 158.262 238.739 155.535 238.739C151.989 238.739 149.637 241.534 149.637 245.557C149.637 249.58 151.955 252.273 155.739 252.273ZM151.657 244.398C151.793 242.361 153.234 240.545 155.535 240.545C157.717 240.545 159.114 242.182 159.114 244.398H151.657ZM166.951 244.125C166.951 241.841 168.365 240.545 170.292 240.545C172.158 240.545 173.292 241.764 173.292 243.818V252H175.303V243.682C175.303 240.341 173.522 238.739 170.871 238.739C168.894 238.739 167.667 239.625 167.053 240.955H166.883V238.909H164.939V252H166.951V244.125ZM184.982 257.182C188.119 257.182 190.642 255.75 190.642 252.375V238.909H188.698V240.989H188.494C188.051 240.307 187.232 238.739 184.676 238.739C181.369 238.739 179.085 241.364 179.085 245.386C179.085 249.477 181.471 251.795 184.642 251.795C187.198 251.795 188.017 250.295 188.46 249.58H188.63V252.239C188.63 254.42 187.096 255.409 184.982 255.409C182.605 255.409 181.769 254.156 181.232 253.432L179.63 254.557C180.448 255.929 182.059 257.182 184.982 257.182ZM184.914 249.989C182.392 249.989 181.096 248.08 181.096 245.352C181.096 242.693 182.357 240.545 184.914 240.545C187.369 240.545 188.664 242.523 188.664 245.352C188.664 248.25 187.335 249.989 184.914 249.989ZM198.896 252.307C201.18 252.307 202.373 251.08 202.782 250.227H202.884V252H204.896V243.375C204.896 239.216 201.725 238.739 200.055 238.739C198.077 238.739 195.827 239.42 194.805 241.807L196.714 242.489C197.157 241.534 198.205 240.511 200.123 240.511C201.972 240.511 202.884 241.491 202.884 243.17V243.239C202.884 244.21 201.896 244.125 199.509 244.432C197.08 244.747 194.43 245.284 194.43 248.284C194.43 250.841 196.407 252.307 198.896 252.307ZM199.202 250.5C197.6 250.5 196.441 249.784 196.441 248.386C196.441 246.852 197.839 246.375 199.407 246.17C200.259 246.068 202.543 245.83 202.884 245.42V247.261C202.884 248.898 201.589 250.5 199.202 250.5ZM211.298 244.125C211.298 241.841 212.713 240.545 214.639 240.545C216.506 240.545 217.639 241.764 217.639 243.818V252H219.65V243.682C219.65 240.341 217.869 238.739 215.219 238.739C213.241 238.739 212.014 239.625 211.4 240.955H211.23V238.909H209.287V252H211.298V244.125Z" fill="#3A3A3A"/>
<path d="M387.986 29.5653H391.523C391.472 26.4545 388.915 24.3068 385.028 24.3068C381.202 24.3068 378.398 26.4205 378.415 29.5909C378.406 32.1648 380.222 33.6392 383.17 34.3466L385.071 34.8239C386.972 35.2841 388.028 35.8295 388.037 37.0057C388.028 38.2841 386.818 39.1534 384.943 39.1534C383.026 39.1534 381.645 38.267 381.526 36.5199H377.955C378.048 40.2955 380.75 42.2472 384.986 42.2472C389.247 42.2472 391.753 40.2102 391.761 37.0142C391.753 34.108 389.562 32.5653 386.528 31.8835L384.96 31.5085C383.443 31.1591 382.173 30.5966 382.199 29.3438C382.199 28.2188 383.196 27.392 385.003 27.392C386.767 27.392 387.849 28.1932 387.986 29.5653Z" fill="#3A3A3A"/>
<path d="M464.517 24.5455V42H468.097V30.5966H468.241L472.759 41.9148H475.196L479.713 30.6392H479.858V42H483.438V24.5455H478.886L474.08 36.2727H473.875L469.068 24.5455H464.517Z" fill="#3A3A3A"/>
<path d="M558.517 42H569.69V38.9574H562.207V24.5455H558.517V42Z" fill="#3A3A3A"/>
<path d="M644.977 24.5455H640.793L646.153 33.2727L640.69 42H644.918L648.497 36.0426H648.634L652.213 42H656.457L651.011 33.2727L656.338 24.5455H652.17L648.634 30.4943H648.497L644.977 24.5455ZM659.873 42H671.047V38.9574H663.564V24.5455H659.873V42Z" fill="#3A3A3A"/>
<path d="M377.364 94.3068C373.818 94.2642 371.534 96.9318 371.534 100.136C371.534 103.511 374.023 105.932 377.023 105.932C378.83 105.932 380.364 105.045 381.318 103.614H381.455C381.455 107.909 379.784 110.364 377.091 110.364C375.25 110.364 374.125 109.205 373.75 107.602H371.67C372.08 110.364 374.159 112.239 377.091 112.239C381.011 112.239 383.432 108.761 383.432 102.557C383.432 96.1477 380.227 94.3409 377.364 94.3068ZM377.364 96.1818C379.545 96.1818 381.148 98.0568 381.148 100.102C381.148 102.182 379.443 104.057 377.295 104.057C375.148 104.057 373.58 102.318 373.58 100.136C373.58 97.9545 375.216 96.1818 377.364 96.1818ZM387.574 108.42H395.79V112H397.802V108.42H400.188V106.545H397.802V94.5455H395.245L387.574 106.682V108.42ZM395.79 106.545H389.858V106.409L395.654 97.2386H395.79V106.545Z" fill="#3A3A3A"/>
<path d="M467.364 94.3068C463.818 94.2642 461.534 96.9318 461.534 100.136C461.534 103.511 464.023 105.932 467.023 105.932C468.83 105.932 470.364 105.045 471.318 103.614H471.455C471.455 107.909 469.784 110.364 467.091 110.364C465.25 110.364 464.125 109.205 463.75 107.602H461.67C462.08 110.364 464.159 112.239 467.091 112.239C471.011 112.239 473.432 108.761 473.432 102.557C473.432 96.1477 470.227 94.3409 467.364 94.3068ZM467.364 96.1818C469.545 96.1818 471.148 98.0568 471.148 100.102C471.148 102.182 469.443 104.057 467.295 104.057C465.148 104.057 463.58 102.318 463.58 100.136C463.58 97.9545 465.216 96.1818 467.364 96.1818ZM483.779 112.239C487.307 112.281 489.608 109.622 489.608 106.375C489.608 103 487.111 100.58 484.12 100.58C482.321 100.58 480.779 101.457 479.824 102.898H479.688C479.696 98.6449 481.35 96.1818 484.052 96.1818C485.892 96.1818 487 97.3409 487.392 98.9091H489.472C489.046 96.1989 486.983 94.3068 484.052 94.3068C480.123 94.3068 477.711 97.7841 477.711 103.955C477.711 110.406 480.915 112.205 483.779 112.239ZM483.779 110.364C481.588 110.364 479.986 108.497 479.995 106.409C480.003 104.321 481.682 102.455 483.847 102.455C485.986 102.455 487.563 104.21 487.563 106.375C487.563 108.591 485.918 110.364 483.779 110.364Z" fill="#3A3A3A"/>
<path d="M557.364 94.3068C553.818 94.2642 551.534 96.9318 551.534 100.136C551.534 103.511 554.023 105.932 557.023 105.932C558.83 105.932 560.364 105.045 561.318 103.614H561.455C561.455 107.909 559.784 110.364 557.091 110.364C555.25 110.364 554.125 109.205 553.75 107.602H551.67C552.08 110.364 554.159 112.239 557.091 112.239C561.011 112.239 563.432 108.761 563.432 102.557C563.432 96.1477 560.227 94.3409 557.364 94.3068ZM557.364 96.1818C559.545 96.1818 561.148 98.0568 561.148 100.102C561.148 102.182 559.443 104.057 557.295 104.057C555.148 104.057 553.58 102.318 553.58 100.136C553.58 97.9545 555.216 96.1818 557.364 96.1818ZM573.574 112.239C577.06 112.239 579.489 110.202 579.506 107.364C579.489 105.156 578.015 103.281 576.131 102.932V102.83C577.767 102.403 578.841 100.801 578.858 98.9432C578.841 96.2841 576.608 94.3068 573.574 94.3068C570.506 94.3068 568.273 96.2841 568.29 98.9432C568.273 100.801 569.347 102.403 571.017 102.83V102.932C569.1 103.281 567.625 105.156 567.642 107.364C567.625 110.202 570.054 112.239 573.574 112.239ZM573.574 110.364C571.179 110.364 569.705 109.136 569.722 107.261C569.705 105.293 571.333 103.886 573.574 103.886C575.782 103.886 577.41 105.293 577.427 107.261C577.41 109.136 575.935 110.364 573.574 110.364ZM573.574 102.08C571.665 102.08 570.319 100.886 570.336 99.0795C570.319 97.3068 571.614 96.1477 573.574 96.1477C575.5 96.1477 576.796 97.3068 576.813 99.0795C576.796 100.886 575.449 102.08 573.574 102.08Z" fill="#3A3A3A"/>
<path d="M640.943 94.5455H638.83L634.466 97.4432V99.5909L638.727 96.7614H638.83V112H640.943V94.5455ZM652.856 112.239C656.709 112.239 658.924 108.974 658.924 103.273C658.924 97.6136 656.674 94.3068 652.856 94.3068C649.038 94.3068 646.788 97.6136 646.788 103.273C646.788 108.974 649.004 112.239 652.856 112.239ZM652.856 110.364C650.316 110.364 648.834 107.815 648.834 103.273C648.834 98.7386 650.334 96.1477 652.856 96.1477C655.379 96.1477 656.879 98.7386 656.879 103.273C656.879 107.815 655.396 110.364 652.856 110.364ZM669.056 112.239C672.909 112.239 675.124 108.974 675.124 103.273C675.124 97.6136 672.874 94.3068 669.056 94.3068C665.238 94.3068 662.988 97.6136 662.988 103.273C662.988 108.974 665.204 112.239 669.056 112.239ZM669.056 110.364C666.516 110.364 665.034 107.815 665.034 103.273C665.034 98.7386 666.534 96.1477 669.056 96.1477C671.579 96.1477 673.079 98.7386 673.079 103.273C673.079 107.815 671.596 110.364 669.056 110.364Z" fill="#3A3A3A"/>
<path d="M373.943 164.545H371.83L367.466 167.443V169.591L371.727 166.761H371.83V182H373.943V164.545ZM386.299 164.545H384.186L379.822 167.443V169.591L384.084 166.761H384.186V182H386.299V164.545ZM397.974 182.239C401.298 182.239 403.735 179.784 403.735 176.443C403.735 173.06 401.383 170.58 398.178 170.58C397.002 170.58 395.86 170.997 395.144 171.568H395.042L395.656 166.42H402.951V164.545H393.883L392.826 173.136L394.803 173.375C395.528 172.855 396.764 172.48 397.837 172.489C400.062 172.506 401.69 174.193 401.69 176.477C401.69 178.719 400.122 180.364 397.974 180.364C396.184 180.364 394.761 179.213 394.599 177.636H392.553C392.681 180.295 394.974 182.239 397.974 182.239Z" fill="#3A3A3A"/>
<path d="M463.943 164.545H461.83L457.466 167.443V169.591L461.727 166.761H461.83V182H463.943V164.545ZM476.299 164.545H474.186L469.822 167.443V169.591L474.084 166.761H474.186V182H476.299V164.545ZM488.315 182.239C491.843 182.281 494.144 179.622 494.144 176.375C494.144 173 491.647 170.58 488.656 170.58C486.857 170.58 485.315 171.457 484.36 172.898H484.224C484.232 168.645 485.886 166.182 488.587 166.182C490.428 166.182 491.536 167.341 491.928 168.909H494.008C493.582 166.199 491.519 164.307 488.587 164.307C484.659 164.307 482.247 167.784 482.247 173.955C482.247 180.406 485.451 182.205 488.315 182.239ZM488.315 180.364C486.124 180.364 484.522 178.497 484.531 176.409C484.539 174.321 486.218 172.455 488.383 172.455C490.522 172.455 492.099 174.21 492.099 176.375C492.099 178.591 490.454 180.364 488.315 180.364Z" fill="#3A3A3A"/>
<path d="M553.943 164.545H551.83L547.466 167.443V169.591L551.727 166.761H551.83V182H553.943V164.545ZM566.299 164.545H564.186L559.822 167.443V169.591L564.084 166.761H564.186V182H566.299V164.545ZM578.11 182.239C581.596 182.239 584.025 180.202 584.042 177.364C584.025 175.156 582.551 173.281 580.667 172.932V172.83C582.303 172.403 583.377 170.801 583.394 168.943C583.377 166.284 581.144 164.307 578.11 164.307C575.042 164.307 572.809 166.284 572.826 168.943C572.809 170.801 573.883 172.403 575.553 172.83V172.932C573.636 173.281 572.161 175.156 572.178 177.364C572.161 180.202 574.59 182.239 578.11 182.239ZM578.11 180.364C575.715 180.364 574.241 179.136 574.258 177.261C574.241 175.293 575.869 173.886 578.11 173.886C580.318 173.886 581.945 175.293 581.962 177.261C581.945 179.136 580.471 180.364 578.11 180.364ZM578.11 172.08C576.201 172.08 574.855 170.886 574.872 169.08C574.855 167.307 576.15 166.148 578.11 166.148C580.036 166.148 581.332 167.307 581.349 169.08C581.332 170.886 579.985 172.08 578.11 172.08Z" fill="#3A3A3A"/>
<path d="M640.943 164.545H638.83L634.466 167.443V169.591L638.727 166.761H638.83V182H640.943V164.545ZM647.163 182H658.174V180.125H650.061V179.989L653.981 175.795C656.981 172.582 657.868 171.082 657.868 169.148C657.868 166.455 655.686 164.307 652.618 164.307C649.558 164.307 647.231 166.386 647.231 169.455H649.243C649.243 167.469 650.53 166.148 652.549 166.148C654.441 166.148 655.89 167.307 655.89 169.148C655.89 170.759 654.944 171.952 652.924 174.159L647.163 180.466V182ZM668.587 182.239C672.44 182.239 674.656 178.974 674.656 173.273C674.656 167.614 672.406 164.307 668.587 164.307C664.769 164.307 662.519 167.614 662.519 173.273C662.519 178.974 664.735 182.239 668.587 182.239ZM668.587 180.364C666.048 180.364 664.565 177.815 664.565 173.273C664.565 168.739 666.065 166.148 668.587 166.148C671.11 166.148 672.61 168.739 672.61 173.273C672.61 177.815 671.127 180.364 668.587 180.364Z" fill="#3A3A3A"/>
<path d="M371.807 252H382.818V250.125H374.705V249.989L378.625 245.795C381.625 242.582 382.511 241.082 382.511 239.148C382.511 236.455 380.33 234.307 377.261 234.307C374.202 234.307 371.875 236.386 371.875 239.455H373.886C373.886 237.469 375.173 236.148 377.193 236.148C379.085 236.148 380.534 237.307 380.534 239.148C380.534 240.759 379.588 241.952 377.568 244.159L371.807 250.466V252ZM386.754 248.42H394.97V252H396.981V248.42H399.368V246.545H396.981V234.545H394.424L386.754 246.682V248.42ZM394.97 246.545H389.038V246.409L394.834 237.239H394.97V246.545Z" fill="#3A3A3A"/>
<path d="M461.807 252H472.818V250.125H464.705V249.989L468.625 245.795C471.625 242.582 472.511 241.082 472.511 239.148C472.511 236.455 470.33 234.307 467.261 234.307C464.202 234.307 461.875 236.386 461.875 239.455H463.886C463.886 237.469 465.173 236.148 467.193 236.148C469.085 236.148 470.534 237.307 470.534 239.148C470.534 240.759 469.588 241.952 467.568 244.159L461.807 250.466V252ZM483.334 252.239C486.862 252.281 489.163 249.622 489.163 246.375C489.163 243 486.666 240.58 483.674 240.58C481.876 240.58 480.334 241.457 479.379 242.898H479.243C479.251 238.645 480.905 236.182 483.606 236.182C485.447 236.182 486.555 237.341 486.947 238.909H489.027C488.601 236.199 486.538 234.307 483.606 234.307C479.677 234.307 477.265 237.784 477.265 243.955C477.265 250.406 480.47 252.205 483.334 252.239ZM483.334 250.364C481.143 250.364 479.541 248.497 479.549 246.409C479.558 244.321 481.237 242.455 483.402 242.455C485.541 242.455 487.118 244.21 487.118 246.375C487.118 248.591 485.473 250.364 483.334 250.364Z" fill="#3A3A3A"/>
<path d="M551.807 252H562.818V250.125H554.705V249.989L558.625 245.795C561.625 242.582 562.511 241.082 562.511 239.148C562.511 236.455 560.33 234.307 557.261 234.307C554.202 234.307 551.875 236.386 551.875 239.455H553.886C553.886 237.469 555.173 236.148 557.193 236.148C559.085 236.148 560.534 237.307 560.534 239.148C560.534 240.759 559.588 241.952 557.568 244.159L551.807 250.466V252ZM573.129 252.239C576.615 252.239 579.044 250.202 579.061 247.364C579.044 245.156 577.569 243.281 575.686 242.932V242.83C577.322 242.403 578.396 240.801 578.413 238.943C578.396 236.284 576.163 234.307 573.129 234.307C570.061 234.307 567.828 236.284 567.845 238.943C567.828 240.801 568.902 242.403 570.572 242.83V242.932C568.655 243.281 567.18 245.156 567.197 247.364C567.18 250.202 569.609 252.239 573.129 252.239ZM573.129 250.364C570.734 250.364 569.26 249.136 569.277 247.261C569.26 245.293 570.887 243.886 573.129 243.886C575.336 243.886 576.964 245.293 576.981 247.261C576.964 249.136 575.49 250.364 573.129 250.364ZM573.129 242.08C571.22 242.08 569.873 240.886 569.89 239.08C569.873 237.307 571.169 236.148 573.129 236.148C575.055 236.148 576.351 237.307 576.368 239.08C576.351 240.886 575.004 242.08 573.129 242.08Z" fill="#3A3A3A"/>
<path d="M647.705 252.239C651.088 252.239 653.602 250.116 653.602 247.261C653.602 245.045 652.29 243.435 650.091 243.068V242.932C651.855 242.395 652.955 240.946 652.955 238.977C652.955 236.506 651.003 234.307 647.773 234.307C644.756 234.307 642.25 236.165 642.148 238.909H644.193C644.27 237.17 645.923 236.148 647.739 236.148C649.665 236.148 650.909 237.315 650.909 239.08C650.909 240.92 649.469 242.114 647.398 242.114H646V243.989H647.398C650.048 243.989 651.523 245.335 651.523 247.261C651.523 249.111 649.912 250.364 647.67 250.364C645.651 250.364 644.048 249.324 643.92 247.636H641.773C641.901 250.381 644.321 252.239 647.705 252.239ZM663.981 252.239C667.834 252.239 670.049 248.974 670.049 243.273C670.049 237.614 667.799 234.307 663.981 234.307C660.163 234.307 657.913 237.614 657.913 243.273C657.913 248.974 660.129 252.239 663.981 252.239ZM663.981 250.364C661.441 250.364 659.959 247.815 659.959 243.273C659.959 238.739 661.459 236.148 663.981 236.148C666.504 236.148 668.004 238.739 668.004 243.273C668.004 247.815 666.521 250.364 663.981 250.364Z" fill="#3A3A3A"/>
</g>
<defs>
<clipPath id="clip0">
<rect width="700" height="280" fill="white"/>
</clipPath>
</defs>
</svg>
