<svg width="700" height="210" viewBox="0 0 700 210" fill="none" xmlns="http://www.w3.org/2000/svg">
<g clip-path="url(#clip0)">
<rect width="700" height="210" fill="white"/>
<line x1="0.5" y1="2.18557e-08" x2="0.499988" y2="280" stroke="#DEE2E6"/>
<line x1="340.5" y1="2.18557e-08" x2="340.5" y2="280" stroke="#DEE2E6"/>
<line x1="430.5" y1="2.18557e-08" x2="430.5" y2="280" stroke="#DEE2E6"/>
<line x1="520.5" y1="2.18557e-08" x2="520.5" y2="280" stroke="#DEE2E6"/>
<line x1="610.5" y1="2.18557e-08" x2="610.5" y2="280" stroke="#DEE2E6"/>
<line x1="699.5" y1="2.18557e-08" x2="699.5" y2="280" stroke="#DEE2E6"/>
<line y1="0.5" x2="700" y2="0.5" stroke="#DEE2E6"/>
<line y1="69.5" x2="700" y2="69.5" stroke="#DEE2E6"/>
<line y1="139.5" x2="700" y2="139.5" stroke="#DEE2E6"/>
<line y1="209.5" x2="700" y2="209.5" stroke="#DEE2E6"/>
<path d="M42.6591 28.9091H44.7045C44.6108 26.2756 42.1818 24.3068 38.8068 24.3068C35.4659 24.3068 32.8409 26.25 32.8409 29.1818C32.8409 31.5341 34.5455 32.9318 37.2727 33.7159L39.4205 34.3295C41.2614 34.8409 42.8977 35.4886 42.8977 37.2273C42.8977 39.1364 41.0568 40.3977 38.6364 40.3977C36.5568 40.3977 34.7159 39.4773 34.5455 37.5H32.3636C32.5682 40.3636 34.8864 42.3068 38.6364 42.3068C42.6591 42.3068 44.9432 40.0909 44.9432 37.2614C44.9432 33.9886 41.8409 32.9318 40.0341 32.4545L38.2614 31.9773C36.9659 31.6364 34.8864 30.9545 34.8864 29.0795C34.8864 27.4091 36.4205 26.1818 38.7386 26.1818C40.8523 26.1818 42.4545 27.1875 42.6591 28.9091ZM49.1383 42H51.252V35.625H55.0701C59.1355 35.625 60.9679 33.1534 60.9679 30.0682C60.9679 26.983 59.1355 24.5455 55.0361 24.5455H49.1383V42ZM51.252 33.75V26.4205H54.9679C57.8059 26.4205 58.8883 27.9716 58.8883 30.0682C58.8883 32.1648 57.8059 33.75 55.002 33.75H51.252ZM65.0927 42H75.7632V40.125H67.2063V34.1932H75.0813V32.3182H67.2063V26.4205H75.6268V24.5455H65.0927V42ZM94.2019 30C93.5542 26.4205 90.6905 24.3068 87.1792 24.3068C82.7133 24.3068 79.4746 27.75 79.4746 33.2727C79.4746 38.7955 82.7133 42.2386 87.1792 42.2386C90.6905 42.2386 93.5542 40.125 94.2019 36.5455H92.0883C91.5769 38.9659 89.4974 40.2614 87.1792 40.2614C84.0087 40.2614 81.5201 37.8068 81.5201 33.2727C81.5201 28.7386 84.0087 26.2841 87.1792 26.2841C89.4974 26.2841 91.5769 27.5795 92.0883 30H94.2019Z" fill="#3A3A3A"/>
<path d="M126.497 37.6364C126.497 41.9318 127.656 45.5114 129.735 48.5455H131.508C129.872 46.2955 128.576 41.6932 128.576 37.6364C128.576 33.5795 129.872 28.9773 131.508 26.7273H129.735C127.656 29.7614 126.497 33.3409 126.497 37.6364ZM140.233 45.2727C143.779 45.2727 146.165 42.5795 146.165 38.5227C146.165 34.4318 143.779 31.7386 140.233 31.7386C136.688 31.7386 134.301 34.4318 134.301 38.5227C134.301 42.5795 136.688 45.2727 140.233 45.2727ZM140.233 43.4659C137.54 43.4659 136.313 41.1477 136.313 38.5227C136.313 35.8977 137.54 33.5455 140.233 33.5455C142.926 33.5455 144.154 35.8977 144.154 38.5227C144.154 41.1477 142.926 43.4659 140.233 43.4659ZM151.967 37.125C151.967 34.8409 153.381 33.5455 155.308 33.5455C157.174 33.5455 158.308 34.7642 158.308 36.8182V45H160.319V36.6818C160.319 33.3409 158.538 31.7386 155.887 31.7386C153.91 31.7386 152.683 32.625 152.069 33.9545H151.898V31.9091H149.955V45H151.967V37.125ZM177.503 45.2727C180.4 45.2727 182.309 43.5 182.65 41.1818H180.639C180.264 42.6136 179.071 43.4659 177.503 43.4659C175.116 43.4659 173.582 41.4886 173.582 38.4545C173.582 35.4886 175.15 33.5455 177.503 33.5455C179.275 33.5455 180.332 34.6364 180.639 35.8295H182.65C182.309 33.375 180.23 31.7386 177.468 31.7386C173.923 31.7386 171.571 34.5341 171.571 38.5227C171.571 42.4432 173.821 45.2727 177.503 45.2727ZM186.311 45H188.322V36.8182C188.322 34.9006 189.72 33.5455 191.288 33.5455C192.813 33.5455 193.879 34.5426 193.879 36.0341V45H195.924V36.4773C195.924 34.7898 196.981 33.5455 198.822 33.5455C200.254 33.5455 201.481 34.304 201.481 36.2386V45H203.492V36.2386C203.492 33.1619 201.839 31.7386 199.504 31.7386C197.629 31.7386 196.257 32.5994 195.583 33.9545H195.447C194.799 32.5568 193.657 31.7386 191.936 31.7386C190.231 31.7386 188.97 32.5568 188.424 33.9545H188.254V31.9091H186.311V45ZM212.185 37.6364C212.185 33.3409 211.026 29.7614 208.947 26.7273H207.174C208.81 28.9773 210.106 33.5795 210.106 37.6364C210.106 41.6932 208.81 46.2955 207.174 48.5455H208.947C211.026 45.5114 212.185 41.9318 212.185 37.6364Z" fill="#3A3A3A"/>
<path d="M33.1136 112H35.2273V105.625H39.0455C43.1108 105.625 44.9432 103.153 44.9432 100.068C44.9432 96.983 43.1108 94.5455 39.0114 94.5455H33.1136V112ZM35.2273 103.75V96.4205H38.9432C41.7812 96.4205 42.8636 97.9716 42.8636 100.068C42.8636 102.165 41.7812 103.75 38.9773 103.75H35.2273ZM52.6476 112.307C54.9316 112.307 56.1248 111.08 56.5339 110.227H56.6362V112H58.6476V103.375C58.6476 99.2159 55.4771 98.7386 53.8066 98.7386C51.8294 98.7386 49.5794 99.4205 48.5566 101.807L50.4657 102.489C50.9089 101.534 51.9572 100.511 53.8748 100.511C55.7243 100.511 56.6362 101.491 56.6362 103.17V103.239C56.6362 104.21 55.6476 104.125 53.2612 104.432C50.8322 104.747 48.1816 105.284 48.1816 108.284C48.1816 110.841 50.1589 112.307 52.6476 112.307ZM52.9544 110.5C51.3521 110.5 50.193 109.784 50.193 108.386C50.193 106.852 51.5907 106.375 53.1589 106.17C54.0112 106.068 56.2953 105.83 56.6362 105.42V107.261C56.6362 108.898 55.3407 110.5 52.9544 110.5ZM65.0501 104.125C65.0501 101.841 66.4649 100.545 68.391 100.545C70.2575 100.545 71.391 101.764 71.391 103.818V112H73.4024V103.682C73.4024 100.341 71.6211 98.7386 68.9705 98.7386C66.9933 98.7386 65.766 99.625 65.1524 100.955H64.9819V98.9091H63.0387V112H65.0501V104.125ZM77.7978 98.9091V112.955C77.7978 114.284 77.2523 115.034 76.0251 115.034H75.6501V116.909H76.0591C78.5819 116.909 79.8091 115.375 79.8091 112.955V98.9091H77.7978ZM78.7864 96.7273C79.5705 96.7273 80.2182 96.1136 80.2182 95.3636C80.2182 94.6136 79.5705 94 78.7864 94C78.0023 94 77.3546 94.6136 77.3546 95.3636C77.3546 96.1136 78.0023 96.7273 78.7864 96.7273ZM88.0654 112.307C90.3495 112.307 91.5426 111.08 91.9517 110.227H92.054V112H94.0654V103.375C94.0654 99.2159 90.8949 98.7386 89.2245 98.7386C87.2472 98.7386 84.9972 99.4205 83.9745 101.807L85.8836 102.489C86.3267 101.534 87.375 100.511 89.2926 100.511C91.1421 100.511 92.054 101.491 92.054 103.17V103.239C92.054 104.21 91.0654 104.125 88.679 104.432C86.25 104.747 83.5995 105.284 83.5995 108.284C83.5995 110.841 85.5767 112.307 88.0654 112.307ZM88.3722 110.5C86.7699 110.5 85.6108 109.784 85.6108 108.386C85.6108 106.852 87.0086 106.375 88.5767 106.17C89.429 106.068 91.7131 105.83 92.054 105.42V107.261C92.054 108.898 90.7586 110.5 88.3722 110.5ZM100.468 104.125C100.468 101.841 101.883 100.545 103.809 100.545C105.675 100.545 106.809 101.764 106.809 103.818V112H108.82V103.682C108.82 100.341 107.039 98.7386 104.388 98.7386C102.411 98.7386 101.184 99.625 100.57 100.955H100.4V98.9091H98.4565V112H100.468V104.125ZM118.5 117.182C121.636 117.182 124.159 115.75 124.159 112.375V98.9091H122.216V100.989H122.011C121.568 100.307 120.75 98.7386 118.193 98.7386C114.886 98.7386 112.602 101.364 112.602 105.386C112.602 109.477 114.988 111.795 118.159 111.795C120.716 111.795 121.534 110.295 121.977 109.58H122.147V112.239C122.147 114.42 120.613 115.409 118.5 115.409C116.122 115.409 115.287 114.156 114.75 113.432L113.147 114.557C113.966 115.929 115.576 117.182 118.5 117.182ZM118.432 109.989C115.909 109.989 114.613 108.08 114.613 105.352C114.613 102.693 115.875 100.545 118.432 100.545C120.886 100.545 122.182 102.523 122.182 105.352C122.182 108.25 120.852 109.989 118.432 109.989ZM145.849 98.9091H147.894C147.8 96.2756 145.372 94.3068 141.997 94.3068C138.656 94.3068 136.031 96.25 136.031 99.1818C136.031 101.534 137.735 102.932 140.462 103.716L142.61 104.33C144.451 104.841 146.087 105.489 146.087 107.227C146.087 109.136 144.247 110.398 141.826 110.398C139.747 110.398 137.906 109.477 137.735 107.5H135.553C135.758 110.364 138.076 112.307 141.826 112.307C145.849 112.307 148.133 110.091 148.133 107.261C148.133 103.989 145.031 102.932 143.224 102.455L141.451 101.977C140.156 101.636 138.076 100.955 138.076 99.0795C138.076 97.4091 139.61 96.1818 141.928 96.1818C144.042 96.1818 145.644 97.1875 145.849 98.9091ZM157.544 112.273C160.203 112.273 162.146 110.943 162.76 108.966L160.817 108.42C160.305 109.784 159.121 110.466 157.544 110.466C155.183 110.466 153.555 108.94 153.462 106.136H162.964V105.284C162.964 100.409 160.067 98.7386 157.339 98.7386C153.794 98.7386 151.442 101.534 151.442 105.557C151.442 109.58 153.76 112.273 157.544 112.273ZM153.462 104.398C153.598 102.361 155.038 100.545 157.339 100.545C159.521 100.545 160.919 102.182 160.919 104.398H153.462ZM166.744 116.909H168.755V109.989H168.926C169.369 110.705 170.221 112.273 172.744 112.273C176.017 112.273 178.301 109.648 178.301 105.489C178.301 101.364 176.017 98.7386 172.71 98.7386C170.153 98.7386 169.369 100.307 168.926 100.989H168.687V98.9091H166.744V116.909ZM168.721 105.455C168.721 102.523 170.017 100.545 172.471 100.545C175.028 100.545 176.289 102.693 176.289 105.455C176.289 108.25 174.994 110.466 172.471 110.466C170.051 110.466 168.721 108.42 168.721 105.455ZM185.941 112.307C188.225 112.307 189.419 111.08 189.828 110.227H189.93V112H191.941V103.375C191.941 99.2159 188.771 98.7386 187.1 98.7386C185.123 98.7386 182.873 99.4205 181.85 101.807L183.759 102.489C184.203 101.534 185.251 100.511 187.169 100.511C189.018 100.511 189.93 101.491 189.93 103.17V103.239C189.93 104.21 188.941 104.125 186.555 104.432C184.126 104.747 181.475 105.284 181.475 108.284C181.475 110.841 183.453 112.307 185.941 112.307ZM186.248 110.5C184.646 110.5 183.487 109.784 183.487 108.386C183.487 106.852 184.884 106.375 186.453 106.17C187.305 106.068 189.589 105.83 189.93 105.42V107.261C189.93 108.898 188.634 110.5 186.248 110.5ZM202.026 98.9091H199.23V95.7727H197.219V98.9091H195.242V100.614H197.219V108.795C197.219 111.08 199.06 112.17 200.764 112.17C201.514 112.17 201.992 112.034 202.264 111.932L201.855 110.125C201.685 110.159 201.412 110.227 200.969 110.227C200.082 110.227 199.23 109.955 199.23 108.25V100.614H202.026V98.9091ZM214.021 106.648C214.021 109.102 212.146 110.227 210.646 110.227C208.976 110.227 207.783 109 207.783 107.091V98.9091H205.771V107.227C205.771 110.568 207.544 112.17 209.998 112.17C211.976 112.17 213.271 111.114 213.885 109.784H214.021V112H216.033V98.9091H214.021V106.648Z" fill="#3A3A3A"/>
<path d="M44.5682 164.545V175.932C44.5682 178.489 42.8125 180.33 39.8977 180.33C36.983 180.33 35.2273 178.489 35.2273 175.932V164.545H33.1136V176.102C33.1136 179.682 35.7898 182.307 39.8977 182.307C44.0057 182.307 46.6818 179.682 46.6818 176.102V164.545H44.5682ZM61.1682 168.909H63.2136C63.1199 166.276 60.6909 164.307 57.3159 164.307C53.975 164.307 51.35 166.25 51.35 169.182C51.35 171.534 53.0545 172.932 55.7818 173.716L57.9295 174.33C59.7704 174.841 61.4068 175.489 61.4068 177.227C61.4068 179.136 59.5659 180.398 57.1454 180.398C55.0659 180.398 53.225 179.477 53.0545 177.5H50.8727C51.0772 180.364 53.3954 182.307 57.1454 182.307C61.1682 182.307 63.4522 180.091 63.4522 177.261C63.4522 173.989 60.35 172.932 58.5432 172.455L56.7704 171.977C55.475 171.636 53.3954 170.955 53.3954 169.08C53.3954 167.409 54.9295 166.182 57.2477 166.182C59.3613 166.182 60.9636 167.188 61.1682 168.909Z" fill="#3A3A3A"/>
<path d="M377.866 42.2386C381.787 42.2386 384.591 40.0824 384.582 37.0994C384.591 34.9261 383.21 33.375 380.645 33.0511V32.9148C382.597 32.5653 383.943 31.1847 383.935 29.2244C383.943 26.4716 381.531 24.3068 377.918 24.3068C374.338 24.3068 371.645 26.4034 371.594 29.4205H375.131C375.173 28.0909 376.392 27.2301 377.901 27.2301C379.392 27.2301 380.389 28.1335 380.381 29.446C380.389 30.8182 379.222 31.7472 377.543 31.7472H375.915V34.4574H377.543C379.52 34.4574 380.756 35.446 380.747 36.8523C380.756 38.2415 379.562 39.196 377.875 39.196C376.247 39.196 375.028 38.3438 374.96 37.0653H371.244C371.304 40.1165 374.031 42.2386 377.866 42.2386ZM394.946 42.2386C398.884 42.2386 401.713 40.1335 401.722 37.304C401.713 35.1222 400.035 33.3409 397.938 32.9915V32.8722C399.762 32.4972 401.066 30.9205 401.074 29.0028C401.066 26.3011 398.475 24.3068 394.946 24.3068C391.41 24.3068 388.819 26.3011 388.827 29.0028C388.819 30.9119 390.106 32.4972 391.963 32.8722V32.9915C389.833 33.3409 388.171 35.1222 388.179 37.304C388.171 40.1335 391.009 42.2386 394.946 42.2386ZM394.946 39.5284C393.191 39.5284 392.015 38.4886 392.015 37.0142C392.015 35.5057 393.25 34.4148 394.946 34.4148C396.634 34.4148 397.878 35.5057 397.878 37.0142C397.878 38.4972 396.694 39.5284 394.946 39.5284ZM394.946 31.7301C393.472 31.7301 392.424 30.767 392.424 29.3864C392.424 28.0227 393.455 27.0852 394.946 27.0852C396.429 27.0852 397.469 28.0312 397.469 29.3864C397.469 30.767 396.412 31.7301 394.946 31.7301Z" fill="#3A3A3A"/>
<path d="M461.151 38.9318H469.528V42H473.057V38.9318H475.222V35.9744H473.057V24.5455H468.438L461.151 36.0256V38.9318ZM469.597 35.9744H464.866V35.8381L469.46 28.5682H469.597V35.9744ZM485.724 42.3835C490.113 42.3835 492.764 39.0426 492.772 33.2898C492.781 27.5795 490.096 24.3068 485.724 24.3068C481.343 24.3068 478.684 27.571 478.676 33.2898C478.659 39.0256 481.326 42.375 485.724 42.3835ZM485.724 39.3239C483.721 39.3239 482.426 37.3125 482.434 33.2898C482.443 29.3267 483.73 27.3324 485.724 27.3324C487.71 27.3324 489.005 29.3267 489.005 33.2898C489.014 37.3125 487.718 39.3239 485.724 39.3239Z" fill="#3A3A3A"/>
<path d="M552.151 38.9318H560.528V42H564.057V38.9318H566.222V35.9744H564.057V24.5455H559.438L552.151 36.0256V38.9318ZM560.597 35.9744H555.866V35.8381L560.46 28.5682H560.597V35.9744ZM577.24 24.5455H573.771L569.45 27.2812V30.554L573.447 28.0483H573.549V42H577.24V24.5455Z" fill="#3A3A3A"/>
<path d="M640.151 38.9318H648.528V42H652.057V38.9318H654.222V35.9744H652.057V24.5455H647.438L640.151 36.0256V38.9318ZM648.597 35.9744H643.866V35.8381L648.46 28.5682H648.597V35.9744ZM657.88 42H670.324V38.983H662.994V38.8636L665.542 36.3665C669.13 33.0938 670.093 31.4574 670.093 29.4716C670.093 26.446 667.622 24.3068 663.88 24.3068C660.216 24.3068 657.701 26.4972 657.71 29.9233H661.213C661.204 28.2528 662.261 27.2301 663.855 27.2301C665.389 27.2301 666.531 28.1847 666.531 29.7188C666.531 31.108 665.679 32.0625 664.093 33.5881L657.88 39.3409V42Z" fill="#3A3A3A"/>
<path d="M371.807 112H382.818V110.125H374.705V109.989L378.625 105.795C381.625 102.582 382.511 101.082 382.511 99.1477C382.511 96.4545 380.33 94.3068 377.261 94.3068C374.202 94.3068 371.875 96.3864 371.875 99.4545H373.886C373.886 97.4688 375.173 96.1477 377.193 96.1477C379.085 96.1477 380.534 97.3068 380.534 99.1477C380.534 100.759 379.588 101.952 377.568 104.159L371.807 110.466V112ZM392.993 112.239C396.316 112.239 398.754 109.784 398.754 106.443C398.754 103.06 396.402 100.58 393.197 100.58C392.021 100.58 390.879 100.997 390.163 101.568H390.061L390.674 96.4205H397.97V94.5455H388.902L387.845 103.136L389.822 103.375C390.547 102.855 391.782 102.48 392.856 102.489C395.081 102.506 396.709 104.193 396.709 106.477C396.709 108.719 395.14 110.364 392.993 110.364C391.203 110.364 389.78 109.213 389.618 107.636H387.572C387.7 110.295 389.993 112.239 392.993 112.239Z" fill="#3A3A3A"/>
<path d="M461.807 112H472.818V110.125H464.705V109.989L468.625 105.795C471.625 102.582 472.511 101.082 472.511 99.1477C472.511 96.4545 470.33 94.3068 467.261 94.3068C464.202 94.3068 461.875 96.3864 461.875 99.4545H463.886C463.886 97.4688 465.173 96.1477 467.193 96.1477C469.085 96.1477 470.534 97.3068 470.534 99.1477C470.534 100.759 469.588 101.952 467.568 104.159L461.807 110.466V112ZM478.084 112H480.299L488.072 96.5227V94.5455H476.89V96.4205H485.89V96.5568L478.084 112Z" fill="#3A3A3A"/>
<path d="M551.807 112H562.818V110.125H554.705V109.989L558.625 105.795C561.625 102.582 562.511 101.082 562.511 99.1477C562.511 96.4545 560.33 94.3068 557.261 94.3068C554.202 94.3068 551.875 96.3864 551.875 99.4545H553.886C553.886 97.4688 555.173 96.1477 557.193 96.1477C559.085 96.1477 560.534 97.3068 560.534 99.1477C560.534 100.759 559.588 101.952 557.568 104.159L551.807 110.466V112ZM573.129 112.239C576.615 112.239 579.044 110.202 579.061 107.364C579.044 105.156 577.569 103.281 575.686 102.932V102.83C577.322 102.403 578.396 100.801 578.413 98.9432C578.396 96.2841 576.163 94.3068 573.129 94.3068C570.061 94.3068 567.828 96.2841 567.845 98.9432C567.828 100.801 568.902 102.403 570.572 102.83V102.932C568.655 103.281 567.18 105.156 567.197 107.364C567.18 110.202 569.609 112.239 573.129 112.239ZM573.129 110.364C570.734 110.364 569.26 109.136 569.277 107.261C569.26 105.293 570.887 103.886 573.129 103.886C575.336 103.886 576.964 105.293 576.981 107.261C576.964 109.136 575.49 110.364 573.129 110.364ZM573.129 102.08C571.22 102.08 569.873 100.886 569.89 99.0795C569.873 97.3068 571.169 96.1477 573.129 96.1477C575.055 96.1477 576.351 97.3068 576.368 99.0795C576.351 100.886 575.004 102.08 573.129 102.08Z" fill="#3A3A3A"/>
<path d="M641.807 112H652.818V110.125H644.705V109.989L648.625 105.795C651.625 102.582 652.511 101.082 652.511 99.1477C652.511 96.4545 650.33 94.3068 647.261 94.3068C644.202 94.3068 641.875 96.3864 641.875 99.4545H643.886C643.886 97.4688 645.173 96.1477 647.193 96.1477C649.085 96.1477 650.534 97.3068 650.534 99.1477C650.534 100.759 649.588 101.952 647.568 104.159L641.807 110.466V112ZM663.095 94.3068C659.549 94.2642 657.265 96.9318 657.265 100.136C657.265 103.511 659.754 105.932 662.754 105.932C664.561 105.932 666.095 105.045 667.049 103.614H667.186C667.186 107.909 665.515 110.364 662.822 110.364C660.981 110.364 659.856 109.205 659.481 107.602H657.402C657.811 110.364 659.89 112.239 662.822 112.239C666.743 112.239 669.163 108.761 669.163 102.557C669.163 96.1477 665.959 94.3409 663.095 94.3068ZM663.095 96.1818C665.277 96.1818 666.879 98.0568 666.879 100.102C666.879 102.182 665.174 104.057 663.027 104.057C660.879 104.057 659.311 102.318 659.311 100.136C659.311 97.9545 660.947 96.1818 663.095 96.1818Z" fill="#3A3A3A"/>
<path d="M371.352 182H373.568L381.341 166.523V164.545H370.159V166.42H379.159V166.557L371.352 182ZM384.218 182.136C385.062 182.136 385.752 181.446 385.752 180.602C385.752 179.759 385.062 179.068 384.218 179.068C383.374 179.068 382.684 179.759 382.684 180.602C382.684 181.446 383.374 182.136 384.218 182.136ZM395.63 182.239C398.954 182.239 401.391 179.784 401.391 176.443C401.391 173.06 399.039 170.58 395.835 170.58C394.659 170.58 393.516 170.997 392.801 171.568H392.698L393.312 166.42H400.607V164.545H391.539L390.482 173.136L392.46 173.375C393.184 172.855 394.42 172.48 395.494 172.489C397.718 172.506 399.346 174.193 399.346 176.477C399.346 178.719 397.778 180.364 395.63 180.364C393.84 180.364 392.417 179.213 392.255 177.636H390.21C390.337 180.295 392.63 182.239 395.63 182.239Z" fill="#3A3A3A"/>
<path d="M463.398 182.239C466.884 182.239 469.312 180.202 469.33 177.364C469.312 175.156 467.838 173.281 465.955 172.932V172.83C467.591 172.403 468.665 170.801 468.682 168.943C468.665 166.284 466.432 164.307 463.398 164.307C460.33 164.307 458.097 166.284 458.114 168.943C458.097 170.801 459.17 172.403 460.841 172.83V172.932C458.923 173.281 457.449 175.156 457.466 177.364C457.449 180.202 459.878 182.239 463.398 182.239ZM463.398 180.364C461.003 180.364 459.528 179.136 459.545 177.261C459.528 175.293 461.156 173.886 463.398 173.886C465.605 173.886 467.233 175.293 467.25 177.261C467.233 179.136 465.759 180.364 463.398 180.364ZM463.398 172.08C461.489 172.08 460.142 170.886 460.159 169.08C460.142 167.307 461.438 166.148 463.398 166.148C465.324 166.148 466.619 167.307 466.636 169.08C466.619 170.886 465.273 172.08 463.398 172.08ZM474.757 182.136C475.601 182.136 476.291 181.446 476.291 180.602C476.291 179.759 475.601 179.068 474.757 179.068C473.913 179.068 473.223 179.759 473.223 180.602C473.223 181.446 473.913 182.136 474.757 182.136ZM486.169 182.239C489.493 182.239 491.931 179.784 491.931 176.443C491.931 173.06 489.578 170.58 486.374 170.58C485.198 170.58 484.056 170.997 483.34 171.568H483.237L483.851 166.42H491.146V164.545H482.078L481.021 173.136L482.999 173.375C483.723 172.855 484.959 172.48 486.033 172.489C488.257 172.506 489.885 174.193 489.885 176.477C489.885 178.719 488.317 180.364 486.169 180.364C484.379 180.364 482.956 179.213 482.794 177.636H480.749C480.877 180.295 483.169 182.239 486.169 182.239Z" fill="#3A3A3A"/>
<path d="M563.364 164.307C559.818 164.264 557.534 166.932 557.534 170.136C557.534 173.511 560.023 175.932 563.023 175.932C564.83 175.932 566.364 175.045 567.318 173.614H567.455C567.455 177.909 565.784 180.364 563.091 180.364C561.25 180.364 560.125 179.205 559.75 177.602H557.67C558.08 180.364 560.159 182.239 563.091 182.239C567.011 182.239 569.432 178.761 569.432 172.557C569.432 166.148 566.227 164.341 563.364 164.307ZM563.364 166.182C565.545 166.182 567.148 168.057 567.148 170.102C567.148 172.182 565.443 174.057 563.295 174.057C561.148 174.057 559.58 172.318 559.58 170.136C559.58 167.955 561.216 166.182 563.364 166.182Z" fill="#3A3A3A"/>
<path d="M644.364 164.307C640.818 164.264 638.534 166.932 638.534 170.136C638.534 173.511 641.023 175.932 644.023 175.932C645.83 175.932 647.364 175.045 648.318 173.614H648.455C648.455 177.909 646.784 180.364 644.091 180.364C642.25 180.364 641.125 179.205 640.75 177.602H638.67C639.08 180.364 641.159 182.239 644.091 182.239C648.011 182.239 650.432 178.761 650.432 172.557C650.432 166.148 647.227 164.341 644.364 164.307ZM644.364 166.182C646.545 166.182 648.148 168.057 648.148 170.102C648.148 172.182 646.443 174.057 644.295 174.057C642.148 174.057 640.58 172.318 640.58 170.136C640.58 167.955 642.216 166.182 644.364 166.182ZM655.874 182.136C656.718 182.136 657.408 181.446 657.408 180.602C657.408 179.759 656.718 179.068 655.874 179.068C655.03 179.068 654.34 179.759 654.34 180.602C654.34 181.446 655.03 182.136 655.874 182.136ZM667.286 182.239C670.61 182.239 673.048 179.784 673.048 176.443C673.048 173.06 670.695 170.58 667.491 170.58C666.315 170.58 665.173 170.997 664.457 171.568H664.355L664.968 166.42H672.264V164.545H663.195L662.139 173.136L664.116 173.375C664.84 172.855 666.076 172.48 667.15 172.489C669.374 172.506 671.002 174.193 671.002 176.477C671.002 178.719 669.434 180.364 667.286 180.364C665.497 180.364 664.073 179.213 663.911 177.636H661.866C661.994 180.295 664.286 182.239 667.286 182.239Z" fill="#3A3A3A"/>
</g>
<defs>
<clipPath id="clip0">
<rect width="700" height="210" fill="white"/>
</clipPath>
</defs>
</svg>
