<svg width="700" height="280" viewBox="0 0 700 280" fill="none" xmlns="http://www.w3.org/2000/svg">
<g clip-path="url(#clip0)">
<line x1="0.5" y1="2.18557e-08" x2="0.499988" y2="280" stroke="#DEE2E6"/>
<line x1="340.5" y1="2.18557e-08" x2="340.5" y2="280" stroke="#DEE2E6"/>
<line x1="430.5" y1="2.18557e-08" x2="430.5" y2="280" stroke="#DEE2E6"/>
<line x1="520.5" y1="2.18557e-08" x2="520.5" y2="280" stroke="#DEE2E6"/>
<line x1="610.5" y1="2.18557e-08" x2="610.5" y2="280" stroke="#DEE2E6"/>
<line x1="699.5" y1="2.18557e-08" x2="699.5" y2="280" stroke="#DEE2E6"/>
<line y1="0.5" x2="700" y2="0.5" stroke="#DEE2E6"/>
<line y1="69.5" x2="700" y2="69.5" stroke="#DEE2E6"/>
<line y1="139.5" x2="700" y2="139.5" stroke="#DEE2E6"/>
<line y1="209.5" x2="700" y2="209.5" stroke="#DEE2E6"/>
<line y1="279.5" x2="700" y2="279.5" stroke="#DEE2E6"/>
<path d="M42.6591 28.9091H44.7045C44.6108 26.2756 42.1818 24.3068 38.8068 24.3068C35.4659 24.3068 32.8409 26.25 32.8409 29.1818C32.8409 31.5341 34.5455 32.9318 37.2727 33.7159L39.4205 34.3295C41.2614 34.8409 42.8977 35.4886 42.8977 37.2273C42.8977 39.1364 41.0568 40.3977 38.6364 40.3977C36.5568 40.3977 34.7159 39.4773 34.5455 37.5H32.3636C32.5682 40.3636 34.8864 42.3068 38.6364 42.3068C42.6591 42.3068 44.9432 40.0909 44.9432 37.2614C44.9432 33.9886 41.8409 32.9318 40.0341 32.4545L38.2614 31.9773C36.9659 31.6364 34.8864 30.9545 34.8864 29.0795C34.8864 27.4091 36.4205 26.1818 38.7386 26.1818C40.8523 26.1818 42.4545 27.1875 42.6591 28.9091ZM49.1383 42H51.252V35.625H55.0701C59.1355 35.625 60.9679 33.1534 60.9679 30.0682C60.9679 26.983 59.1355 24.5455 55.0361 24.5455H49.1383V42ZM51.252 33.75V26.4205H54.9679C57.8059 26.4205 58.8883 27.9716 58.8883 30.0682C58.8883 32.1648 57.8059 33.75 55.002 33.75H51.252ZM65.0927 42H75.7632V40.125H67.2063V34.1932H75.0813V32.3182H67.2063V26.4205H75.6268V24.5455H65.0927V42ZM94.2019 30C93.5542 26.4205 90.6905 24.3068 87.1792 24.3068C82.7133 24.3068 79.4746 27.75 79.4746 33.2727C79.4746 38.7955 82.7133 42.2386 87.1792 42.2386C90.6905 42.2386 93.5542 40.125 94.2019 36.5455H92.0883C91.5769 38.9659 89.4974 40.2614 87.1792 40.2614C84.0087 40.2614 81.5201 37.8068 81.5201 33.2727C81.5201 28.7386 84.0087 26.2841 87.1792 26.2841C89.4974 26.2841 91.5769 27.5795 92.0883 30H94.2019Z" fill="#3A3A3A"/>
<path d="M126.497 37.6364C126.497 41.9318 127.656 45.5114 129.735 48.5455H131.508C129.872 46.2955 128.576 41.6932 128.576 37.6364C128.576 33.5795 129.872 28.9773 131.508 26.7273H129.735C127.656 29.7614 126.497 33.3409 126.497 37.6364ZM140.233 45.2727C143.779 45.2727 146.165 42.5795 146.165 38.5227C146.165 34.4318 143.779 31.7386 140.233 31.7386C136.688 31.7386 134.301 34.4318 134.301 38.5227C134.301 42.5795 136.688 45.2727 140.233 45.2727ZM140.233 43.4659C137.54 43.4659 136.313 41.1477 136.313 38.5227C136.313 35.8977 137.54 33.5455 140.233 33.5455C142.926 33.5455 144.154 35.8977 144.154 38.5227C144.154 41.1477 142.926 43.4659 140.233 43.4659ZM151.967 37.125C151.967 34.8409 153.381 33.5455 155.308 33.5455C157.174 33.5455 158.308 34.7642 158.308 36.8182V45H160.319V36.6818C160.319 33.3409 158.538 31.7386 155.887 31.7386C153.91 31.7386 152.683 32.625 152.069 33.9545H151.898V31.9091H149.955V45H151.967V37.125ZM177.503 45.2727C180.4 45.2727 182.309 43.5 182.65 41.1818H180.639C180.264 42.6136 179.071 43.4659 177.503 43.4659C175.116 43.4659 173.582 41.4886 173.582 38.4545C173.582 35.4886 175.15 33.5455 177.503 33.5455C179.275 33.5455 180.332 34.6364 180.639 35.8295H182.65C182.309 33.375 180.23 31.7386 177.468 31.7386C173.923 31.7386 171.571 34.5341 171.571 38.5227C171.571 42.4432 173.821 45.2727 177.503 45.2727ZM186.311 45H188.322V36.8182C188.322 34.9006 189.72 33.5455 191.288 33.5455C192.813 33.5455 193.879 34.5426 193.879 36.0341V45H195.924V36.4773C195.924 34.7898 196.981 33.5455 198.822 33.5455C200.254 33.5455 201.481 34.304 201.481 36.2386V45H203.492V36.2386C203.492 33.1619 201.839 31.7386 199.504 31.7386C197.629 31.7386 196.257 32.5994 195.583 33.9545H195.447C194.799 32.5568 193.657 31.7386 191.936 31.7386C190.231 31.7386 188.97 32.5568 188.424 33.9545H188.254V31.9091H186.311V45ZM212.185 37.6364C212.185 33.3409 211.026 29.7614 208.947 26.7273H207.174C208.81 28.9773 210.106 33.5795 210.106 37.6364C210.106 41.6932 208.81 46.2955 207.174 48.5455H208.947C211.026 45.5114 212.185 41.9318 212.185 37.6364Z" fill="#3A3A3A"/>
<path d="M33.1136 112H43.3409V110.125H35.2273V94.5455H33.1136V112ZM47.0609 112H49.0723V98.9091H47.0609V112ZM48.0836 96.7273C48.8677 96.7273 49.5155 96.1136 49.5155 95.3636C49.5155 94.6136 48.8677 94 48.0836 94C47.2995 94 46.6518 94.6136 46.6518 95.3636C46.6518 96.1136 47.2995 96.7273 48.0836 96.7273ZM55.4876 104.125C55.4876 101.841 56.9024 100.545 58.8285 100.545C60.695 100.545 61.8285 101.764 61.8285 103.818V112H63.8399V103.682C63.8399 100.341 62.0586 98.7386 59.408 98.7386C57.4308 98.7386 56.2035 99.625 55.5899 100.955H55.4194V98.9091H53.4762V112H55.4876V104.125ZM73.5194 117.182C76.6557 117.182 79.1785 115.75 79.1785 112.375V98.9091H77.2353V100.989H77.0307C76.5876 100.307 75.7694 98.7386 73.2126 98.7386C69.9057 98.7386 67.6216 101.364 67.6216 105.386C67.6216 109.477 70.008 111.795 73.1785 111.795C75.7353 111.795 76.5535 110.295 76.9966 109.58H77.1671V112.239C77.1671 114.42 75.633 115.409 73.5194 115.409C71.1415 115.409 70.3063 114.156 69.7694 113.432L68.1671 114.557C68.9853 115.929 70.5961 117.182 73.5194 117.182ZM73.4512 109.989C70.9285 109.989 69.633 108.08 69.633 105.352C69.633 102.693 70.8944 100.545 73.4512 100.545C75.9057 100.545 77.2012 102.523 77.2012 105.352C77.2012 108.25 75.8716 109.989 73.4512 109.989ZM83.5803 112H85.5916V107.099L86.9979 105.795L91.8985 112H94.4553L88.5149 104.5L94.0462 98.9091H91.5576L85.8303 104.739H85.5916V94.5455H83.5803V112ZM101.207 112.307C103.491 112.307 104.685 111.08 105.094 110.227H105.196V112H107.207V103.375C107.207 99.2159 104.037 98.7386 102.366 98.7386C100.389 98.7386 98.1391 99.4205 97.1163 101.807L99.0254 102.489C99.4686 101.534 100.517 100.511 102.435 100.511C104.284 100.511 105.196 101.491 105.196 103.17V103.239C105.196 104.21 104.207 104.125 101.821 104.432C99.3919 104.747 96.7413 105.284 96.7413 108.284C96.7413 110.841 98.7186 112.307 101.207 112.307ZM101.514 110.5C99.9118 110.5 98.7527 109.784 98.7527 108.386C98.7527 106.852 100.15 106.375 101.719 106.17C102.571 106.068 104.855 105.83 105.196 105.42V107.261C105.196 108.898 103.9 110.5 101.514 110.5ZM111.598 112H113.61V103.716C113.61 101.943 115.007 100.648 116.917 100.648C117.454 100.648 118.007 100.75 118.144 100.784V98.7386C117.914 98.7216 117.385 98.7045 117.087 98.7045C115.519 98.7045 114.155 99.5909 113.678 100.886H113.542V98.9091H111.598V112ZM128.991 112H131.104V105.625H134.923C138.988 105.625 140.82 103.153 140.82 100.068C140.82 96.983 138.988 94.5455 134.889 94.5455H128.991V112ZM131.104 103.75V96.4205H134.82C137.658 96.4205 138.741 97.9716 138.741 100.068C138.741 102.165 137.658 103.75 134.854 103.75H131.104ZM144.672 112H146.684V98.9091H144.672V112ZM145.695 96.7273C146.479 96.7273 147.127 96.1136 147.127 95.3636C147.127 94.6136 146.479 94 145.695 94C144.911 94 144.263 94.6136 144.263 95.3636C144.263 96.1136 144.911 96.7273 145.695 96.7273ZM153.099 104.125C153.099 101.841 154.514 100.545 156.44 100.545C158.307 100.545 159.44 101.764 159.44 103.818V112H161.451V103.682C161.451 100.341 159.67 98.7386 157.02 98.7386C155.042 98.7386 153.815 99.625 153.201 100.955H153.031V98.9091H151.088V112H153.099V104.125ZM171.131 117.182C174.267 117.182 176.79 115.75 176.79 112.375V98.9091H174.847V100.989H174.642C174.199 100.307 173.381 98.7386 170.824 98.7386C167.517 98.7386 165.233 101.364 165.233 105.386C165.233 109.477 167.62 111.795 170.79 111.795C173.347 111.795 174.165 110.295 174.608 109.58H174.779V112.239C174.779 114.42 173.245 115.409 171.131 115.409C168.753 115.409 167.918 114.156 167.381 113.432L165.779 114.557C166.597 115.929 168.208 117.182 171.131 117.182ZM171.063 109.989C168.54 109.989 167.245 108.08 167.245 105.352C167.245 102.693 168.506 100.545 171.063 100.545C173.517 100.545 174.813 102.523 174.813 105.352C174.813 108.25 173.483 109.989 171.063 109.989ZM186.476 117.182C189.612 117.182 192.135 115.75 192.135 112.375V98.9091H190.192V100.989H189.987C189.544 100.307 188.726 98.7386 186.169 98.7386C182.862 98.7386 180.578 101.364 180.578 105.386C180.578 109.477 182.965 111.795 186.135 111.795C188.692 111.795 189.51 110.295 189.953 109.58H190.124V112.239C190.124 114.42 188.59 115.409 186.476 115.409C184.098 115.409 183.263 114.156 182.726 113.432L181.124 114.557C181.942 115.929 183.553 117.182 186.476 117.182ZM186.408 109.989C183.885 109.989 182.59 108.08 182.59 105.352C182.59 102.693 183.851 100.545 186.408 100.545C188.862 100.545 190.158 102.523 190.158 105.352C190.158 108.25 188.828 109.989 186.408 109.989ZM200.389 112.307C202.673 112.307 203.866 111.08 204.275 110.227H204.378V112H206.389V103.375C206.389 99.2159 203.219 98.7386 201.548 98.7386C199.571 98.7386 197.321 99.4205 196.298 101.807L198.207 102.489C198.65 101.534 199.699 100.511 201.616 100.511C203.466 100.511 204.378 101.491 204.378 103.17V103.239C204.378 104.21 203.389 104.125 201.003 104.432C198.574 104.747 195.923 105.284 195.923 108.284C195.923 110.841 197.9 112.307 200.389 112.307ZM200.696 110.5C199.094 110.5 197.935 109.784 197.935 108.386C197.935 106.852 199.332 106.375 200.9 106.17C201.753 106.068 204.037 105.83 204.378 105.42V107.261C204.378 108.898 203.082 110.5 200.696 110.5ZM212.792 104.125C212.792 101.841 214.206 100.545 216.133 100.545C217.999 100.545 219.133 101.764 219.133 103.818V112H221.144V103.682C221.144 100.341 219.363 98.7386 216.712 98.7386C214.735 98.7386 213.508 99.625 212.894 100.955H212.723V98.9091H210.78V112H212.792V104.125ZM230.823 117.182C233.96 117.182 236.483 115.75 236.483 112.375V98.9091H234.539V100.989H234.335C233.892 100.307 233.073 98.7386 230.517 98.7386C227.21 98.7386 224.926 101.364 224.926 105.386C224.926 109.477 227.312 111.795 230.483 111.795C233.039 111.795 233.858 110.295 234.301 109.58H234.471V112.239C234.471 114.42 232.937 115.409 230.823 115.409C228.446 115.409 227.61 114.156 227.073 113.432L225.471 114.557C226.289 115.929 227.9 117.182 230.823 117.182ZM230.755 109.989C228.233 109.989 226.937 108.08 226.937 105.352C226.937 102.693 228.198 100.545 230.755 100.545C233.21 100.545 234.505 102.523 234.505 105.352C234.505 108.25 233.176 109.989 230.755 109.989Z" fill="#3A3A3A"/>
<path d="M33.1136 182H43.3409V180.125H35.2273V164.545H33.1136V182ZM47.0609 182H49.0723V168.909H47.0609V182ZM48.0836 166.727C48.8677 166.727 49.5155 166.114 49.5155 165.364C49.5155 164.614 48.8677 164 48.0836 164C47.2995 164 46.6518 164.614 46.6518 165.364C46.6518 166.114 47.2995 166.727 48.0836 166.727ZM55.4876 174.125C55.4876 171.841 56.9024 170.545 58.8285 170.545C60.695 170.545 61.8285 171.764 61.8285 173.818V182H63.8399V173.682C63.8399 170.341 62.0586 168.739 59.408 168.739C57.4308 168.739 56.2035 169.625 55.5899 170.955H55.4194V168.909H53.4762V182H55.4876V174.125ZM73.5194 187.182C76.6557 187.182 79.1785 185.75 79.1785 182.375V168.909H77.2353V170.989H77.0307C76.5876 170.307 75.7694 168.739 73.2126 168.739C69.9057 168.739 67.6216 171.364 67.6216 175.386C67.6216 179.477 70.008 181.795 73.1785 181.795C75.7353 181.795 76.5535 180.295 76.9966 179.58H77.1671V182.239C77.1671 184.42 75.633 185.409 73.5194 185.409C71.1415 185.409 70.3063 184.156 69.7694 183.432L68.1671 184.557C68.9853 185.929 70.5961 187.182 73.5194 187.182ZM73.4512 179.989C70.9285 179.989 69.633 178.08 69.633 175.352C69.633 172.693 70.8944 170.545 73.4512 170.545C75.9057 170.545 77.2012 172.523 77.2012 175.352C77.2012 178.25 75.8716 179.989 73.4512 179.989ZM83.5803 182H85.5916V177.099L86.9979 175.795L91.8985 182H94.4553L88.5149 174.5L94.0462 168.909H91.5576L85.8303 174.739H85.5916V164.545H83.5803V182ZM101.207 182.307C103.491 182.307 104.685 181.08 105.094 180.227H105.196V182H107.207V173.375C107.207 169.216 104.037 168.739 102.366 168.739C100.389 168.739 98.1391 169.42 97.1163 171.807L99.0254 172.489C99.4686 171.534 100.517 170.511 102.435 170.511C104.284 170.511 105.196 171.491 105.196 173.17V173.239C105.196 174.21 104.207 174.125 101.821 174.432C99.3919 174.747 96.7413 175.284 96.7413 178.284C96.7413 180.841 98.7186 182.307 101.207 182.307ZM101.514 180.5C99.9118 180.5 98.7527 179.784 98.7527 178.386C98.7527 176.852 100.15 176.375 101.719 176.17C102.571 176.068 104.855 175.83 105.196 175.42V177.261C105.196 178.898 103.9 180.5 101.514 180.5ZM111.598 182H113.61V173.716C113.61 171.943 115.007 170.648 116.917 170.648C117.454 170.648 118.007 170.75 118.144 170.784V168.739C117.914 168.722 117.385 168.705 117.087 168.705C115.519 168.705 114.155 169.591 113.678 170.886H113.542V168.909H111.598V182ZM128.991 182H131.104V175.625H134.923C138.988 175.625 140.82 173.153 140.82 170.068C140.82 166.983 138.988 164.545 134.889 164.545H128.991V182ZM131.104 173.75V166.42H134.82C137.658 166.42 138.741 167.972 138.741 170.068C138.741 172.165 137.658 173.75 134.854 173.75H131.104ZM148.525 182.307C150.809 182.307 152.002 181.08 152.411 180.227H152.513V182H154.525V173.375C154.525 169.216 151.354 168.739 149.684 168.739C147.707 168.739 145.457 169.42 144.434 171.807L146.343 172.489C146.786 171.534 147.834 170.511 149.752 170.511C151.601 170.511 152.513 171.491 152.513 173.17V173.239C152.513 174.21 151.525 174.125 149.138 174.432C146.709 174.747 144.059 175.284 144.059 178.284C144.059 180.841 146.036 182.307 148.525 182.307ZM148.832 180.5C147.229 180.5 146.07 179.784 146.07 178.386C146.07 176.852 147.468 176.375 149.036 176.17C149.888 176.068 152.172 175.83 152.513 175.42V177.261C152.513 178.898 151.218 180.5 148.832 180.5ZM160.927 174.125C160.927 171.841 162.385 170.545 164.37 170.545C166.262 170.545 167.405 171.739 167.405 173.818V182H169.416V173.682C169.416 170.315 167.626 168.739 164.95 168.739C162.887 168.739 161.711 169.599 161.098 170.955H160.927V164.545H158.916V182H160.927V174.125ZM177.668 182.307C179.952 182.307 181.145 181.08 181.554 180.227H181.657V182H183.668V173.375C183.668 169.216 180.497 168.739 178.827 168.739C176.85 168.739 174.6 169.42 173.577 171.807L175.486 172.489C175.929 171.534 176.978 170.511 178.895 170.511C180.745 170.511 181.657 171.491 181.657 173.17V173.239C181.657 174.21 180.668 174.125 178.282 174.432C175.853 174.747 173.202 175.284 173.202 178.284C173.202 180.841 175.179 182.307 177.668 182.307ZM177.975 180.5C176.372 180.5 175.213 179.784 175.213 178.386C175.213 176.852 176.611 176.375 178.179 176.17C179.032 176.068 181.316 175.83 181.657 175.42V177.261C181.657 178.898 180.361 180.5 177.975 180.5Z" fill="#3A3A3A"/>
<path d="M33.1136 252H35.2273V245.625H39.0455C43.1108 245.625 44.9432 243.153 44.9432 240.068C44.9432 236.983 43.1108 234.545 39.0114 234.545H33.1136V252ZM35.2273 243.75V236.42H38.9432C41.7812 236.42 42.8636 237.972 42.8636 240.068C42.8636 242.165 41.7812 243.75 38.9773 243.75H35.2273ZM52.6476 252.307C54.9316 252.307 56.1248 251.08 56.5339 250.227H56.6362V252H58.6476V243.375C58.6476 239.216 55.4771 238.739 53.8066 238.739C51.8294 238.739 49.5794 239.42 48.5566 241.807L50.4657 242.489C50.9089 241.534 51.9572 240.511 53.8748 240.511C55.7243 240.511 56.6362 241.491 56.6362 243.17V243.239C56.6362 244.21 55.6476 244.125 53.2612 244.432C50.8322 244.747 48.1816 245.284 48.1816 248.284C48.1816 250.841 50.1589 252.307 52.6476 252.307ZM52.9544 250.5C51.3521 250.5 50.193 249.784 50.193 248.386C50.193 246.852 51.5907 246.375 53.1589 246.17C54.0112 246.068 56.2953 245.83 56.6362 245.42V247.261C56.6362 248.898 55.3407 250.5 52.9544 250.5ZM65.0501 244.125C65.0501 241.841 66.4649 240.545 68.391 240.545C70.2575 240.545 71.391 241.764 71.391 243.818V252H73.4024V243.682C73.4024 240.341 71.6211 238.739 68.9705 238.739C66.9933 238.739 65.766 239.625 65.1524 240.955H64.9819V238.909H63.0387V252H65.0501V244.125ZM77.7978 238.909V252.955C77.7978 254.284 77.2523 255.034 76.0251 255.034H75.6501V256.909H76.0591C78.5819 256.909 79.8091 255.375 79.8091 252.955V238.909H77.7978ZM78.7864 236.727C79.5705 236.727 80.2182 236.114 80.2182 235.364C80.2182 234.614 79.5705 234 78.7864 234C78.0023 234 77.3546 234.614 77.3546 235.364C77.3546 236.114 78.0023 236.727 78.7864 236.727ZM88.0654 252.307C90.3495 252.307 91.5426 251.08 91.9517 250.227H92.054V252H94.0654V243.375C94.0654 239.216 90.8949 238.739 89.2245 238.739C87.2472 238.739 84.9972 239.42 83.9745 241.807L85.8836 242.489C86.3267 241.534 87.375 240.511 89.2926 240.511C91.1421 240.511 92.054 241.491 92.054 243.17V243.239C92.054 244.21 91.0654 244.125 88.679 244.432C86.25 244.747 83.5995 245.284 83.5995 248.284C83.5995 250.841 85.5767 252.307 88.0654 252.307ZM88.3722 250.5C86.7699 250.5 85.6108 249.784 85.6108 248.386C85.6108 246.852 87.0086 246.375 88.5767 246.17C89.429 246.068 91.7131 245.83 92.054 245.42V247.261C92.054 248.898 90.7586 250.5 88.3722 250.5ZM100.468 244.125C100.468 241.841 101.883 240.545 103.809 240.545C105.675 240.545 106.809 241.764 106.809 243.818V252H108.82V243.682C108.82 240.341 107.039 238.739 104.388 238.739C102.411 238.739 101.184 239.625 100.57 240.955H100.4V238.909H98.4565V252H100.468V244.125ZM118.5 257.182C121.636 257.182 124.159 255.75 124.159 252.375V238.909H122.216V240.989H122.011C121.568 240.307 120.75 238.739 118.193 238.739C114.886 238.739 112.602 241.364 112.602 245.386C112.602 249.477 114.988 251.795 118.159 251.795C120.716 251.795 121.534 250.295 121.977 249.58H122.147V252.239C122.147 254.42 120.613 255.409 118.5 255.409C116.122 255.409 115.287 254.156 114.75 253.432L113.147 254.557C113.966 255.929 115.576 257.182 118.5 257.182ZM118.432 249.989C115.909 249.989 114.613 248.08 114.613 245.352C114.613 242.693 115.875 240.545 118.432 240.545C120.886 240.545 122.182 242.523 122.182 245.352C122.182 248.25 120.852 249.989 118.432 249.989ZM150.349 240C149.701 236.42 146.837 234.307 143.326 234.307C138.86 234.307 135.622 237.75 135.622 243.273C135.622 248.795 138.86 252.239 143.326 252.239C146.837 252.239 149.701 250.125 150.349 246.545H148.235C147.724 248.966 145.644 250.261 143.326 250.261C140.156 250.261 137.667 247.807 137.667 243.273C137.667 238.739 140.156 236.284 143.326 236.284C145.644 236.284 147.724 237.58 148.235 240H150.349ZM159.7 252.273C162.359 252.273 164.302 250.943 164.916 248.966L162.973 248.42C162.462 249.784 161.277 250.466 159.7 250.466C157.339 250.466 155.712 248.94 155.618 246.136H165.121V245.284C165.121 240.409 162.223 238.739 159.496 238.739C155.95 238.739 153.598 241.534 153.598 245.557C153.598 249.58 155.916 252.273 159.7 252.273ZM155.618 244.398C155.754 242.361 157.194 240.545 159.496 240.545C161.677 240.545 163.075 242.182 163.075 244.398H155.618ZM170.912 234.545H168.9V252H170.912V234.545ZM179.168 252.307C181.452 252.307 182.645 251.08 183.054 250.227H183.157V252H185.168V243.375C185.168 239.216 181.997 238.739 180.327 238.739C178.35 238.739 176.1 239.42 175.077 241.807L176.986 242.489C177.429 241.534 178.478 240.511 180.395 240.511C182.245 240.511 183.157 241.491 183.157 243.17V243.239C183.157 244.21 182.168 244.125 179.782 244.432C177.353 244.747 174.702 245.284 174.702 248.284C174.702 250.841 176.679 252.307 179.168 252.307ZM179.475 250.5C177.872 250.5 176.713 249.784 176.713 248.386C176.713 246.852 178.111 246.375 179.679 246.17C180.532 246.068 182.816 245.83 183.157 245.42V247.261C183.157 248.898 181.861 250.5 179.475 250.5ZM191.57 244.125C191.57 241.841 192.985 240.545 194.911 240.545C196.778 240.545 197.911 241.764 197.911 243.818V252H199.923V243.682C199.923 240.341 198.141 238.739 195.491 238.739C193.514 238.739 192.286 239.625 191.673 240.955H191.502V238.909H189.559V252H191.57V244.125ZM208.17 252.307C210.454 252.307 211.648 251.08 212.057 250.227H212.159V252H214.17V243.375C214.17 239.216 211 238.739 209.329 238.739C207.352 238.739 205.102 239.42 204.079 241.807L205.989 242.489C206.432 241.534 207.48 240.511 209.398 240.511C211.247 240.511 212.159 241.491 212.159 243.17V243.239C212.159 244.21 211.17 244.125 208.784 244.432C206.355 244.747 203.704 245.284 203.704 248.284C203.704 250.841 205.682 252.307 208.17 252.307ZM208.477 250.5C206.875 250.5 205.716 249.784 205.716 248.386C205.716 246.852 207.114 246.375 208.682 246.17C209.534 246.068 211.818 245.83 212.159 245.42V247.261C212.159 248.898 210.864 250.5 208.477 250.5Z" fill="#3A3A3A"/>
<path d="M371.415 42H383.858V38.983H376.528V38.8636L379.077 36.3665C382.665 33.0938 383.628 31.4574 383.628 29.4716C383.628 26.446 381.156 24.3068 377.415 24.3068C373.75 24.3068 371.236 26.4972 371.244 29.9233H374.747C374.739 28.2528 375.795 27.2301 377.389 27.2301C378.923 27.2301 380.065 28.1847 380.065 29.7188C380.065 31.108 379.213 32.0625 377.628 33.5881L371.415 39.3409V42ZM394.243 42.2386C398.181 42.2386 401.01 40.1335 401.019 37.304C401.01 35.1222 399.331 33.3409 397.235 32.9915V32.8722C399.059 32.4972 400.363 30.9205 400.371 29.0028C400.363 26.3011 397.772 24.3068 394.243 24.3068C390.706 24.3068 388.115 26.3011 388.124 29.0028C388.115 30.9119 389.402 32.4972 391.26 32.8722V32.9915C389.13 33.3409 387.468 35.1222 387.476 37.304C387.468 40.1335 390.306 42.2386 394.243 42.2386ZM394.243 39.5284C392.488 39.5284 391.312 38.4886 391.312 37.0142C391.312 35.5057 392.547 34.4148 394.243 34.4148C395.931 34.4148 397.175 35.5057 397.175 37.0142C397.175 38.4972 395.99 39.5284 394.243 39.5284ZM394.243 31.7301C392.769 31.7301 391.721 30.767 391.721 29.3864C391.721 28.0227 392.752 27.0852 394.243 27.0852C395.726 27.0852 396.766 28.0312 396.766 29.3864C396.766 30.767 395.709 31.7301 394.243 31.7301Z" fill="#3A3A3A"/>
<path d="M467.866 42.2386C471.787 42.2386 474.591 40.0824 474.582 37.0994C474.591 34.9261 473.21 33.375 470.645 33.0511V32.9148C472.597 32.5653 473.943 31.1847 473.935 29.2244C473.943 26.4716 471.531 24.3068 467.918 24.3068C464.338 24.3068 461.645 26.4034 461.594 29.4205H465.131C465.173 28.0909 466.392 27.2301 467.901 27.2301C469.392 27.2301 470.389 28.1335 470.381 29.446C470.389 30.8182 469.222 31.7472 467.543 31.7472H465.915V34.4574H467.543C469.52 34.4574 470.756 35.446 470.747 36.8523C470.756 38.2415 469.562 39.196 467.875 39.196C466.247 39.196 465.028 38.3438 464.96 37.0653H461.244C461.304 40.1165 464.031 42.2386 467.866 42.2386ZM485.279 42.3835C489.668 42.3835 492.319 39.0426 492.327 33.2898C492.336 27.5795 489.651 24.3068 485.279 24.3068C480.898 24.3068 478.239 27.571 478.231 33.2898C478.213 39.0256 480.881 42.375 485.279 42.3835ZM485.279 39.3239C483.276 39.3239 481.981 37.3125 481.989 33.2898C481.998 29.3267 483.285 27.3324 485.279 27.3324C487.265 27.3324 488.56 29.3267 488.56 33.2898C488.569 37.3125 487.273 39.3239 485.279 39.3239Z" fill="#3A3A3A"/>
<path d="M558.866 42.2386C562.787 42.2386 565.591 40.0824 565.582 37.0994C565.591 34.9261 564.21 33.375 561.645 33.0511V32.9148C563.597 32.5653 564.943 31.1847 564.935 29.2244C564.943 26.4716 562.531 24.3068 558.918 24.3068C555.338 24.3068 552.645 26.4034 552.594 29.4205H556.131C556.173 28.0909 557.392 27.2301 558.901 27.2301C560.392 27.2301 561.389 28.1335 561.381 29.446C561.389 30.8182 560.222 31.7472 558.543 31.7472H556.915V34.4574H558.543C560.52 34.4574 561.756 35.446 561.747 36.8523C561.756 38.2415 560.562 39.196 558.875 39.196C557.247 39.196 556.028 38.3438 555.96 37.0653H552.244C552.304 40.1165 555.031 42.2386 558.866 42.2386ZM569.435 42H581.878V38.983H574.549V38.8636L577.097 36.3665C580.685 33.0938 581.648 31.4574 581.648 29.4716C581.648 26.446 579.177 24.3068 575.435 24.3068C571.77 24.3068 569.256 26.4972 569.265 29.9233H572.767C572.759 28.2528 573.816 27.2301 575.41 27.2301C576.944 27.2301 578.086 28.1847 578.086 29.7188C578.086 31.108 577.233 32.0625 575.648 33.5881L569.435 39.3409V42Z" fill="#3A3A3A"/>
<path d="M646.866 42.2386C650.787 42.2386 653.591 40.0824 653.582 37.0994C653.591 34.9261 652.21 33.375 649.645 33.0511V32.9148C651.597 32.5653 652.943 31.1847 652.935 29.2244C652.943 26.4716 650.531 24.3068 646.918 24.3068C643.338 24.3068 640.645 26.4034 640.594 29.4205H644.131C644.173 28.0909 645.392 27.2301 646.901 27.2301C648.392 27.2301 649.389 28.1335 649.381 29.446C649.389 30.8182 648.222 31.7472 646.543 31.7472H644.915V34.4574H646.543C648.52 34.4574 649.756 35.446 649.747 36.8523C649.756 38.2415 648.562 39.196 646.875 39.196C645.247 39.196 644.028 38.3438 643.96 37.0653H640.244C640.304 40.1165 643.031 42.2386 646.866 42.2386ZM657.171 38.9318H665.549V42H669.077V38.9318H671.242V35.9744H669.077V24.5455H664.458L657.171 36.0256V38.9318ZM665.617 35.9744H660.887V35.8381L665.481 28.5682H665.617V35.9744Z" fill="#3A3A3A"/>
<path d="M372.352 112H374.568L382.341 96.5227V94.5455H371.159V96.4205H380.159V96.5568L372.352 112ZM384.902 108.42H393.118V112H395.13V108.42H397.516V106.545H395.13V94.5455H392.573L384.902 106.682V108.42ZM393.118 106.545H387.187V106.409L392.982 97.2386H393.118V106.545Z" fill="#3A3A3A"/>
<path d="M462.352 112H464.568L472.341 96.5227V94.5455H461.159V96.4205H470.159V96.5568L462.352 112ZM481.957 112.239C485.443 112.239 487.872 110.202 487.889 107.364C487.872 105.156 486.397 103.281 484.514 102.932V102.83C486.15 102.403 487.224 100.801 487.241 98.9432C487.224 96.2841 484.991 94.3068 481.957 94.3068C478.889 94.3068 476.656 96.2841 476.673 98.9432C476.656 100.801 477.73 102.403 479.4 102.83V102.932C477.483 103.281 476.008 105.156 476.025 107.364C476.008 110.202 478.437 112.239 481.957 112.239ZM481.957 110.364C479.562 110.364 478.088 109.136 478.105 107.261C478.088 105.293 479.716 103.886 481.957 103.886C484.164 103.886 485.792 105.293 485.809 107.261C485.792 109.136 484.318 110.364 481.957 110.364ZM481.957 102.08C480.048 102.08 478.701 100.886 478.718 99.0795C478.701 97.3068 479.997 96.1477 481.957 96.1477C483.883 96.1477 485.179 97.3068 485.196 99.0795C485.179 100.886 483.832 102.08 481.957 102.08Z" fill="#3A3A3A"/>
<path d="M557.398 112.239C560.884 112.239 563.312 110.202 563.33 107.364C563.312 105.156 561.838 103.281 559.955 102.932V102.83C561.591 102.403 562.665 100.801 562.682 98.9432C562.665 96.2841 560.432 94.3068 557.398 94.3068C554.33 94.3068 552.097 96.2841 552.114 98.9432C552.097 100.801 553.17 102.403 554.841 102.83V102.932C552.923 103.281 551.449 105.156 551.466 107.364C551.449 110.202 553.878 112.239 557.398 112.239ZM557.398 110.364C555.003 110.364 553.528 109.136 553.545 107.261C553.528 105.293 555.156 103.886 557.398 103.886C559.605 103.886 561.233 105.293 561.25 107.261C561.233 109.136 559.759 110.364 557.398 110.364ZM557.398 102.08C555.489 102.08 554.142 100.886 554.159 99.0795C554.142 97.3068 555.438 96.1477 557.398 96.1477C559.324 96.1477 560.619 97.3068 560.636 99.0795C560.619 100.886 559.273 102.08 557.398 102.08ZM567.796 112H578.807V110.125H570.694V109.989L574.614 105.795C577.614 102.582 578.5 101.082 578.5 99.1477C578.5 96.4545 576.319 94.3068 573.25 94.3068C570.191 94.3068 567.864 96.3864 567.864 99.4545H569.875C569.875 97.4688 571.162 96.1477 573.182 96.1477C575.074 96.1477 576.523 97.3068 576.523 99.1477C576.523 100.759 575.577 101.952 573.557 104.159L567.796 110.466V112Z" fill="#3A3A3A"/>
<path d="M647.398 112.239C650.884 112.239 653.312 110.202 653.33 107.364C653.312 105.156 651.838 103.281 649.955 102.932V102.83C651.591 102.403 652.665 100.801 652.682 98.9432C652.665 96.2841 650.432 94.3068 647.398 94.3068C644.33 94.3068 642.097 96.2841 642.114 98.9432C642.097 100.801 643.17 102.403 644.841 102.83V102.932C642.923 103.281 641.449 105.156 641.466 107.364C641.449 110.202 643.878 112.239 647.398 112.239ZM647.398 110.364C645.003 110.364 643.528 109.136 643.545 107.261C643.528 105.293 645.156 103.886 647.398 103.886C649.605 103.886 651.233 105.293 651.25 107.261C651.233 109.136 649.759 110.364 647.398 110.364ZM647.398 102.08C645.489 102.08 644.142 100.886 644.159 99.0795C644.142 97.3068 645.438 96.1477 647.398 96.1477C649.324 96.1477 650.619 97.3068 650.636 99.0795C650.619 100.886 649.273 102.08 647.398 102.08ZM663.591 112.239C667.12 112.281 669.421 109.622 669.421 106.375C669.421 103 666.924 100.58 663.932 100.58C662.134 100.58 660.591 101.457 659.637 102.898H659.5C659.509 98.6449 661.162 96.1818 663.864 96.1818C665.705 96.1818 666.813 97.3409 667.205 98.9091H669.285C668.858 96.1989 666.796 94.3068 663.864 94.3068C659.935 94.3068 657.523 97.7841 657.523 103.955C657.523 110.406 660.728 112.205 663.591 112.239ZM663.591 110.364C661.401 110.364 659.799 108.497 659.807 106.409C659.816 104.321 661.495 102.455 663.66 102.455C665.799 102.455 667.375 104.21 667.375 106.375C667.375 108.591 665.731 110.364 663.591 110.364Z" fill="#3A3A3A"/>
<path d="M371.398 178.42H379.614V182H381.625V178.42H384.011V176.545H381.625V164.545H379.068L371.398 176.682V178.42ZM379.614 176.545H373.682V176.409L379.477 167.239H379.614V176.545ZM394.201 182.239C397.729 182.281 400.03 179.622 400.03 176.375C400.03 173 397.533 170.58 394.542 170.58C392.743 170.58 391.201 171.457 390.246 172.898H390.11C390.118 168.645 391.772 166.182 394.473 166.182C396.314 166.182 397.422 167.341 397.814 168.909H399.894C399.468 166.199 397.405 164.307 394.473 164.307C390.544 164.307 388.133 167.784 388.133 173.955C388.133 180.406 391.337 182.205 394.201 182.239ZM394.201 180.364C392.01 180.364 390.408 178.497 390.417 176.409C390.425 174.321 392.104 172.455 394.269 172.455C396.408 172.455 397.985 174.21 397.985 176.375C397.985 178.591 396.34 180.364 394.201 180.364Z" fill="#3A3A3A"/>
<path d="M461.398 178.42H469.614V182H471.625V178.42H474.011V176.545H471.625V164.545H469.068L461.398 176.682V178.42ZM469.614 176.545H463.682V176.409L469.477 167.239H469.614V176.545ZM483.996 182.239C487.482 182.239 489.911 180.202 489.928 177.364C489.911 175.156 488.437 173.281 486.553 172.932V172.83C488.189 172.403 489.263 170.801 489.28 168.943C489.263 166.284 487.03 164.307 483.996 164.307C480.928 164.307 478.695 166.284 478.712 168.943C478.695 170.801 479.769 172.403 481.439 172.83V172.932C479.522 173.281 478.047 175.156 478.064 177.364C478.047 180.202 480.476 182.239 483.996 182.239ZM483.996 180.364C481.601 180.364 480.127 179.136 480.144 177.261C480.127 175.293 481.755 173.886 483.996 173.886C486.204 173.886 487.831 175.293 487.848 177.261C487.831 179.136 486.357 180.364 483.996 180.364ZM483.996 172.08C482.087 172.08 480.74 170.886 480.758 169.08C480.74 167.307 482.036 166.148 483.996 166.148C485.922 166.148 487.218 167.307 487.235 169.08C487.218 170.886 485.871 172.08 483.996 172.08Z" fill="#3A3A3A"/>
<path d="M557.261 182.239C560.585 182.239 563.023 179.784 563.023 176.443C563.023 173.06 560.67 170.58 557.466 170.58C556.29 170.58 555.148 170.997 554.432 171.568H554.33L554.943 166.42H562.239V164.545H553.17L552.114 173.136L554.091 173.375C554.815 172.855 556.051 172.48 557.125 172.489C559.349 172.506 560.977 174.193 560.977 176.477C560.977 178.719 559.409 180.364 557.261 180.364C555.472 180.364 554.048 179.213 553.886 177.636H551.841C551.969 180.295 554.261 182.239 557.261 182.239ZM573.302 182.239C577.154 182.239 579.37 178.974 579.37 173.273C579.37 167.614 577.12 164.307 573.302 164.307C569.483 164.307 567.233 167.614 567.233 173.273C567.233 178.974 569.449 182.239 573.302 182.239ZM573.302 180.364C570.762 180.364 569.279 177.815 569.279 173.273C569.279 168.739 570.779 166.148 573.302 166.148C575.824 166.148 577.324 168.739 577.324 173.273C577.324 177.815 575.841 180.364 573.302 180.364Z" fill="#3A3A3A"/>
<path d="M647.261 182.239C650.585 182.239 653.023 179.784 653.023 176.443C653.023 173.06 650.67 170.58 647.466 170.58C646.29 170.58 645.148 170.997 644.432 171.568H644.33L644.943 166.42H652.239V164.545H643.17L642.114 173.136L644.091 173.375C644.815 172.855 646.051 172.48 647.125 172.489C649.349 172.506 650.977 174.193 650.977 176.477C650.977 178.719 649.409 180.364 647.261 180.364C645.472 180.364 644.048 179.213 643.886 177.636H641.841C641.969 180.295 644.261 182.239 647.261 182.239ZM657.608 182H668.62V180.125H660.506V179.989L664.427 175.795C667.427 172.582 668.313 171.082 668.313 169.148C668.313 166.455 666.131 164.307 663.063 164.307C660.003 164.307 657.677 166.386 657.677 169.455H659.688C659.688 167.469 660.975 166.148 662.995 166.148C664.887 166.148 666.336 167.307 666.336 169.148C666.336 170.759 665.39 171.952 663.37 174.159L657.608 180.466V182Z" fill="#3A3A3A"/>
<path d="M371.398 248.42H379.614V252H381.625V248.42H384.011V246.545H381.625V234.545H379.068L371.398 246.682V248.42ZM379.614 246.545H373.682V246.409L379.477 237.239H379.614V246.545ZM387.996 248.42H396.212V252H398.223V248.42H400.61V246.545H398.223V234.545H395.667L387.996 246.682V248.42ZM396.212 246.545H390.28V246.409L396.076 237.239H396.212V246.545Z" fill="#3A3A3A"/>
<path d="M461.398 248.42H469.614V252H471.625V248.42H474.011V246.545H471.625V234.545H469.068L461.398 246.682V248.42ZM469.614 246.545H463.682V246.409L469.477 237.239H469.614V246.545ZM484.201 252.239C487.729 252.281 490.03 249.622 490.03 246.375C490.03 243 487.533 240.58 484.542 240.58C482.743 240.58 481.201 241.457 480.246 242.898H480.11C480.118 238.645 481.772 236.182 484.473 236.182C486.314 236.182 487.422 237.341 487.814 238.909H489.894C489.468 236.199 487.405 234.307 484.473 234.307C480.544 234.307 478.133 237.784 478.133 243.955C478.133 250.406 481.337 252.205 484.201 252.239ZM484.201 250.364C482.01 250.364 480.408 248.497 480.417 246.409C480.425 244.321 482.104 242.455 484.269 242.455C486.408 242.455 487.985 244.21 487.985 246.375C487.985 248.591 486.34 250.364 484.201 250.364Z" fill="#3A3A3A"/>
<path d="M551.398 248.42H559.614V252H561.625V248.42H564.011V246.545H561.625V234.545H559.068L551.398 246.682V248.42ZM559.614 246.545H553.682V246.409L559.477 237.239H559.614V246.545ZM573.996 252.239C577.482 252.239 579.911 250.202 579.928 247.364C579.911 245.156 578.437 243.281 576.553 242.932V242.83C578.189 242.403 579.263 240.801 579.28 238.943C579.263 236.284 577.03 234.307 573.996 234.307C570.928 234.307 568.695 236.284 568.712 238.943C568.695 240.801 569.769 242.403 571.439 242.83V242.932C569.522 243.281 568.047 245.156 568.064 247.364C568.047 250.202 570.476 252.239 573.996 252.239ZM573.996 250.364C571.601 250.364 570.127 249.136 570.144 247.261C570.127 245.293 571.755 243.886 573.996 243.886C576.204 243.886 577.831 245.293 577.848 247.261C577.831 249.136 576.357 250.364 573.996 250.364ZM573.996 242.08C572.087 242.08 570.74 240.886 570.758 239.08C570.74 237.307 572.036 236.148 573.996 236.148C575.922 236.148 577.218 237.307 577.235 239.08C577.218 240.886 575.871 242.08 573.996 242.08Z" fill="#3A3A3A"/>
<path d="M647.261 252.239C650.585 252.239 653.023 249.784 653.023 246.443C653.023 243.06 650.67 240.58 647.466 240.58C646.29 240.58 645.148 240.997 644.432 241.568H644.33L644.943 236.42H652.239V234.545H643.17L642.114 243.136L644.091 243.375C644.815 242.855 646.051 242.48 647.125 242.489C649.349 242.506 650.977 244.193 650.977 246.477C650.977 248.719 649.409 250.364 647.261 250.364C645.472 250.364 644.048 249.213 643.886 247.636H641.841C641.969 250.295 644.261 252.239 647.261 252.239ZM663.302 252.239C667.154 252.239 669.37 248.974 669.37 243.273C669.37 237.614 667.12 234.307 663.302 234.307C659.483 234.307 657.233 237.614 657.233 243.273C657.233 248.974 659.449 252.239 663.302 252.239ZM663.302 250.364C660.762 250.364 659.279 247.815 659.279 243.273C659.279 238.739 660.779 236.148 663.302 236.148C665.824 236.148 667.324 238.739 667.324 243.273C667.324 247.815 665.841 250.364 663.302 250.364Z" fill="#3A3A3A"/>
</g>
<defs>
<clipPath id="clip0">
<rect width="700" height="280" fill="white"/>
</clipPath>
</defs>
</svg>
