<svg width="700" height="280" viewBox="0 0 700 280" fill="none" xmlns="http://www.w3.org/2000/svg">
<g clip-path="url(#clip0)">
<line x1="0.5" y1="2.18557e-08" x2="0.499988" y2="280" stroke="#DEE2E6"/>
<line x1="340.5" y1="2.18557e-08" x2="340.5" y2="280" stroke="#DEE2E6"/>
<line x1="430.5" y1="2.18557e-08" x2="430.5" y2="280" stroke="#DEE2E6"/>
<line x1="520.5" y1="2.18557e-08" x2="520.5" y2="280" stroke="#DEE2E6"/>
<line x1="610.5" y1="2.18557e-08" x2="610.5" y2="280" stroke="#DEE2E6"/>
<line x1="699.5" y1="2.18557e-08" x2="699.5" y2="280" stroke="#DEE2E6"/>
<line y1="0.5" x2="700" y2="0.5" stroke="#DEE2E6"/>
<line y1="69.5" x2="700" y2="69.5" stroke="#DEE2E6"/>
<line y1="139.5" x2="700" y2="139.5" stroke="#DEE2E6"/>
<line y1="209.5" x2="700" y2="209.5" stroke="#DEE2E6"/>
<line y1="279.5" x2="700" y2="279.5" stroke="#DEE2E6"/>
<path d="M42.6591 28.9091H44.7045C44.6108 26.2756 42.1818 24.3068 38.8068 24.3068C35.4659 24.3068 32.8409 26.25 32.8409 29.1818C32.8409 31.5341 34.5455 32.9318 37.2727 33.7159L39.4205 34.3295C41.2614 34.8409 42.8977 35.4886 42.8977 37.2273C42.8977 39.1364 41.0568 40.3977 38.6364 40.3977C36.5568 40.3977 34.7159 39.4773 34.5455 37.5H32.3636C32.5682 40.3636 34.8864 42.3068 38.6364 42.3068C42.6591 42.3068 44.9432 40.0909 44.9432 37.2614C44.9432 33.9886 41.8409 32.9318 40.0341 32.4545L38.2614 31.9773C36.9659 31.6364 34.8864 30.9545 34.8864 29.0795C34.8864 27.4091 36.4205 26.1818 38.7386 26.1818C40.8523 26.1818 42.4545 27.1875 42.6591 28.9091ZM49.1383 42H51.252V35.625H55.0701C59.1355 35.625 60.9679 33.1534 60.9679 30.0682C60.9679 26.983 59.1355 24.5455 55.0361 24.5455H49.1383V42ZM51.252 33.75V26.4205H54.9679C57.8059 26.4205 58.8883 27.9716 58.8883 30.0682C58.8883 32.1648 57.8059 33.75 55.002 33.75H51.252ZM65.0927 42H75.7632V40.125H67.2063V34.1932H75.0813V32.3182H67.2063V26.4205H75.6268V24.5455H65.0927V42ZM94.2019 30C93.5542 26.4205 90.6905 24.3068 87.1792 24.3068C82.7133 24.3068 79.4746 27.75 79.4746 33.2727C79.4746 38.7955 82.7133 42.2386 87.1792 42.2386C90.6905 42.2386 93.5542 40.125 94.2019 36.5455H92.0883C91.5769 38.9659 89.4974 40.2614 87.1792 40.2614C84.0087 40.2614 81.5201 37.8068 81.5201 33.2727C81.5201 28.7386 84.0087 26.2841 87.1792 26.2841C89.4974 26.2841 91.5769 27.5795 92.0883 30H94.2019Z" fill="#3A3A3A"/>
<path d="M126.497 37.6364C126.497 41.9318 127.656 45.5114 129.735 48.5455H131.508C129.872 46.2955 128.576 41.6932 128.576 37.6364C128.576 33.5795 129.872 28.9773 131.508 26.7273H129.735C127.656 29.7614 126.497 33.3409 126.497 37.6364ZM140.233 45.2727C143.779 45.2727 146.165 42.5795 146.165 38.5227C146.165 34.4318 143.779 31.7386 140.233 31.7386C136.688 31.7386 134.301 34.4318 134.301 38.5227C134.301 42.5795 136.688 45.2727 140.233 45.2727ZM140.233 43.4659C137.54 43.4659 136.313 41.1477 136.313 38.5227C136.313 35.8977 137.54 33.5455 140.233 33.5455C142.926 33.5455 144.154 35.8977 144.154 38.5227C144.154 41.1477 142.926 43.4659 140.233 43.4659ZM151.967 37.125C151.967 34.8409 153.381 33.5455 155.308 33.5455C157.174 33.5455 158.308 34.7642 158.308 36.8182V45H160.319V36.6818C160.319 33.3409 158.538 31.7386 155.887 31.7386C153.91 31.7386 152.683 32.625 152.069 33.9545H151.898V31.9091H149.955V45H151.967V37.125ZM177.503 45.2727C180.4 45.2727 182.309 43.5 182.65 41.1818H180.639C180.264 42.6136 179.071 43.4659 177.503 43.4659C175.116 43.4659 173.582 41.4886 173.582 38.4545C173.582 35.4886 175.15 33.5455 177.503 33.5455C179.275 33.5455 180.332 34.6364 180.639 35.8295H182.65C182.309 33.375 180.23 31.7386 177.468 31.7386C173.923 31.7386 171.571 34.5341 171.571 38.5227C171.571 42.4432 173.821 45.2727 177.503 45.2727ZM186.311 45H188.322V36.8182C188.322 34.9006 189.72 33.5455 191.288 33.5455C192.813 33.5455 193.879 34.5426 193.879 36.0341V45H195.924V36.4773C195.924 34.7898 196.981 33.5455 198.822 33.5455C200.254 33.5455 201.481 34.304 201.481 36.2386V45H203.492V36.2386C203.492 33.1619 201.839 31.7386 199.504 31.7386C197.629 31.7386 196.257 32.5994 195.583 33.9545H195.447C194.799 32.5568 193.657 31.7386 191.936 31.7386C190.231 31.7386 188.97 32.5568 188.424 33.9545H188.254V31.9091H186.311V45ZM212.185 37.6364C212.185 33.3409 211.026 29.7614 208.947 26.7273H207.174C208.81 28.9773 210.106 33.5795 210.106 37.6364C210.106 41.6932 208.81 46.2955 207.174 48.5455H208.947C211.026 45.5114 212.185 41.9318 212.185 37.6364Z" fill="#3A3A3A"/>
<path d="M33.1136 112H43.3409V110.125H35.2273V94.5455H33.1136V112ZM47.0609 112H49.0723V98.9091H47.0609V112ZM48.0836 96.7273C48.8677 96.7273 49.5155 96.1136 49.5155 95.3636C49.5155 94.6136 48.8677 94 48.0836 94C47.2995 94 46.6518 94.6136 46.6518 95.3636C46.6518 96.1136 47.2995 96.7273 48.0836 96.7273ZM55.4876 104.125C55.4876 101.841 56.9024 100.545 58.8285 100.545C60.695 100.545 61.8285 101.764 61.8285 103.818V112H63.8399V103.682C63.8399 100.341 62.0586 98.7386 59.408 98.7386C57.4308 98.7386 56.2035 99.625 55.5899 100.955H55.4194V98.9091H53.4762V112H55.4876V104.125ZM73.5194 117.182C76.6557 117.182 79.1785 115.75 79.1785 112.375V98.9091H77.2353V100.989H77.0307C76.5876 100.307 75.7694 98.7386 73.2126 98.7386C69.9057 98.7386 67.6216 101.364 67.6216 105.386C67.6216 109.477 70.008 111.795 73.1785 111.795C75.7353 111.795 76.5535 110.295 76.9966 109.58H77.1671V112.239C77.1671 114.42 75.633 115.409 73.5194 115.409C71.1415 115.409 70.3063 114.156 69.7694 113.432L68.1671 114.557C68.9853 115.929 70.5961 117.182 73.5194 117.182ZM73.4512 109.989C70.9285 109.989 69.633 108.08 69.633 105.352C69.633 102.693 70.8944 100.545 73.4512 100.545C75.9057 100.545 77.2012 102.523 77.2012 105.352C77.2012 108.25 75.8716 109.989 73.4512 109.989ZM83.5803 112H85.5916V107.099L86.9979 105.795L91.8985 112H94.4553L88.5149 104.5L94.0462 98.9091H91.5576L85.8303 104.739H85.5916V94.5455H83.5803V112ZM101.207 112.307C103.491 112.307 104.685 111.08 105.094 110.227H105.196V112H107.207V103.375C107.207 99.2159 104.037 98.7386 102.366 98.7386C100.389 98.7386 98.1391 99.4205 97.1163 101.807L99.0254 102.489C99.4686 101.534 100.517 100.511 102.435 100.511C104.284 100.511 105.196 101.491 105.196 103.17V103.239C105.196 104.21 104.207 104.125 101.821 104.432C99.3919 104.747 96.7413 105.284 96.7413 108.284C96.7413 110.841 98.7186 112.307 101.207 112.307ZM101.514 110.5C99.9118 110.5 98.7527 109.784 98.7527 108.386C98.7527 106.852 100.15 106.375 101.719 106.17C102.571 106.068 104.855 105.83 105.196 105.42V107.261C105.196 108.898 103.9 110.5 101.514 110.5ZM111.598 112H113.61V103.716C113.61 101.943 115.007 100.648 116.917 100.648C117.454 100.648 118.007 100.75 118.144 100.784V98.7386C117.914 98.7216 117.385 98.7045 117.087 98.7045C115.519 98.7045 114.155 99.5909 113.678 100.886H113.542V98.9091H111.598V112ZM128.991 112H131.104V105.625H134.923C138.988 105.625 140.82 103.153 140.82 100.068C140.82 96.983 138.988 94.5455 134.889 94.5455H128.991V112ZM131.104 103.75V96.4205H134.82C137.658 96.4205 138.741 97.9716 138.741 100.068C138.741 102.165 137.658 103.75 134.854 103.75H131.104ZM144.672 112H146.684V98.9091H144.672V112ZM145.695 96.7273C146.479 96.7273 147.127 96.1136 147.127 95.3636C147.127 94.6136 146.479 94 145.695 94C144.911 94 144.263 94.6136 144.263 95.3636C144.263 96.1136 144.911 96.7273 145.695 96.7273ZM153.099 104.125C153.099 101.841 154.514 100.545 156.44 100.545C158.307 100.545 159.44 101.764 159.44 103.818V112H161.451V103.682C161.451 100.341 159.67 98.7386 157.02 98.7386C155.042 98.7386 153.815 99.625 153.201 100.955H153.031V98.9091H151.088V112H153.099V104.125ZM171.131 117.182C174.267 117.182 176.79 115.75 176.79 112.375V98.9091H174.847V100.989H174.642C174.199 100.307 173.381 98.7386 170.824 98.7386C167.517 98.7386 165.233 101.364 165.233 105.386C165.233 109.477 167.62 111.795 170.79 111.795C173.347 111.795 174.165 110.295 174.608 109.58H174.779V112.239C174.779 114.42 173.245 115.409 171.131 115.409C168.753 115.409 167.918 114.156 167.381 113.432L165.779 114.557C166.597 115.929 168.208 117.182 171.131 117.182ZM171.063 109.989C168.54 109.989 167.245 108.08 167.245 105.352C167.245 102.693 168.506 100.545 171.063 100.545C173.517 100.545 174.813 102.523 174.813 105.352C174.813 108.25 173.483 109.989 171.063 109.989ZM186.476 117.182C189.612 117.182 192.135 115.75 192.135 112.375V98.9091H190.192V100.989H189.987C189.544 100.307 188.726 98.7386 186.169 98.7386C182.862 98.7386 180.578 101.364 180.578 105.386C180.578 109.477 182.965 111.795 186.135 111.795C188.692 111.795 189.51 110.295 189.953 109.58H190.124V112.239C190.124 114.42 188.59 115.409 186.476 115.409C184.098 115.409 183.263 114.156 182.726 113.432L181.124 114.557C181.942 115.929 183.553 117.182 186.476 117.182ZM186.408 109.989C183.885 109.989 182.59 108.08 182.59 105.352C182.59 102.693 183.851 100.545 186.408 100.545C188.862 100.545 190.158 102.523 190.158 105.352C190.158 108.25 188.828 109.989 186.408 109.989ZM200.389 112.307C202.673 112.307 203.866 111.08 204.275 110.227H204.378V112H206.389V103.375C206.389 99.2159 203.219 98.7386 201.548 98.7386C199.571 98.7386 197.321 99.4205 196.298 101.807L198.207 102.489C198.65 101.534 199.699 100.511 201.616 100.511C203.466 100.511 204.378 101.491 204.378 103.17V103.239C204.378 104.21 203.389 104.125 201.003 104.432C198.574 104.747 195.923 105.284 195.923 108.284C195.923 110.841 197.9 112.307 200.389 112.307ZM200.696 110.5C199.094 110.5 197.935 109.784 197.935 108.386C197.935 106.852 199.332 106.375 200.9 106.17C201.753 106.068 204.037 105.83 204.378 105.42V107.261C204.378 108.898 203.082 110.5 200.696 110.5ZM212.792 104.125C212.792 101.841 214.206 100.545 216.133 100.545C217.999 100.545 219.133 101.764 219.133 103.818V112H221.144V103.682C221.144 100.341 219.363 98.7386 216.712 98.7386C214.735 98.7386 213.508 99.625 212.894 100.955H212.723V98.9091H210.78V112H212.792V104.125ZM230.823 117.182C233.96 117.182 236.483 115.75 236.483 112.375V98.9091H234.539V100.989H234.335C233.892 100.307 233.073 98.7386 230.517 98.7386C227.21 98.7386 224.926 101.364 224.926 105.386C224.926 109.477 227.312 111.795 230.483 111.795C233.039 111.795 233.858 110.295 234.301 109.58H234.471V112.239C234.471 114.42 232.937 115.409 230.823 115.409C228.446 115.409 227.61 114.156 227.073 113.432L225.471 114.557C226.289 115.929 227.9 117.182 230.823 117.182ZM230.755 109.989C228.233 109.989 226.937 108.08 226.937 105.352C226.937 102.693 228.198 100.545 230.755 100.545C233.21 100.545 234.505 102.523 234.505 105.352C234.505 108.25 233.176 109.989 230.755 109.989Z" fill="#3A3A3A"/>
<path d="M33.1136 182H43.3409V180.125H35.2273V164.545H33.1136V182ZM47.0609 182H49.0723V168.909H47.0609V182ZM48.0836 166.727C48.8677 166.727 49.5155 166.114 49.5155 165.364C49.5155 164.614 48.8677 164 48.0836 164C47.2995 164 46.6518 164.614 46.6518 165.364C46.6518 166.114 47.2995 166.727 48.0836 166.727ZM55.4876 174.125C55.4876 171.841 56.9024 170.545 58.8285 170.545C60.695 170.545 61.8285 171.764 61.8285 173.818V182H63.8399V173.682C63.8399 170.341 62.0586 168.739 59.408 168.739C57.4308 168.739 56.2035 169.625 55.5899 170.955H55.4194V168.909H53.4762V182H55.4876V174.125ZM73.5194 187.182C76.6557 187.182 79.1785 185.75 79.1785 182.375V168.909H77.2353V170.989H77.0307C76.5876 170.307 75.7694 168.739 73.2126 168.739C69.9057 168.739 67.6216 171.364 67.6216 175.386C67.6216 179.477 70.008 181.795 73.1785 181.795C75.7353 181.795 76.5535 180.295 76.9966 179.58H77.1671V182.239C77.1671 184.42 75.633 185.409 73.5194 185.409C71.1415 185.409 70.3063 184.156 69.7694 183.432L68.1671 184.557C68.9853 185.929 70.5961 187.182 73.5194 187.182ZM73.4512 179.989C70.9285 179.989 69.633 178.08 69.633 175.352C69.633 172.693 70.8944 170.545 73.4512 170.545C75.9057 170.545 77.2012 172.523 77.2012 175.352C77.2012 178.25 75.8716 179.989 73.4512 179.989ZM83.5803 182H85.5916V177.099L86.9979 175.795L91.8985 182H94.4553L88.5149 174.5L94.0462 168.909H91.5576L85.8303 174.739H85.5916V164.545H83.5803V182ZM101.207 182.307C103.491 182.307 104.685 181.08 105.094 180.227H105.196V182H107.207V173.375C107.207 169.216 104.037 168.739 102.366 168.739C100.389 168.739 98.1391 169.42 97.1163 171.807L99.0254 172.489C99.4686 171.534 100.517 170.511 102.435 170.511C104.284 170.511 105.196 171.491 105.196 173.17V173.239C105.196 174.21 104.207 174.125 101.821 174.432C99.3919 174.747 96.7413 175.284 96.7413 178.284C96.7413 180.841 98.7186 182.307 101.207 182.307ZM101.514 180.5C99.9118 180.5 98.7527 179.784 98.7527 178.386C98.7527 176.852 100.15 176.375 101.719 176.17C102.571 176.068 104.855 175.83 105.196 175.42V177.261C105.196 178.898 103.9 180.5 101.514 180.5ZM111.598 182H113.61V173.716C113.61 171.943 115.007 170.648 116.917 170.648C117.454 170.648 118.007 170.75 118.144 170.784V168.739C117.914 168.722 117.385 168.705 117.087 168.705C115.519 168.705 114.155 169.591 113.678 170.886H113.542V168.909H111.598V182ZM128.991 182H131.104V175.625H134.923C138.988 175.625 140.82 173.153 140.82 170.068C140.82 166.983 138.988 164.545 134.889 164.545H128.991V182ZM131.104 173.75V166.42H134.82C137.658 166.42 138.741 167.972 138.741 170.068C138.741 172.165 137.658 173.75 134.854 173.75H131.104ZM148.525 182.307C150.809 182.307 152.002 181.08 152.411 180.227H152.513V182H154.525V173.375C154.525 169.216 151.354 168.739 149.684 168.739C147.707 168.739 145.457 169.42 144.434 171.807L146.343 172.489C146.786 171.534 147.834 170.511 149.752 170.511C151.601 170.511 152.513 171.491 152.513 173.17V173.239C152.513 174.21 151.525 174.125 149.138 174.432C146.709 174.747 144.059 175.284 144.059 178.284C144.059 180.841 146.036 182.307 148.525 182.307ZM148.832 180.5C147.229 180.5 146.07 179.784 146.07 178.386C146.07 176.852 147.468 176.375 149.036 176.17C149.888 176.068 152.172 175.83 152.513 175.42V177.261C152.513 178.898 151.218 180.5 148.832 180.5ZM160.927 174.125C160.927 171.841 162.342 170.545 164.268 170.545C166.135 170.545 167.268 171.764 167.268 173.818V182H169.28V173.682C169.28 170.341 167.498 168.739 164.848 168.739C162.87 168.739 161.643 169.625 161.03 170.955H160.859V168.909H158.916V182H160.927V174.125ZM178.959 187.182C182.095 187.182 184.618 185.75 184.618 182.375V168.909H182.675V170.989H182.47C182.027 170.307 181.209 168.739 178.652 168.739C175.345 168.739 173.061 171.364 173.061 175.386C173.061 179.477 175.448 181.795 178.618 181.795C181.175 181.795 181.993 180.295 182.436 179.58H182.607V182.239C182.607 184.42 181.073 185.409 178.959 185.409C176.581 185.409 175.746 184.156 175.209 183.432L173.607 184.557C174.425 185.929 176.036 187.182 178.959 187.182ZM178.891 179.989C176.368 179.989 175.073 178.08 175.073 175.352C175.073 172.693 176.334 170.545 178.891 170.545C181.345 170.545 182.641 172.523 182.641 175.352C182.641 178.25 181.311 179.989 178.891 179.989ZM194.304 187.182C197.44 187.182 199.963 185.75 199.963 182.375V168.909H198.02V170.989H197.815C197.372 170.307 196.554 168.739 193.997 168.739C190.69 168.739 188.406 171.364 188.406 175.386C188.406 179.477 190.793 181.795 193.963 181.795C196.52 181.795 197.338 180.295 197.781 179.58H197.952V182.239C197.952 184.42 196.418 185.409 194.304 185.409C191.926 185.409 191.091 184.156 190.554 183.432L188.952 184.557C189.77 185.929 191.381 187.182 194.304 187.182ZM194.236 179.989C191.713 179.989 190.418 178.08 190.418 175.352C190.418 172.693 191.679 170.545 194.236 170.545C196.69 170.545 197.986 172.523 197.986 175.352C197.986 178.25 196.656 179.989 194.236 179.989ZM212.615 176.648C212.615 179.102 210.74 180.227 209.24 180.227C207.57 180.227 206.376 179 206.376 177.091V168.909H204.365V177.227C204.365 180.568 206.138 182.17 208.592 182.17C210.57 182.17 211.865 181.114 212.479 179.784H212.615V182H214.626V168.909H212.615V176.648ZM221.042 164.545H219.03V182H221.042V164.545Z" fill="#3A3A3A"/>
<path d="M33.1136 252H35.2273V245.625H39.0455C43.1108 245.625 44.9432 243.153 44.9432 240.068C44.9432 236.983 43.1108 234.545 39.0114 234.545H33.1136V252ZM35.2273 243.75V236.42H38.9432C41.7812 236.42 42.8636 237.972 42.8636 240.068C42.8636 242.165 41.7812 243.75 38.9773 243.75H35.2273ZM52.6476 252.307C54.9316 252.307 56.1248 251.08 56.5339 250.227H56.6362V252H58.6476V243.375C58.6476 239.216 55.4771 238.739 53.8066 238.739C51.8294 238.739 49.5794 239.42 48.5566 241.807L50.4657 242.489C50.9089 241.534 51.9572 240.511 53.8748 240.511C55.7243 240.511 56.6362 241.491 56.6362 243.17V243.239C56.6362 244.21 55.6476 244.125 53.2612 244.432C50.8322 244.747 48.1816 245.284 48.1816 248.284C48.1816 250.841 50.1589 252.307 52.6476 252.307ZM52.9544 250.5C51.3521 250.5 50.193 249.784 50.193 248.386C50.193 246.852 51.5907 246.375 53.1589 246.17C54.0112 246.068 56.2953 245.83 56.6362 245.42V247.261C56.6362 248.898 55.3407 250.5 52.9544 250.5ZM65.0501 244.125C65.0501 241.841 66.4649 240.545 68.391 240.545C70.2575 240.545 71.391 241.764 71.391 243.818V252H73.4024V243.682C73.4024 240.341 71.6211 238.739 68.9705 238.739C66.9933 238.739 65.766 239.625 65.1524 240.955H64.9819V238.909H63.0387V252H65.0501V244.125ZM77.7978 238.909V252.955C77.7978 254.284 77.2523 255.034 76.0251 255.034H75.6501V256.909H76.0591C78.5819 256.909 79.8091 255.375 79.8091 252.955V238.909H77.7978ZM78.7864 236.727C79.5705 236.727 80.2182 236.114 80.2182 235.364C80.2182 234.614 79.5705 234 78.7864 234C78.0023 234 77.3546 234.614 77.3546 235.364C77.3546 236.114 78.0023 236.727 78.7864 236.727ZM88.0654 252.307C90.3495 252.307 91.5426 251.08 91.9517 250.227H92.054V252H94.0654V243.375C94.0654 239.216 90.8949 238.739 89.2245 238.739C87.2472 238.739 84.9972 239.42 83.9745 241.807L85.8836 242.489C86.3267 241.534 87.375 240.511 89.2926 240.511C91.1421 240.511 92.054 241.491 92.054 243.17V243.239C92.054 244.21 91.0654 244.125 88.679 244.432C86.25 244.747 83.5995 245.284 83.5995 248.284C83.5995 250.841 85.5767 252.307 88.0654 252.307ZM88.3722 250.5C86.7699 250.5 85.6108 249.784 85.6108 248.386C85.6108 246.852 87.0086 246.375 88.5767 246.17C89.429 246.068 91.7131 245.83 92.054 245.42V247.261C92.054 248.898 90.7586 250.5 88.3722 250.5ZM100.468 244.125C100.468 241.841 101.883 240.545 103.809 240.545C105.675 240.545 106.809 241.764 106.809 243.818V252H108.82V243.682C108.82 240.341 107.039 238.739 104.388 238.739C102.411 238.739 101.184 239.625 100.57 240.955H100.4V238.909H98.4565V252H100.468V244.125ZM118.5 257.182C121.636 257.182 124.159 255.75 124.159 252.375V238.909H122.216V240.989H122.011C121.568 240.307 120.75 238.739 118.193 238.739C114.886 238.739 112.602 241.364 112.602 245.386C112.602 249.477 114.988 251.795 118.159 251.795C120.716 251.795 121.534 250.295 121.977 249.58H122.147V252.239C122.147 254.42 120.613 255.409 118.5 255.409C116.122 255.409 115.287 254.156 114.75 253.432L113.147 254.557C113.966 255.929 115.576 257.182 118.5 257.182ZM118.432 249.989C115.909 249.989 114.613 248.08 114.613 245.352C114.613 242.693 115.875 240.545 118.432 240.545C120.886 240.545 122.182 242.523 122.182 245.352C122.182 248.25 120.852 249.989 118.432 249.989ZM136.303 252H138.417V245.182H142.235C142.389 245.182 142.533 245.182 142.678 245.173L146.36 252H148.815L144.869 244.79C147.093 244.031 148.133 242.216 148.133 239.898C148.133 236.812 146.292 234.545 142.201 234.545H136.303V252ZM138.417 243.273V236.42H142.133C144.962 236.42 146.053 237.801 146.053 239.898C146.053 241.994 144.962 243.273 142.167 243.273H138.417ZM157.28 252.273C160.825 252.273 163.212 249.58 163.212 245.523C163.212 241.432 160.825 238.739 157.28 238.739C153.734 238.739 151.348 241.432 151.348 245.523C151.348 249.58 153.734 252.273 157.28 252.273ZM157.28 250.466C154.587 250.466 153.359 248.148 153.359 245.523C153.359 242.898 154.587 240.545 157.28 240.545C159.973 240.545 161.2 242.898 161.2 245.523C161.2 248.148 159.973 250.466 157.28 250.466ZM167.002 252H169.013V247.099L170.419 245.795L175.32 252H177.877L171.937 244.5L177.468 238.909H174.979L169.252 244.739H169.013V234.545H167.002V252Z" fill="#3A3A3A"/>
<path d="M387.986 29.5653H391.523C391.472 26.4545 388.915 24.3068 385.028 24.3068C381.202 24.3068 378.398 26.4205 378.415 29.5909C378.406 32.1648 380.222 33.6392 383.17 34.3466L385.071 34.8239C386.972 35.2841 388.028 35.8295 388.037 37.0057C388.028 38.2841 386.818 39.1534 384.943 39.1534C383.026 39.1534 381.645 38.267 381.526 36.5199H377.955C378.048 40.2955 380.75 42.2472 384.986 42.2472C389.247 42.2472 391.753 40.2102 391.761 37.0142C391.753 34.108 389.562 32.5653 386.528 31.8835L384.96 31.5085C383.443 31.1591 382.173 30.5966 382.199 29.3438C382.199 28.2188 383.196 27.392 385.003 27.392C386.767 27.392 387.849 28.1932 387.986 29.5653Z" fill="#3A3A3A"/>
<path d="M464.517 24.5455V42H468.097V30.5966H468.241L472.759 41.9148H475.196L479.713 30.6392H479.858V42H483.438V24.5455H478.886L474.08 36.2727H473.875L469.068 24.5455H464.517Z" fill="#3A3A3A"/>
<path d="M558.517 42H569.69V38.9574H562.207V24.5455H558.517V42Z" fill="#3A3A3A"/>
<path d="M644.977 24.5455H640.793L646.153 33.2727L640.69 42H644.918L648.497 36.0426H648.634L652.213 42H656.457L651.011 33.2727L656.338 24.5455H652.17L648.634 30.4943H648.497L644.977 24.5455ZM659.873 42H671.047V38.9574H663.564V24.5455H659.873V42Z" fill="#3A3A3A"/>
<path d="M372.352 112H374.568L382.341 96.5227V94.5455H371.159V96.4205H380.159V96.5568L372.352 112ZM392.036 112.239C395.888 112.239 398.104 108.974 398.104 103.273C398.104 97.6136 395.854 94.3068 392.036 94.3068C388.218 94.3068 385.968 97.6136 385.968 103.273C385.968 108.974 388.184 112.239 392.036 112.239ZM392.036 110.364C389.496 110.364 388.013 107.815 388.013 103.273C388.013 98.7386 389.513 96.1477 392.036 96.1477C394.559 96.1477 396.059 98.7386 396.059 103.273C396.059 107.815 394.576 110.364 392.036 110.364Z" fill="#3A3A3A"/>
<path d="M462.352 112H464.568L472.341 96.5227V94.5455H461.159V96.4205H470.159V96.5568L462.352 112ZM474.902 108.42H483.118V112H485.13V108.42H487.516V106.545H485.13V94.5455H482.573L474.902 106.682V108.42ZM483.118 106.545H477.187V106.409L482.982 97.2386H483.118V106.545Z" fill="#3A3A3A"/>
<path d="M552.352 112H554.568L562.341 96.5227V94.5455H551.159V96.4205H560.159V96.5568L552.352 112ZM571.957 112.239C575.443 112.239 577.872 110.202 577.889 107.364C577.872 105.156 576.397 103.281 574.514 102.932V102.83C576.15 102.403 577.224 100.801 577.241 98.9432C577.224 96.2841 574.991 94.3068 571.957 94.3068C568.889 94.3068 566.656 96.2841 566.673 98.9432C566.656 100.801 567.73 102.403 569.4 102.83V102.932C567.483 103.281 566.008 105.156 566.025 107.364C566.008 110.202 568.437 112.239 571.957 112.239ZM571.957 110.364C569.562 110.364 568.088 109.136 568.105 107.261C568.088 105.293 569.716 103.886 571.957 103.886C574.164 103.886 575.792 105.293 575.809 107.261C575.792 109.136 574.318 110.364 571.957 110.364ZM571.957 102.08C570.048 102.08 568.701 100.886 568.718 99.0795C568.701 97.3068 569.997 96.1477 571.957 96.1477C573.883 96.1477 575.179 97.3068 575.196 99.0795C575.179 100.886 573.832 102.08 571.957 102.08Z" fill="#3A3A3A"/>
<path d="M647.398 112.239C650.884 112.239 653.312 110.202 653.33 107.364C653.312 105.156 651.838 103.281 649.955 102.932V102.83C651.591 102.403 652.665 100.801 652.682 98.9432C652.665 96.2841 650.432 94.3068 647.398 94.3068C644.33 94.3068 642.097 96.2841 642.114 98.9432C642.097 100.801 643.17 102.403 644.841 102.83V102.932C642.923 103.281 641.449 105.156 641.466 107.364C641.449 110.202 643.878 112.239 647.398 112.239ZM647.398 110.364C645.003 110.364 643.528 109.136 643.545 107.261C643.528 105.293 645.156 103.886 647.398 103.886C649.605 103.886 651.233 105.293 651.25 107.261C651.233 109.136 649.759 110.364 647.398 110.364ZM647.398 102.08C645.489 102.08 644.142 100.886 644.159 99.0795C644.142 97.3068 645.438 96.1477 647.398 96.1477C649.324 96.1477 650.619 97.3068 650.636 99.0795C650.619 100.886 649.273 102.08 647.398 102.08ZM657.796 112H668.807V110.125H660.694V109.989L664.614 105.795C667.614 102.582 668.5 101.082 668.5 99.1477C668.5 96.4545 666.319 94.3068 663.25 94.3068C660.191 94.3068 657.864 96.3864 657.864 99.4545H659.875C659.875 97.4688 661.162 96.1477 663.182 96.1477C665.074 96.1477 666.523 97.3068 666.523 99.1477C666.523 100.759 665.577 101.952 663.557 104.159L657.796 110.466V112Z" fill="#3A3A3A"/>
<path d="M377.943 164.545H375.83L371.466 167.443V169.591L375.727 166.761H375.83V182H377.943V164.545ZM389.856 182.239C393.709 182.239 395.924 178.974 395.924 173.273C395.924 167.614 393.674 164.307 389.856 164.307C386.038 164.307 383.788 167.614 383.788 173.273C383.788 178.974 386.004 182.239 389.856 182.239ZM389.856 180.364C387.316 180.364 385.834 177.815 385.834 173.273C385.834 168.739 387.334 166.148 389.856 166.148C392.379 166.148 393.879 168.739 393.879 173.273C393.879 177.815 392.396 180.364 389.856 180.364ZM406.056 182.239C409.909 182.239 412.124 178.974 412.124 173.273C412.124 167.614 409.874 164.307 406.056 164.307C402.238 164.307 399.988 167.614 399.988 173.273C399.988 178.974 402.204 182.239 406.056 182.239ZM406.056 180.364C403.516 180.364 402.034 177.815 402.034 173.273C402.034 168.739 403.534 166.148 406.056 166.148C408.579 166.148 410.079 168.739 410.079 173.273C410.079 177.815 408.596 180.364 406.056 180.364Z" fill="#3A3A3A"/>
<path d="M467.943 164.545H465.83L461.466 167.443V169.591L465.727 166.761H465.83V182H467.943V164.545ZM479.856 182.239C483.709 182.239 485.924 178.974 485.924 173.273C485.924 167.614 483.674 164.307 479.856 164.307C476.038 164.307 473.788 167.614 473.788 173.273C473.788 178.974 476.004 182.239 479.856 182.239ZM479.856 180.364C477.316 180.364 475.834 177.815 475.834 173.273C475.834 168.739 477.334 166.148 479.856 166.148C482.379 166.148 483.879 168.739 483.879 173.273C483.879 177.815 482.396 180.364 479.856 180.364ZM489.954 178.42H498.17V182H500.181V178.42H502.568V176.545H500.181V164.545H497.624L489.954 176.682V178.42ZM498.17 176.545H492.238V176.409L498.034 167.239H498.17V176.545Z" fill="#3A3A3A"/>
<path d="M557.943 164.545H555.83L551.466 167.443V169.591L555.727 166.761H555.83V182H557.943V164.545ZM570.299 164.545H568.186L563.822 167.443V169.591L568.084 166.761H568.186V182H570.299V164.545ZM582.656 164.545H580.542L576.178 167.443V169.591L580.44 166.761H580.542V182H582.656V164.545Z" fill="#3A3A3A"/>
<path d="M647.943 164.545H645.83L641.466 167.443V169.591L645.727 166.761H645.83V182H647.943V164.545ZM660.299 164.545H658.186L653.822 167.443V169.591L658.084 166.761H658.186V182H660.299V164.545ZM671.974 182.239C675.298 182.239 677.735 179.784 677.735 176.443C677.735 173.06 675.383 170.58 672.178 170.58C671.002 170.58 669.86 170.997 669.144 171.568H669.042L669.656 166.42H676.951V164.545H667.883L666.826 173.136L668.803 173.375C669.528 172.855 670.764 172.48 671.837 172.489C674.062 172.506 675.69 174.193 675.69 176.477C675.69 178.719 674.122 180.364 671.974 180.364C670.184 180.364 668.761 179.213 668.599 177.636H666.553C666.681 180.295 668.974 182.239 671.974 182.239Z" fill="#3A3A3A"/>
<path d="M377.602 252.239C381.131 252.281 383.432 249.622 383.432 246.375C383.432 243 380.935 240.58 377.943 240.58C376.145 240.58 374.602 241.457 373.648 242.898H373.511C373.52 238.645 375.173 236.182 377.875 236.182C379.716 236.182 380.824 237.341 381.216 238.909H383.295C382.869 236.199 380.807 234.307 377.875 234.307C373.946 234.307 371.534 237.784 371.534 243.955C371.534 250.406 374.739 252.205 377.602 252.239ZM377.602 250.364C375.412 250.364 373.81 248.497 373.818 246.409C373.827 244.321 375.506 242.455 377.67 242.455C379.81 242.455 381.386 244.21 381.386 246.375C381.386 248.591 379.741 250.364 377.602 250.364ZM387.983 252H398.995V250.125H390.881V249.989L394.802 245.795C397.802 242.582 398.688 241.082 398.688 239.148C398.688 236.455 396.506 234.307 393.438 234.307C390.378 234.307 388.052 236.386 388.052 239.455H390.063C390.063 237.469 391.35 236.148 393.37 236.148C395.262 236.148 396.711 237.307 396.711 239.148C396.711 240.759 395.765 241.952 393.745 244.159L387.983 250.466V252Z" fill="#3A3A3A"/>
<path d="M467.602 252.239C471.131 252.281 473.432 249.622 473.432 246.375C473.432 243 470.935 240.58 467.943 240.58C466.145 240.58 464.602 241.457 463.648 242.898H463.511C463.52 238.645 465.173 236.182 467.875 236.182C469.716 236.182 470.824 237.341 471.216 238.909H473.295C472.869 236.199 470.807 234.307 467.875 234.307C463.946 234.307 461.534 237.784 461.534 243.955C461.534 250.406 464.739 252.205 467.602 252.239ZM467.602 250.364C465.412 250.364 463.81 248.497 463.818 246.409C463.827 244.321 465.506 242.455 467.67 242.455C469.81 242.455 471.386 244.21 471.386 246.375C471.386 248.591 469.741 250.364 467.602 250.364ZM477.574 248.42H485.79V252H487.802V248.42H490.188V246.545H487.802V234.545H485.245L477.574 246.682V248.42ZM485.79 246.545H479.858V246.409L485.654 237.239H485.79V246.545Z" fill="#3A3A3A"/>
<path d="M557.602 252.239C561.131 252.281 563.432 249.622 563.432 246.375C563.432 243 560.935 240.58 557.943 240.58C556.145 240.58 554.602 241.457 553.648 242.898H553.511C553.52 238.645 555.173 236.182 557.875 236.182C559.716 236.182 560.824 237.341 561.216 238.909H563.295C562.869 236.199 560.807 234.307 557.875 234.307C553.946 234.307 551.534 237.784 551.534 243.955C551.534 250.406 554.739 252.205 557.602 252.239ZM557.602 250.364C555.412 250.364 553.81 248.497 553.818 246.409C553.827 244.321 555.506 242.455 557.67 242.455C559.81 242.455 561.386 244.21 561.386 246.375C561.386 248.591 559.741 250.364 557.602 250.364ZM573.779 252.239C577.307 252.281 579.608 249.622 579.608 246.375C579.608 243 577.111 240.58 574.12 240.58C572.321 240.58 570.779 241.457 569.824 242.898H569.688C569.696 238.645 571.35 236.182 574.052 236.182C575.892 236.182 577 237.341 577.392 238.909H579.472C579.046 236.199 576.983 234.307 574.052 234.307C570.123 234.307 567.711 237.784 567.711 243.955C567.711 250.406 570.915 252.205 573.779 252.239ZM573.779 250.364C571.588 250.364 569.986 248.497 569.995 246.409C570.003 244.321 571.682 242.455 573.847 242.455C575.986 242.455 577.563 244.21 577.563 246.375C577.563 248.591 575.918 250.364 573.779 250.364Z" fill="#3A3A3A"/>
<path d="M647.602 252.239C651.131 252.281 653.432 249.622 653.432 246.375C653.432 243 650.935 240.58 647.943 240.58C646.145 240.58 644.602 241.457 643.648 242.898H643.511C643.52 238.645 645.173 236.182 647.875 236.182C649.716 236.182 650.824 237.341 651.216 238.909H653.295C652.869 236.199 650.807 234.307 647.875 234.307C643.946 234.307 641.534 237.784 641.534 243.955C641.534 250.406 644.739 252.205 647.602 252.239ZM647.602 250.364C645.412 250.364 643.81 248.497 643.818 246.409C643.827 244.321 645.506 242.455 647.67 242.455C649.81 242.455 651.386 244.21 651.386 246.375C651.386 248.591 649.741 250.364 647.602 250.364ZM663.574 252.239C667.06 252.239 669.489 250.202 669.506 247.364C669.489 245.156 668.015 243.281 666.131 242.932V242.83C667.767 242.403 668.841 240.801 668.858 238.943C668.841 236.284 666.608 234.307 663.574 234.307C660.506 234.307 658.273 236.284 658.29 238.943C658.273 240.801 659.347 242.403 661.017 242.83V242.932C659.1 243.281 657.625 245.156 657.642 247.364C657.625 250.202 660.054 252.239 663.574 252.239ZM663.574 250.364C661.179 250.364 659.705 249.136 659.722 247.261C659.705 245.293 661.333 243.886 663.574 243.886C665.782 243.886 667.41 245.293 667.427 247.261C667.41 249.136 665.935 250.364 663.574 250.364ZM663.574 242.08C661.665 242.08 660.319 240.886 660.336 239.08C660.319 237.307 661.614 236.148 663.574 236.148C665.5 236.148 666.796 237.307 666.813 239.08C666.796 240.886 665.449 242.08 663.574 242.08Z" fill="#3A3A3A"/>
</g>
<defs>
<clipPath id="clip0">
<rect width="700" height="280" fill="white"/>
</clipPath>
</defs>
</svg>
