<svg width="700" height="280" viewBox="0 0 700 280" fill="none" xmlns="http://www.w3.org/2000/svg">
<g clip-path="url(#clip0)">
<line x1="0.5" y1="2.18557e-08" x2="0.499988" y2="280" stroke="#DEE2E6"/>
<line x1="340.5" y1="2.18557e-08" x2="340.5" y2="280" stroke="#DEE2E6"/>
<line x1="430.5" y1="2.18557e-08" x2="430.5" y2="280" stroke="#DEE2E6"/>
<line x1="520.5" y1="2.18557e-08" x2="520.5" y2="280" stroke="#DEE2E6"/>
<line x1="610.5" y1="2.18557e-08" x2="610.5" y2="280" stroke="#DEE2E6"/>
<line x1="699.5" y1="2.18557e-08" x2="699.5" y2="280" stroke="#DEE2E6"/>
<line y1="0.5" x2="700" y2="0.5" stroke="#DEE2E6"/>
<line y1="69.5" x2="700" y2="69.5" stroke="#DEE2E6"/>
<line y1="139.5" x2="700" y2="139.5" stroke="#DEE2E6"/>
<line y1="209.5" x2="700" y2="209.5" stroke="#DEE2E6"/>
<line y1="279.5" x2="700" y2="279.5" stroke="#DEE2E6"/>
<path d="M42.6591 28.9091H44.7045C44.6108 26.2756 42.1818 24.3068 38.8068 24.3068C35.4659 24.3068 32.8409 26.25 32.8409 29.1818C32.8409 31.5341 34.5455 32.9318 37.2727 33.7159L39.4205 34.3295C41.2614 34.8409 42.8977 35.4886 42.8977 37.2273C42.8977 39.1364 41.0568 40.3977 38.6364 40.3977C36.5568 40.3977 34.7159 39.4773 34.5455 37.5H32.3636C32.5682 40.3636 34.8864 42.3068 38.6364 42.3068C42.6591 42.3068 44.9432 40.0909 44.9432 37.2614C44.9432 33.9886 41.8409 32.9318 40.0341 32.4545L38.2614 31.9773C36.9659 31.6364 34.8864 30.9545 34.8864 29.0795C34.8864 27.4091 36.4205 26.1818 38.7386 26.1818C40.8523 26.1818 42.4545 27.1875 42.6591 28.9091ZM49.1383 42H51.252V35.625H55.0701C59.1355 35.625 60.9679 33.1534 60.9679 30.0682C60.9679 26.983 59.1355 24.5455 55.0361 24.5455H49.1383V42ZM51.252 33.75V26.4205H54.9679C57.8059 26.4205 58.8883 27.9716 58.8883 30.0682C58.8883 32.1648 57.8059 33.75 55.002 33.75H51.252ZM65.0927 42H75.7632V40.125H67.2063V34.1932H75.0813V32.3182H67.2063V26.4205H75.6268V24.5455H65.0927V42ZM94.2019 30C93.5542 26.4205 90.6905 24.3068 87.1792 24.3068C82.7133 24.3068 79.4746 27.75 79.4746 33.2727C79.4746 38.7955 82.7133 42.2386 87.1792 42.2386C90.6905 42.2386 93.5542 40.125 94.2019 36.5455H92.0883C91.5769 38.9659 89.4974 40.2614 87.1792 40.2614C84.0087 40.2614 81.5201 37.8068 81.5201 33.2727C81.5201 28.7386 84.0087 26.2841 87.1792 26.2841C89.4974 26.2841 91.5769 27.5795 92.0883 30H94.2019Z" fill="#3A3A3A"/>
<path d="M126.497 37.6364C126.497 41.9318 127.656 45.5114 129.735 48.5455H131.508C129.872 46.2955 128.576 41.6932 128.576 37.6364C128.576 33.5795 129.872 28.9773 131.508 26.7273H129.735C127.656 29.7614 126.497 33.3409 126.497 37.6364ZM140.233 45.2727C143.779 45.2727 146.165 42.5795 146.165 38.5227C146.165 34.4318 143.779 31.7386 140.233 31.7386C136.688 31.7386 134.301 34.4318 134.301 38.5227C134.301 42.5795 136.688 45.2727 140.233 45.2727ZM140.233 43.4659C137.54 43.4659 136.313 41.1477 136.313 38.5227C136.313 35.8977 137.54 33.5455 140.233 33.5455C142.926 33.5455 144.154 35.8977 144.154 38.5227C144.154 41.1477 142.926 43.4659 140.233 43.4659ZM151.967 37.125C151.967 34.8409 153.381 33.5455 155.308 33.5455C157.174 33.5455 158.308 34.7642 158.308 36.8182V45H160.319V36.6818C160.319 33.3409 158.538 31.7386 155.887 31.7386C153.91 31.7386 152.683 32.625 152.069 33.9545H151.898V31.9091H149.955V45H151.967V37.125ZM177.503 45.2727C180.4 45.2727 182.309 43.5 182.65 41.1818H180.639C180.264 42.6136 179.071 43.4659 177.503 43.4659C175.116 43.4659 173.582 41.4886 173.582 38.4545C173.582 35.4886 175.15 33.5455 177.503 33.5455C179.275 33.5455 180.332 34.6364 180.639 35.8295H182.65C182.309 33.375 180.23 31.7386 177.468 31.7386C173.923 31.7386 171.571 34.5341 171.571 38.5227C171.571 42.4432 173.821 45.2727 177.503 45.2727ZM186.311 45H188.322V36.8182C188.322 34.9006 189.72 33.5455 191.288 33.5455C192.813 33.5455 193.879 34.5426 193.879 36.0341V45H195.924V36.4773C195.924 34.7898 196.981 33.5455 198.822 33.5455C200.254 33.5455 201.481 34.304 201.481 36.2386V45H203.492V36.2386C203.492 33.1619 201.839 31.7386 199.504 31.7386C197.629 31.7386 196.257 32.5994 195.583 33.9545H195.447C194.799 32.5568 193.657 31.7386 191.936 31.7386C190.231 31.7386 188.97 32.5568 188.424 33.9545H188.254V31.9091H186.311V45ZM212.185 37.6364C212.185 33.3409 211.026 29.7614 208.947 26.7273H207.174C208.81 28.9773 210.106 33.5795 210.106 37.6364C210.106 41.6932 208.81 46.2955 207.174 48.5455H208.947C211.026 45.5114 212.185 41.9318 212.185 37.6364Z" fill="#3A3A3A"/>
<path d="M33.1136 112H35.2273V105.625H39.0455C43.1108 105.625 44.9432 103.153 44.9432 100.068C44.9432 96.983 43.1108 94.5455 39.0114 94.5455H33.1136V112ZM35.2273 103.75V96.4205H38.9432C41.7812 96.4205 42.8636 97.9716 42.8636 100.068C42.8636 102.165 41.7812 103.75 38.9773 103.75H35.2273ZM52.6476 112.307C54.9316 112.307 56.1248 111.08 56.5339 110.227H56.6362V112H58.6476V103.375C58.6476 99.2159 55.4771 98.7386 53.8066 98.7386C51.8294 98.7386 49.5794 99.4205 48.5566 101.807L50.4657 102.489C50.9089 101.534 51.9572 100.511 53.8748 100.511C55.7243 100.511 56.6362 101.491 56.6362 103.17V103.239C56.6362 104.21 55.6476 104.125 53.2612 104.432C50.8322 104.747 48.1816 105.284 48.1816 108.284C48.1816 110.841 50.1589 112.307 52.6476 112.307ZM52.9544 110.5C51.3521 110.5 50.193 109.784 50.193 108.386C50.193 106.852 51.5907 106.375 53.1589 106.17C54.0112 106.068 56.2953 105.83 56.6362 105.42V107.261C56.6362 108.898 55.3407 110.5 52.9544 110.5ZM65.0501 104.125C65.0501 101.841 66.4649 100.545 68.391 100.545C70.2575 100.545 71.391 101.764 71.391 103.818V112H73.4024V103.682C73.4024 100.341 71.6211 98.7386 68.9705 98.7386C66.9933 98.7386 65.766 99.625 65.1524 100.955H64.9819V98.9091H63.0387V112H65.0501V104.125ZM77.7978 98.9091V112.955C77.7978 114.284 77.2523 115.034 76.0251 115.034H75.6501V116.909H76.0591C78.5819 116.909 79.8091 115.375 79.8091 112.955V98.9091H77.7978ZM78.7864 96.7273C79.5705 96.7273 80.2182 96.1136 80.2182 95.3636C80.2182 94.6136 79.5705 94 78.7864 94C78.0023 94 77.3546 94.6136 77.3546 95.3636C77.3546 96.1136 78.0023 96.7273 78.7864 96.7273ZM88.0654 112.307C90.3495 112.307 91.5426 111.08 91.9517 110.227H92.054V112H94.0654V103.375C94.0654 99.2159 90.8949 98.7386 89.2245 98.7386C87.2472 98.7386 84.9972 99.4205 83.9745 101.807L85.8836 102.489C86.3267 101.534 87.375 100.511 89.2926 100.511C91.1421 100.511 92.054 101.491 92.054 103.17V103.239C92.054 104.21 91.0654 104.125 88.679 104.432C86.25 104.747 83.5995 105.284 83.5995 108.284C83.5995 110.841 85.5767 112.307 88.0654 112.307ZM88.3722 110.5C86.7699 110.5 85.6108 109.784 85.6108 108.386C85.6108 106.852 87.0086 106.375 88.5767 106.17C89.429 106.068 91.7131 105.83 92.054 105.42V107.261C92.054 108.898 90.7586 110.5 88.3722 110.5ZM100.468 104.125C100.468 101.841 101.883 100.545 103.809 100.545C105.675 100.545 106.809 101.764 106.809 103.818V112H108.82V103.682C108.82 100.341 107.039 98.7386 104.388 98.7386C102.411 98.7386 101.184 99.625 100.57 100.955H100.4V98.9091H98.4565V112H100.468V104.125ZM118.5 117.182C121.636 117.182 124.159 115.75 124.159 112.375V98.9091H122.216V100.989H122.011C121.568 100.307 120.75 98.7386 118.193 98.7386C114.886 98.7386 112.602 101.364 112.602 105.386C112.602 109.477 114.988 111.795 118.159 111.795C120.716 111.795 121.534 110.295 121.977 109.58H122.147V112.239C122.147 114.42 120.613 115.409 118.5 115.409C116.122 115.409 115.287 114.156 114.75 113.432L113.147 114.557C113.966 115.929 115.576 117.182 118.5 117.182ZM118.432 109.989C115.909 109.989 114.613 108.08 114.613 105.352C114.613 102.693 115.875 100.545 118.432 100.545C120.886 100.545 122.182 102.523 122.182 105.352C122.182 108.25 120.852 109.989 118.432 109.989Z" fill="#3A3A3A"/>
<path d="M33.1136 182H43.3409V180.125H35.2273V164.545H33.1136V182ZM52.5495 182.273C55.2086 182.273 57.1518 180.943 57.7655 178.966L55.8223 178.42C55.3109 179.784 54.1263 180.466 52.5495 180.466C50.1888 180.466 48.5609 178.94 48.4672 176.136H57.97V175.284C57.97 170.409 55.0723 168.739 52.345 168.739C48.7995 168.739 46.4473 171.534 46.4473 175.557C46.4473 179.58 48.7655 182.273 52.5495 182.273ZM48.4672 174.398C48.6035 172.361 50.0439 170.545 52.345 170.545C54.5268 170.545 55.9245 172.182 55.9245 174.398H48.4672ZM62.0224 182H63.9656V179.989H64.2042C64.6474 180.705 65.4997 182.273 68.0224 182.273C71.2951 182.273 73.5792 179.648 73.5792 175.489C73.5792 171.364 71.2951 168.739 67.9883 168.739C65.4315 168.739 64.6474 170.307 64.2042 170.989H64.0338V164.545H62.0224V182ZM63.9997 175.455C63.9997 172.523 65.2951 170.545 67.7497 170.545C70.3065 170.545 71.5678 172.693 71.5678 175.455C71.5678 178.25 70.2724 180.466 67.7497 180.466C65.3292 180.466 63.9997 178.42 63.9997 175.455ZM81.2282 182.307C83.5123 182.307 84.7055 181.08 85.1145 180.227H85.2168V182H87.2282V173.375C87.2282 169.216 84.0577 168.739 82.3873 168.739C80.41 168.739 78.16 169.42 77.1373 171.807L79.0464 172.489C79.4895 171.534 80.5378 170.511 82.4555 170.511C84.3049 170.511 85.2168 171.491 85.2168 173.17V173.239C85.2168 174.21 84.2282 174.125 81.8418 174.432C79.4128 174.747 76.7623 175.284 76.7623 178.284C76.7623 180.841 78.7395 182.307 81.2282 182.307ZM81.535 180.5C79.9327 180.5 78.7736 179.784 78.7736 178.386C78.7736 176.852 80.1714 176.375 81.7395 176.17C82.5918 176.068 84.8759 175.83 85.2168 175.42V177.261C85.2168 178.898 83.9214 180.5 81.535 180.5ZM91.6193 182H93.6307V173.716C93.6307 171.943 95.0284 170.648 96.9375 170.648C97.4745 170.648 98.0284 170.75 98.1648 170.784V168.739C97.9347 168.722 97.4063 168.705 97.108 168.705C95.5398 168.705 94.1762 169.591 93.6989 170.886H93.5625V168.909H91.6193V182Z" fill="#3A3A3A"/>
<path d="M33.1136 252H35.2273V245.625H39.0455C43.1108 245.625 44.9432 243.153 44.9432 240.068C44.9432 236.983 43.1108 234.545 39.0114 234.545H33.1136V252ZM35.2273 243.75V236.42H38.9432C41.7812 236.42 42.8636 237.972 42.8636 240.068C42.8636 242.165 41.7812 243.75 38.9773 243.75H35.2273ZM52.6476 252.307C54.9316 252.307 56.1248 251.08 56.5339 250.227H56.6362V252H58.6476V243.375C58.6476 239.216 55.4771 238.739 53.8066 238.739C51.8294 238.739 49.5794 239.42 48.5566 241.807L50.4657 242.489C50.9089 241.534 51.9572 240.511 53.8748 240.511C55.7243 240.511 56.6362 241.491 56.6362 243.17V243.239C56.6362 244.21 55.6476 244.125 53.2612 244.432C50.8322 244.747 48.1816 245.284 48.1816 248.284C48.1816 250.841 50.1589 252.307 52.6476 252.307ZM52.9544 250.5C51.3521 250.5 50.193 249.784 50.193 248.386C50.193 246.852 51.5907 246.375 53.1589 246.17C54.0112 246.068 56.2953 245.83 56.6362 245.42V247.261C56.6362 248.898 55.3407 250.5 52.9544 250.5ZM65.0501 244.125C65.0501 241.841 66.4649 240.545 68.391 240.545C70.2575 240.545 71.391 241.764 71.391 243.818V252H73.4024V243.682C73.4024 240.341 71.6211 238.739 68.9705 238.739C66.9933 238.739 65.766 239.625 65.1524 240.955H64.9819V238.909H63.0387V252H65.0501V244.125ZM77.7978 238.909V252.955C77.7978 254.284 77.2523 255.034 76.0251 255.034H75.6501V256.909H76.0591C78.5819 256.909 79.8091 255.375 79.8091 252.955V238.909H77.7978ZM78.7864 236.727C79.5705 236.727 80.2182 236.114 80.2182 235.364C80.2182 234.614 79.5705 234 78.7864 234C78.0023 234 77.3546 234.614 77.3546 235.364C77.3546 236.114 78.0023 236.727 78.7864 236.727ZM88.0654 252.307C90.3495 252.307 91.5426 251.08 91.9517 250.227H92.054V252H94.0654V243.375C94.0654 239.216 90.8949 238.739 89.2245 238.739C87.2472 238.739 84.9972 239.42 83.9745 241.807L85.8836 242.489C86.3267 241.534 87.375 240.511 89.2926 240.511C91.1421 240.511 92.054 241.491 92.054 243.17V243.239C92.054 244.21 91.0654 244.125 88.679 244.432C86.25 244.747 83.5995 245.284 83.5995 248.284C83.5995 250.841 85.5767 252.307 88.0654 252.307ZM88.3722 250.5C86.7699 250.5 85.6108 249.784 85.6108 248.386C85.6108 246.852 87.0086 246.375 88.5767 246.17C89.429 246.068 91.7131 245.83 92.054 245.42V247.261C92.054 248.898 90.7586 250.5 88.3722 250.5ZM100.468 244.125C100.468 241.841 101.883 240.545 103.809 240.545C105.675 240.545 106.809 241.764 106.809 243.818V252H108.82V243.682C108.82 240.341 107.039 238.739 104.388 238.739C102.411 238.739 101.184 239.625 100.57 240.955H100.4V238.909H98.4565V252H100.468V244.125ZM118.5 257.182C121.636 257.182 124.159 255.75 124.159 252.375V238.909H122.216V240.989H122.011C121.568 240.307 120.75 238.739 118.193 238.739C114.886 238.739 112.602 241.364 112.602 245.386C112.602 249.477 114.988 251.795 118.159 251.795C120.716 251.795 121.534 250.295 121.977 249.58H122.147V252.239C122.147 254.42 120.613 255.409 118.5 255.409C116.122 255.409 115.287 254.156 114.75 253.432L113.147 254.557C113.966 255.929 115.576 257.182 118.5 257.182ZM118.432 249.989C115.909 249.989 114.613 248.08 114.613 245.352C114.613 242.693 115.875 240.545 118.432 240.545C120.886 240.545 122.182 242.523 122.182 245.352C122.182 248.25 120.852 249.989 118.432 249.989ZM136.303 252H146.531V250.125H138.417V234.545H136.303V252ZM155.739 252.273C158.398 252.273 160.342 250.943 160.955 248.966L159.012 248.42C158.501 249.784 157.316 250.466 155.739 250.466C153.378 250.466 151.751 248.94 151.657 246.136H161.16V245.284C161.16 240.409 158.262 238.739 155.535 238.739C151.989 238.739 149.637 241.534 149.637 245.557C149.637 249.58 151.955 252.273 155.739 252.273ZM151.657 244.398C151.793 242.361 153.234 240.545 155.535 240.545C157.717 240.545 159.114 242.182 159.114 244.398H151.657ZM166.951 244.125C166.951 241.841 168.365 240.545 170.292 240.545C172.158 240.545 173.292 241.764 173.292 243.818V252H175.303V243.682C175.303 240.341 173.522 238.739 170.871 238.739C168.894 238.739 167.667 239.625 167.053 240.955H166.883V238.909H164.939V252H166.951V244.125ZM184.982 257.182C188.119 257.182 190.642 255.75 190.642 252.375V238.909H188.698V240.989H188.494C188.051 240.307 187.232 238.739 184.676 238.739C181.369 238.739 179.085 241.364 179.085 245.386C179.085 249.477 181.471 251.795 184.642 251.795C187.198 251.795 188.017 250.295 188.46 249.58H188.63V252.239C188.63 254.42 187.096 255.409 184.982 255.409C182.605 255.409 181.769 254.156 181.232 253.432L179.63 254.557C180.448 255.929 182.059 257.182 184.982 257.182ZM184.914 249.989C182.392 249.989 181.096 248.08 181.096 245.352C181.096 242.693 182.357 240.545 184.914 240.545C187.369 240.545 188.664 242.523 188.664 245.352C188.664 248.25 187.335 249.989 184.914 249.989ZM198.896 252.307C201.18 252.307 202.373 251.08 202.782 250.227H202.884V252H204.896V243.375C204.896 239.216 201.725 238.739 200.055 238.739C198.077 238.739 195.827 239.42 194.805 241.807L196.714 242.489C197.157 241.534 198.205 240.511 200.123 240.511C201.972 240.511 202.884 241.491 202.884 243.17V243.239C202.884 244.21 201.896 244.125 199.509 244.432C197.08 244.747 194.43 245.284 194.43 248.284C194.43 250.841 196.407 252.307 198.896 252.307ZM199.202 250.5C197.6 250.5 196.441 249.784 196.441 248.386C196.441 246.852 197.839 246.375 199.407 246.17C200.259 246.068 202.543 245.83 202.884 245.42V247.261C202.884 248.898 201.589 250.5 199.202 250.5ZM211.298 244.125C211.298 241.841 212.713 240.545 214.639 240.545C216.506 240.545 217.639 241.764 217.639 243.818V252H219.65V243.682C219.65 240.341 217.869 238.739 215.219 238.739C213.241 238.739 212.014 239.625 211.4 240.955H211.23V238.909H209.287V252H211.298V244.125Z" fill="#3A3A3A"/>
<path d="M387.986 29.5653H391.523C391.472 26.4545 388.915 24.3068 385.028 24.3068C381.202 24.3068 378.398 26.4205 378.415 29.5909C378.406 32.1648 380.222 33.6392 383.17 34.3466L385.071 34.8239C386.972 35.2841 388.028 35.8295 388.037 37.0057C388.028 38.2841 386.818 39.1534 384.943 39.1534C383.026 39.1534 381.645 38.267 381.526 36.5199H377.955C378.048 40.2955 380.75 42.2472 384.986 42.2472C389.247 42.2472 391.753 40.2102 391.761 37.0142C391.753 34.108 389.562 32.5653 386.528 31.8835L384.96 31.5085C383.443 31.1591 382.173 30.5966 382.199 29.3438C382.199 28.2188 383.196 27.392 385.003 27.392C386.767 27.392 387.849 28.1932 387.986 29.5653Z" fill="#3A3A3A"/>
<path d="M464.517 24.5455V42H468.097V30.5966H468.241L472.759 41.9148H475.196L479.713 30.6392H479.858V42H483.438V24.5455H478.886L474.08 36.2727H473.875L469.068 24.5455H464.517Z" fill="#3A3A3A"/>
<path d="M558.517 42H569.69V38.9574H562.207V24.5455H558.517V42Z" fill="#3A3A3A"/>
<path d="M644.977 24.5455H640.793L646.153 33.2727L640.69 42H644.918L648.497 36.0426H648.634L652.213 42H656.457L651.011 33.2727L656.338 24.5455H652.17L648.634 30.4943H648.497L644.977 24.5455ZM659.873 42H671.047V38.9574H663.564V24.5455H659.873V42Z" fill="#3A3A3A"/>
<path d="M377.602 112.239C381.131 112.281 383.432 109.622 383.432 106.375C383.432 103 380.935 100.58 377.943 100.58C376.145 100.58 374.602 101.457 373.648 102.898H373.511C373.52 98.6449 375.173 96.1818 377.875 96.1818C379.716 96.1818 380.824 97.3409 381.216 98.9091H383.295C382.869 96.1989 380.807 94.3068 377.875 94.3068C373.946 94.3068 371.534 97.7841 371.534 103.955C371.534 110.406 374.739 112.205 377.602 112.239ZM377.602 110.364C375.412 110.364 373.81 108.497 373.818 106.409C373.827 104.321 375.506 102.455 377.67 102.455C379.81 102.455 381.386 104.21 381.386 106.375C381.386 108.591 379.741 110.364 377.602 110.364ZM393.574 112.239C397.06 112.239 399.489 110.202 399.506 107.364C399.489 105.156 398.015 103.281 396.131 102.932V102.83C397.767 102.403 398.841 100.801 398.858 98.9432C398.841 96.2841 396.608 94.3068 393.574 94.3068C390.506 94.3068 388.273 96.2841 388.29 98.9432C388.273 100.801 389.347 102.403 391.017 102.83V102.932C389.1 103.281 387.625 105.156 387.642 107.364C387.625 110.202 390.054 112.239 393.574 112.239ZM393.574 110.364C391.179 110.364 389.705 109.136 389.722 107.261C389.705 105.293 391.333 103.886 393.574 103.886C395.782 103.886 397.41 105.293 397.427 107.261C397.41 109.136 395.935 110.364 393.574 110.364ZM393.574 102.08C391.665 102.08 390.319 100.886 390.336 99.0795C390.319 97.3068 391.614 96.1477 393.574 96.1477C395.5 96.1477 396.796 97.3068 396.813 99.0795C396.796 100.886 395.449 102.08 393.574 102.08Z" fill="#3A3A3A"/>
<path d="M462.352 112H464.568L472.341 96.5227V94.5455H461.159V96.4205H470.159V96.5568L462.352 112ZM482.036 112.239C485.888 112.239 488.104 108.974 488.104 103.273C488.104 97.6136 485.854 94.3068 482.036 94.3068C478.218 94.3068 475.968 97.6136 475.968 103.273C475.968 108.974 478.184 112.239 482.036 112.239ZM482.036 110.364C479.496 110.364 478.013 107.815 478.013 103.273C478.013 98.7386 479.513 96.1477 482.036 96.1477C484.559 96.1477 486.059 98.7386 486.059 103.273C486.059 107.815 484.576 110.364 482.036 110.364Z" fill="#3A3A3A"/>
<path d="M552.352 112H554.568L562.341 96.5227V94.5455H551.159V96.4205H560.159V96.5568L552.352 112ZM566.718 112H577.729V110.125H569.615V109.989L573.536 105.795C576.536 102.582 577.422 101.082 577.422 99.1477C577.422 96.4545 575.24 94.3068 572.172 94.3068C569.113 94.3068 566.786 96.3864 566.786 99.4545H568.797C568.797 97.4688 570.084 96.1477 572.104 96.1477C573.996 96.1477 575.445 97.3068 575.445 99.1477C575.445 100.759 574.499 101.952 572.479 104.159L566.718 110.466V112Z" fill="#3A3A3A"/>
<path d="M642.352 112H644.568L652.341 96.5227V94.5455H641.159V96.4205H650.159V96.5568L642.352 112ZM654.902 108.42H663.118V112H665.13V108.42H667.516V106.545H665.13V94.5455H662.573L654.902 106.682V108.42ZM663.118 106.545H657.187V106.409L662.982 97.2386H663.118V106.545Z" fill="#3A3A3A"/>
<path d="M371.398 178.42H379.614V182H381.625V178.42H384.011V176.545H381.625V164.545H379.068L371.398 176.682V178.42ZM379.614 176.545H373.682V176.409L379.477 167.239H379.614V176.545ZM393.86 182.239C397.184 182.239 399.621 179.784 399.621 176.443C399.621 173.06 397.269 170.58 394.064 170.58C392.888 170.58 391.746 170.997 391.03 171.568H390.928L391.542 166.42H398.837V164.545H389.769L388.712 173.136L390.689 173.375C391.414 172.855 392.65 172.48 393.723 172.489C395.948 172.506 397.576 174.193 397.576 176.477C397.576 178.719 396.008 180.364 393.86 180.364C392.07 180.364 390.647 179.213 390.485 177.636H388.439C388.567 180.295 390.86 182.239 393.86 182.239Z" fill="#3A3A3A"/>
<path d="M461.398 178.42H469.614V182H471.625V178.42H474.011V176.545H471.625V164.545H469.068L461.398 176.682V178.42ZM469.614 176.545H463.682V176.409L469.477 167.239H469.614V176.545ZM478.951 182H481.167L488.939 166.523V164.545H477.758V166.42H486.758V166.557L478.951 182Z" fill="#3A3A3A"/>
<path d="M557.261 182.239C560.585 182.239 563.023 179.784 563.023 176.443C563.023 173.06 560.67 170.58 557.466 170.58C556.29 170.58 555.148 170.997 554.432 171.568H554.33L554.943 166.42H562.239V164.545H553.17L552.114 173.136L554.091 173.375C554.815 172.855 556.051 172.48 557.125 172.489C559.349 172.506 560.977 174.193 560.977 176.477C560.977 178.719 559.409 180.364 557.261 180.364C555.472 180.364 554.048 179.213 553.886 177.636H551.841C551.969 180.295 554.261 182.239 557.261 182.239ZM573.302 182.239C577.154 182.239 579.37 178.974 579.37 173.273C579.37 167.614 577.12 164.307 573.302 164.307C569.483 164.307 567.233 167.614 567.233 173.273C567.233 178.974 569.449 182.239 573.302 182.239ZM573.302 180.364C570.762 180.364 569.279 177.815 569.279 173.273C569.279 168.739 570.779 166.148 573.302 166.148C575.824 166.148 577.324 168.739 577.324 173.273C577.324 177.815 575.841 180.364 573.302 180.364Z" fill="#3A3A3A"/>
<path d="M647.261 182.239C650.585 182.239 653.023 179.784 653.023 176.443C653.023 173.06 650.67 170.58 647.466 170.58C646.29 170.58 645.148 170.997 644.432 171.568H644.33L644.943 166.42H652.239V164.545H643.17L642.114 173.136L644.091 173.375C644.815 172.855 646.051 172.48 647.125 172.489C649.349 172.506 650.977 174.193 650.977 176.477C650.977 178.719 649.409 180.364 647.261 180.364C645.472 180.364 644.048 179.213 643.886 177.636H641.841C641.969 180.295 644.261 182.239 647.261 182.239ZM657.608 182H668.62V180.125H660.506V179.989L664.427 175.795C667.427 172.582 668.313 171.082 668.313 169.148C668.313 166.455 666.131 164.307 663.063 164.307C660.003 164.307 657.677 166.386 657.677 169.455H659.688C659.688 167.469 660.975 166.148 662.995 166.148C664.887 166.148 666.336 167.307 666.336 169.148C666.336 170.759 665.39 171.952 663.37 174.159L657.608 180.466V182Z" fill="#3A3A3A"/>
<path d="M377.261 252.239C380.585 252.239 383.023 249.784 383.023 246.443C383.023 243.06 380.67 240.58 377.466 240.58C376.29 240.58 375.148 240.997 374.432 241.568H374.33L374.943 236.42H382.239V234.545H373.17L372.114 243.136L374.091 243.375C374.815 242.855 376.051 242.48 377.125 242.489C379.349 242.506 380.977 244.193 380.977 246.477C380.977 248.719 379.409 250.364 377.261 250.364C375.472 250.364 374.048 249.213 373.886 247.636H371.841C371.969 250.295 374.261 252.239 377.261 252.239ZM387.199 248.42H395.415V252H397.427V248.42H399.813V246.545H397.427V234.545H394.87L387.199 246.682V248.42ZM395.415 246.545H389.483V246.409L395.279 237.239H395.415V246.545Z" fill="#3A3A3A"/>
<path d="M467.261 252.239C470.585 252.239 473.023 249.784 473.023 246.443C473.023 243.06 470.67 240.58 467.466 240.58C466.29 240.58 465.148 240.997 464.432 241.568H464.33L464.943 236.42H472.239V234.545H463.17L462.114 243.136L464.091 243.375C464.815 242.855 466.051 242.48 467.125 242.489C469.349 242.506 470.977 244.193 470.977 246.477C470.977 248.719 469.409 250.364 467.261 250.364C465.472 250.364 464.048 249.213 463.886 247.636H461.841C461.969 250.295 464.261 252.239 467.261 252.239ZM483.404 252.239C486.932 252.281 489.233 249.622 489.233 246.375C489.233 243 486.736 240.58 483.745 240.58C481.946 240.58 480.404 241.457 479.449 242.898H479.313C479.321 238.645 480.975 236.182 483.677 236.182C485.517 236.182 486.625 237.341 487.017 238.909H489.097C488.671 236.199 486.608 234.307 483.677 234.307C479.748 234.307 477.336 237.784 477.336 243.955C477.336 250.406 480.54 252.205 483.404 252.239ZM483.404 250.364C481.213 250.364 479.611 248.497 479.62 246.409C479.628 244.321 481.307 242.455 483.472 242.455C485.611 242.455 487.188 244.21 487.188 246.375C487.188 248.591 485.543 250.364 483.404 250.364Z" fill="#3A3A3A"/>
<path d="M557.261 252.239C560.585 252.239 563.023 249.784 563.023 246.443C563.023 243.06 560.67 240.58 557.466 240.58C556.29 240.58 555.148 240.997 554.432 241.568H554.33L554.943 236.42H562.239V234.545H553.17L552.114 243.136L554.091 243.375C554.815 242.855 556.051 242.48 557.125 242.489C559.349 242.506 560.977 244.193 560.977 246.477C560.977 248.719 559.409 250.364 557.261 250.364C555.472 250.364 554.048 249.213 553.886 247.636H551.841C551.969 250.295 554.261 252.239 557.261 252.239ZM573.199 252.239C576.685 252.239 579.114 250.202 579.131 247.364C579.114 245.156 577.64 243.281 575.756 242.932V242.83C577.392 242.403 578.466 240.801 578.483 238.943C578.466 236.284 576.233 234.307 573.199 234.307C570.131 234.307 567.898 236.284 567.915 238.943C567.898 240.801 568.972 242.403 570.642 242.83V242.932C568.725 243.281 567.25 245.156 567.267 247.364C567.25 250.202 569.679 252.239 573.199 252.239ZM573.199 250.364C570.804 250.364 569.33 249.136 569.347 247.261C569.33 245.293 570.958 243.886 573.199 243.886C575.407 243.886 577.035 245.293 577.052 247.261C577.035 249.136 575.56 250.364 573.199 250.364ZM573.199 242.08C571.29 242.08 569.944 240.886 569.961 239.08C569.944 237.307 571.239 236.148 573.199 236.148C575.125 236.148 576.421 237.307 576.438 239.08C576.421 240.886 575.074 242.08 573.199 242.08Z" fill="#3A3A3A"/>
<path d="M647.602 252.239C651.131 252.281 653.432 249.622 653.432 246.375C653.432 243 650.935 240.58 647.943 240.58C646.145 240.58 644.602 241.457 643.648 242.898H643.511C643.52 238.645 645.173 236.182 647.875 236.182C649.716 236.182 650.824 237.341 651.216 238.909H653.295C652.869 236.199 650.807 234.307 647.875 234.307C643.946 234.307 641.534 237.784 641.534 243.955C641.534 250.406 644.739 252.205 647.602 252.239ZM647.602 250.364C645.412 250.364 643.81 248.497 643.818 246.409C643.827 244.321 645.506 242.455 647.67 242.455C649.81 242.455 651.386 244.21 651.386 246.375C651.386 248.591 649.741 250.364 647.602 250.364ZM663.677 252.239C667.529 252.239 669.745 248.974 669.745 243.273C669.745 237.614 667.495 234.307 663.677 234.307C659.858 234.307 657.608 237.614 657.608 243.273C657.608 248.974 659.824 252.239 663.677 252.239ZM663.677 250.364C661.137 250.364 659.654 247.815 659.654 243.273C659.654 238.739 661.154 236.148 663.677 236.148C666.199 236.148 667.699 238.739 667.699 243.273C667.699 247.815 666.216 250.364 663.677 250.364Z" fill="#3A3A3A"/>
</g>
<defs>
<clipPath id="clip0">
<rect width="700" height="280" fill="white"/>
</clipPath>
</defs>
</svg>
