<svg version="1.1" xmlns="http://www.w3.org/2000/svg" xmlns:xlink="http://www.w3.org/1999/xlink" x="0px" y="0px"
	 viewBox="-613.28 -124.195 1025.26 600.089" style="enable-background:new -613.28 -124.195 1025.26 600.089;"
	 xml:space="preserve">

<defs>
	<style type="text/css">
        .st0{
            fill:#fff;
            stroke:#010101;
            stroke-width:3;
            stroke-miterlimit:10;
        }
		#JUNI .st0 {
			stroke-dasharray: 2000;
			stroke-dashoffset: 0;
			 -webkit-animation: dash 2s linear forwards, fills 1s 1.5s forwards;
			 -o-animation: dash 2s linear forwards, fills 1s 1.5s forwards;
			 -moz-animation: dash 2s linear forwards, fills 1s 1.5s forwards;
			animation: dash 2s easeIn forwards, fills 1s 1.5s forwards;
		}
		#Records .st0 {
			stroke-dasharray: 2000;
			stroke-dashoffset: 0;
			-webkit-animation: dash2 5s linear forwards, fills 1s 1.5s forwards;
			-o-animation: dash2 5s linear forwards, fills 1s 1.5s forwards;
			-moz-animation: dash2 5s linear forwards, fills 1s 1.5s forwards;
			animation: dash2 5s easeIn forwards, fills 1s 1.5s forwards;
		}
		@-webkit-keyframes dash {
			from {stroke-dashoffset: 2000}
			to {stroke-dashoffset: 0}
		}
		@-webkit-keyframes fills {to {fill: #000}}
		@-webkit-keyframes dash2 {
			from {stroke-dashoffset: 2000}
			to {stroke-dashoffset: 0}
		}
	</style>
</defs>

<g id="Records">
	<path class="st0" d="M-119.319,434.894c-3.071-1.024-7.165-1.024-10.236-2.047c-23.031-6.142-37.362-24.055-39.409-49.134
		c-1.024-18.937-1.024-38.386,0-58.346c2.047-31.22,27.126-49.134,53.228-50.157c22.008-1.024,40.433,7.165,53.228,26.102
		c5.118,8.189,7.165,17.913,8.189,27.126c1.024,18.937,1.024,37.362,0,56.299c-3.071,27.126-20.984,45.551-48.11,50.157
		c-1.024,0-1.024,0-2.047,0C-109.595,434.894-113.689,434.894-119.319,434.894z M-138.768,355.563c0,7.165,0,14.331,0,22.008
		c0,7.165,1.024,13.307,5.118,19.961c6.142,8.189,16.89,12.283,28.15,10.236c10.236-2.047,17.913-10.236,18.937-20.984
		c1.024-12.283,1.024-25.079,2.047-38.386c0-8.189,0-16.89-2.047-24.055c-2.047-12.283-12.283-20.984-26.102-20.984
		s-23.031,8.189-25.079,22.008C-138.768,335.091-138.768,355.563-138.768,355.563z M298.318,434.894
		c-6.142-1.024-12.283-2.047-17.913-3.071c-11.26-3.071-22.008-8.189-29.173-16.89c6.142-6.142,13.307-12.283,19.961-19.961
		c6.142,6.142,14.331,10.236,25.079,11.26c8.189,1.024,16.89,2.047,25.079,0c11.26-3.071,16.89-9.213,15.354-20.984
		c-1.024-7.165-4.095-13.307-12.283-14.331c-7.165-2.047-14.331-2.047-22.008-4.094c-4.094-1.024-9.213-1.024-13.307-3.071
		c-19.961-5.118-30.197-18.937-31.22-39.409c-1.024-25.079,14.331-42.48,39.409-48.11c13.307-3.071,27.126-2.047,40.433,2.047
		c9.213,3.071,16.89,7.165,24.055,14.331c-6.142,6.142-12.283,12.283-18.937,18.937h-1.024c-11.26-9.213-25.079-11.26-38.386-9.213
		c-10.236,2.047-16.89,8.189-16.89,17.913c0,6.142,2.047,11.26,8.189,14.331c4.094,2.047,9.213,3.071,14.331,4.095
		c9.213,2.047,18.937,3.071,28.15,5.118c16.89,4.094,26.102,16.89,28.15,33.268c0,1.024,0,1.024,1.024,2.047
		c0,4.095,0,8.189,0,12.283c-2.047,5.118-2.047,10.236-5.118,15.354c-6.142,12.283-15.354,18.937-28.15,23.031
		c-5.118,2.047-11.26,2.047-16.89,4.094C308.554,434.894,303.436,434.894,298.318,434.894z M-247.272,434.894
		c-4.094-1.024-8.189-1.024-11.26-3.071c-22.008-7.165-35.315-22.008-37.362-44.527c-2.047-22.008-2.047-43.504,0-65.512
		c2.047-20.984,18.937-38.386,39.409-43.504s39.409-2.047,55.276,12.283c9.213,8.189,16.89,23.031,17.913,35.315
		c-2.047,0-4.094,0-7.165,0c-7.165,0-14.331,0-22.008,0c-2.047,0-2.047,0-3.071-2.047c0-1.024-1.024-3.071-1.024-4.095
		c-8.189-20.984-36.339-19.961-44.527-6.142c-2.047,3.071-4.094,7.165-5.118,11.26c-2.047,20.984-3.071,40.433,0,61.417
		c2.047,12.283,10.236,19.961,22.008,22.008c13.307,1.024,23.031-4.094,28.15-16.89c2.047-5.118,2.047-5.118,8.189-5.118
		c8.189,0,15.354,0,24.055,0c-2.047,12.283-6.142,23.031-14.331,32.244c-9.213,9.213-19.961,14.331-33.268,16.89
		c-1.024,0-2.047,0-3.071,1.024C-238.571,434.894-243.177,434.894-247.272,434.894z M-485.264,367.335
		c11.26,22.008,23.031,44.527,34.291,67.559c-3.071,0-5.118,0-7.165,0c-8.189,0-16.89,0-25.079,0c-2.047,0-3.071-1.024-4.094-2.047
		c-9.213-18.937-18.937-37.362-27.126-57.323c-1.024-2.047-3.071-3.071-5.118-3.071c-6.142,0-11.26,0-17.913,0
		c0,20.984,0,41.457,0,62.441c-10.236,0-19.961,0-30.197,0c0-52.205,0-103.898,0-156.102c1.024,0,2.047,0,3.071,0
		c18.937,0,38.386,0,57.323,0c13.307,0,26.102,4.095,36.339,13.307c18.937,17.913,20.984,54.252-4.094,70.63
		C-479.122,363.24-482.193,365.288-485.264,367.335z M-538.492,346.351c9.213,0,18.937,0,27.126,0c2.047,0,3.071,0,5.118,0
		c13.307-2.047,20.984-14.331,16.89-27.126c-3.071-8.189-10.236-13.307-19.961-13.307c-9.724,0-18.937,0-28.15,0
		c-1.024,0-1.024,0-2.047,0C-538.492,318.201-538.492,332.02-538.492,346.351z M59.814,366.311
		c11.26,23.031,23.031,44.527,34.291,67.559c-1.024,0-2.047,0-3.071,0c-9.213,0-18.937,0-29.173,0c-2.047,0-3.071-1.024-4.094-3.071
		c-9.213-18.937-18.937-37.362-28.15-57.323c-1.024-2.047-2.047-3.071-4.094-3.071c-6.142,0-12.283,0-18.937,0
		c0,20.984,0,41.457,0,62.441c-10.236,0-19.961,0-30.197,0c0-52.205,0-103.898,0-156.102c1.024,0,2.047,0,3.071,0
		c18.937,0,38.386,0,57.323,0c12.283,0,24.055,3.071,34.291,11.26c23.031,18.937,25.079,63.464-9.213,76.772
		C60.838,366.311,60.838,366.311,59.814,366.311z M6.586,345.327c11.26,0,22.008,1.024,32.244,0
		c13.307-1.024,20.984-13.307,16.89-26.102c-2.047-8.189-10.236-14.331-20.984-14.331c-9.213,0-17.913,0-27.126,0
		c-1.024,0-1.024,0-2.047,0C6.586,318.201,6.586,332.02,6.586,345.327z M120.208,433.87c0-52.205,0-103.898,0-156.102
		c1.024,0,2.047,0,3.071,0c17.913,0,35.315,0,53.228,0c8.189,0,15.354,1.024,24.055,4.094c19.961,7.165,31.22,23.031,33.268,43.504
		c2.047,20.984,2.047,41.457,0,63.465c-3.071,26.102-20.984,42.48-46.575,45.551c-3.071,0-7.165,0-10.236,1.024
		c-16.89,0-33.268,0-51.181,0C122.255,433.87,121.232,433.87,120.208,433.87z M150.405,406.744c8.189,0,15.354,0,23.031,0
		c16.89,0,26.102-8.189,28.15-25.079c1.024-13.307,1.024-28.15,1.024-41.457c0-4.094,0-9.213-1.024-13.307
		c-2.047-12.283-10.236-19.961-23.031-20.984c-9.213-1.024-17.913,0-27.126,0c0,0,0,0-1.024,0
		C150.405,339.185,150.405,372.453,150.405,406.744z M-394.673,368.358c0,12.283,0,25.079,0,38.386c12.283,0,24.055,0,36.339,0
		c12.283,0,24.055,0,36.339,0c0,9.213,0,17.913,0,27.126c-34.291,0-67.559,0-101.85,0c0-52.205,0-103.898,0-156.102
		c34.291,0,67.559,0,101.85,0c0,9.213,0,17.913,0,27.126c-24.055,0-48.11,0-71.653,0c0,12.283,0,24.055,0,36.339
		c20.984,0,40.433,0,61.417,0c0,9.213,0,17.913,0,27.126C-354.24,368.358-374.201,368.358-394.673,368.358z"/>
</g>
<g id="JUNI">
	<path class="st0" d="M223.082-84.594c0,102.874,0,205.236,0,308.11c0,1.024,0,3.071,0,4.094c-1.024,0-2.047,0-3.071,0
		c-15.354,0-32.244,0-48.11,0c-2.047,0-4.094-1.024-5.118-3.071C126.35,163.122,86.429,101.705,47.019,40.288
		c-1.024-1.024-1.024-2.047-2.047-3.071c0,63.464,0,126.929,0,190.393c-20.984,0-40.433,0-61.417,0c0-1.024,0-3.071,0-4.094
		c0-101.85,0-202.677,0-305.039c0-1.024,0-3.071,0-4.094c18.937,0,36.339,0,55.276,0c0,0,0,0,0,1.024
		c40.433,62.441,81.378,124.882,121.811,188.346c0,0,1.024,1.024,2.047,2.047c0-2.047,0-3.071,0-4.094c0-61.417,0-122.834,0-183.228
		c0-1.024,0-2.047,0-3.071C181.625-84.594,202.609-84.594,223.082-84.594z M-84.516-84.594c0,1.024,0,2.047,0,3.071
		c0,67.559,0,135.118,0,202.677c0,31.22-10.236,57.323-33.268,77.795c-16.89,15.354-37.362,25.079-59.37,28.15
		c-27.126,4.094-53.228,2.047-77.795-10.236c-34.291-17.913-54.252-45.551-58.346-84.449c0-4.094-1.024-9.213-1.024-13.307
		c0-66.535,0-134.094,0-200.63c0-1.024,0-3.071,0-4.094c19.961,0,40.433,0,60.394,0c0,1.024,0,3.071,0,4.094
		c0,65.512,0,131.023,0,197.559c0,5.118,0,10.236,1.024,15.354c3.071,19.961,13.307,34.291,33.268,40.433
		c9.213,3.071,18.937,4.094,29.173,2.047c19.961-3.071,33.268-12.283,40.433-31.22c3.071-9.213,4.094-18.937,4.094-28.15
		c0-65.512,0-131.023,0-196.535c0-1.024,0-3.071,0-4.094C-124.437-84.594-104.477-84.594-84.516-84.594z M-379.319-84.594
		c0,1.024,0,2.047,0,3.071c0,69.606,0,138.189,0,208.307c0,24.055-6.142,45.551-20.984,64.488
		c-16.89,20.984-38.386,33.268-64.488,37.362c-22.008,4.094-43.504,3.071-65.512-4.094c-14.331-5.118-27.126-13.307-38.386-25.079
		c0,0,0-1.024,0,0c13.307-13.307,26.102-27.126,39.409-40.433c1.024,1.024,2.047,2.047,3.071,3.071
		c12.283,12.283,27.126,15.354,42.48,14.331c12.283-1.024,23.031-5.118,31.22-15.354c6.142-8.189,9.213-17.913,10.236-28.15
		c0-4.094,1.024-9.213,1.024-13.307c0-66.535,0-133.071,0-199.606c0-1.024,0-3.071,0-4.094
		C-418.728-84.594-399.279-84.594-379.319-84.594z M356.664-84.594c0,1.024,0,2.047,0,3.071c0,101.85,0,204.212,0,306.063
		c0,1.024,0,2.047,0,3.071c-19.961,0-40.433,0-60.394,0c0-1.024,0-2.047,0-3.071c0-101.85,0-205.236,0-307.086
		c0-1.024,0-1.024,0-2.047C315.72-84.594,336.704-84.594,356.664-84.594z"/>
</g>
</svg>
