<svg version="1.1" id="Layer_1" xmlns="http://www.w3.org/2000/svg"
xmlns:xlink="http://www.w3.org/1999/xlink" x="0px" y="0px" viewBox="0 0 946.6 232.5"
style="enable-background:new 0 0 946.6 232.5;" xml:space="preserve">
<style type="text/css">
	.st0 {
		fill: transparent;
		stroke: #fff;
		stroke-width: 3;
		stroke-miterlimit: 10;
	}
	.st0 {
		stroke-dasharray: 1800;
		stroke-dashoffset: 0;
		-webkit-animation: dash2 4s linear forwards, fills 1s 1.5s forwards;
		-o-animation: dash2 5s linear forwards, fills 1s 1.5s forwards;
		-moz-animation: dash2 5s linear forwards, fills 1s 1.5s forwards;
		animation: dash2 1s easeIn forwards, fills 1s 1.5s forwards;
	}

	@-webkit-keyframes dash {
		from {stroke-dashoffset: 1800}
		to {stroke-dashoffset: 0}
	}
	@-webkit-keyframes fills {
		to {fill: #fff}
		}
	@-webkit-keyframes dash2 {
		from {stroke-dashoffset: 1800}
		to {stroke-dashoffset: 0}
	}
</style>
<g>
	<path class="st0" d="M7.7,225.2V7h25.1v80.5H35c1.8-2.8,4.4-6.5,7.7-10.9c3.3-4.4,8.1-8.4,14.3-11.9c6.2-3.5,14.6-5.3,25.3-5.3
c13.8,0,25.9,3.4,36.4,10.3c10.5,6.9,18.7,16.7,24.6,29.3c5.9,12.6,8.8,27.6,8.8,44.7c0,17.3-2.9,32.3-8.8,45
c-5.9,12.7-14.1,22.5-24.5,29.4s-22.5,10.4-36.1,10.4c-10.5,0-18.9-1.8-25.2-5.3c-6.3-3.5-11.2-7.5-14.6-12
c-3.4-4.5-6-8.3-7.9-11.2h-3v25.1H7.7z M32.5,143.3c0,12.4,1.8,23.2,5.4,32.7c3.6,9.4,8.9,16.8,15.9,22.1c7,5.3,15.5,7.9,25.6,7.9
c10.5,0,19.3-2.8,26.4-8.4c7.1-5.6,12.4-13.1,16-22.6c3.6-9.5,5.4-20,5.4-31.7c0-11.5-1.8-21.9-5.3-31.2s-8.8-16.6-15.9-22.1
C98.8,84.7,90,82,79.3,82c-10.2,0-18.8,2.6-25.8,7.7c-7,5.2-12.2,12.3-15.8,21.5C34.2,120.4,32.5,131.1,32.5,143.3z" />
	<path class="st0" d="M259.2,228.6c-15.8,0-29.4-3.5-40.7-10.5c-11.4-7-20.2-16.8-26.3-29.4c-6.1-12.6-9.2-27.3-9.2-44.1
c0-16.8,3.1-31.6,9.2-44.4c6.1-12.8,14.7-22.8,25.8-30c11-7.2,24-10.8,38.7-10.8c8.5,0,16.9,1.4,25.2,4.3
c8.3,2.8,15.9,7.4,22.7,13.8c6.8,6.4,12.3,14.8,16.3,25.2c4,10.4,6.1,23.3,6.1,38.6v10.7H200.8v-21.7h100.6
c0-9.2-1.8-17.5-5.5-24.7c-3.7-7.2-8.8-13-15.6-17.2c-6.7-4.2-14.6-6.3-23.7-6.3c-10,0-18.7,2.5-25.9,7.4
c-7.3,4.9-12.9,11.3-16.8,19.2c-3.9,7.9-5.9,16.3-5.9,25.4v14.5c0,12.4,2.1,22.8,6.4,31.4c4.3,8.6,10.3,15.1,18,19.5
c7.7,4.4,16.6,6.7,26.7,6.7c6.6,0,12.6-0.9,18-2.8c5.4-1.9,10-4.7,13.9-8.5c3.9-3.8,6.9-8.5,9.1-14.2l24.3,6.8
c-2.6,8.2-6.9,15.5-12.9,21.7c-6,6.2-13.5,11-22.4,14.5C280.2,226.8,270.2,228.6,259.2,228.6z" />
	<path class="st0" d="M365.3,225.2V7h25.1v218.2H365.3z M388.7,165.5l-0.4-31.1h5.1L465,61.5h31.1l-76.3,77.1h-2.1L388.7,165.5z
M469.2,225.2l-63.9-81l17.9-17.5l78,98.4H469.2z" />
	<path class="st0"
		d="M576.6,229c-10.4,0-19.8-2-28.2-5.9c-8.5-3.9-15.2-9.7-20.1-17.2c-5-7.5-7.5-16.6-7.5-27.2
c0-9.4,1.8-17,5.5-22.9c3.7-5.9,8.6-10.5,14.8-13.8c6.2-3.3,13-5.8,20.5-7.5c7.5-1.7,15-3,22.6-4c9.9-1.3,18-2.3,24.2-2.9
c6.2-0.7,10.8-1.8,13.6-3.5c2.9-1.6,4.3-4.5,4.3-8.5v-0.9c0-10.5-2.9-18.7-8.6-24.5c-5.7-5.8-14.4-8.7-25.9-8.7
c-12,0-21.4,2.6-28.2,7.9c-6.8,5.3-11.6,10.9-14.4,16.8l-23.9-8.5c4.3-9.9,10-17.7,17.1-23.3c7.1-5.6,15-9.5,23.4-11.7
c8.5-2.2,16.8-3.4,25.1-3.4c5.3,0,11.3,0.6,18.2,1.9c6.9,1.2,13.5,3.8,19.9,7.6c6.4,3.8,11.8,9.6,16,17.4
c4.3,7.7,6.4,18.1,6.4,31.1v107.8h-25.1V203h-1.3c-1.7,3.6-4.5,7.4-8.5,11.4c-4,4-9.3,7.5-15.9,10.3
C594.2,227.6,586.1,229,576.6,229z M580.5,206.4c9.9,0,18.3-2,25.2-5.9c6.9-3.9,12-8.9,15.6-15.1s5.3-12.7,5.3-19.5v-23
c-1.1,1.3-3.4,2.4-7,3.5c-3.6,1-7.7,1.9-12.4,2.7c-4.7,0.7-9.2,1.4-13.5,1.9c-4.4,0.5-7.9,1-10.6,1.3c-6.5,0.9-12.6,2.2-18.3,4.1
c-5.6,1.9-10.2,4.7-13.6,8.4c-3.4,3.7-5.2,8.8-5.2,15.2c0,8.7,3.2,15.3,9.7,19.8C562.2,204.2,570.4,206.4,580.5,206.4z" />
	<path class="st0" d="M768.8,61.5v21.3H684V61.5H768.8z M708.7,22.3h25.1v156c0,7.1,1,12.4,3.1,15.9c2.1,3.5,4.8,5.9,8.1,7
c3.3,1.2,6.8,1.8,10.5,1.8c2.8,0,5-0.2,6.8-0.5c1.8-0.3,3.2-0.6,4.3-0.8l5.1,22.6c-1.7,0.6-4.1,1.3-7.1,2c-3.1,0.7-6.9,1-11.6,1
c-7.1,0-14-1.5-20.8-4.6c-6.8-3.1-12.4-7.7-16.8-14c-4.4-6.2-6.7-14.1-6.7-23.7V22.3z" />
	<path class="st0" d="M873.6,228.6c-15.8,0-29.3-3.5-40.7-10.5c-11.4-7-20.2-16.8-26.3-29.4c-6.1-12.6-9.2-27.3-9.2-44.1
c0-16.8,3.1-31.6,9.2-44.4c6.1-12.8,14.7-22.8,25.8-30c11-7.2,24-10.8,38.7-10.8c8.5,0,16.9,1.4,25.2,4.3
c8.3,2.8,15.9,7.4,22.7,13.8c6.8,6.4,12.3,14.8,16.3,25.2c4,10.4,6.1,23.3,6.1,38.6v10.7H815.3v-21.7h100.6
c0-9.2-1.8-17.5-5.5-24.7c-3.7-7.2-8.8-13-15.6-17.2c-6.7-4.2-14.6-6.3-23.7-6.3c-10,0-18.7,2.5-25.9,7.4
c-7.3,4.9-12.9,11.3-16.8,19.2c-3.9,7.9-5.9,16.3-5.9,25.4v14.5c0,12.4,2.1,22.8,6.4,31.4c4.3,8.6,10.3,15.1,18,19.5
c7.7,4.4,16.6,6.7,26.7,6.7c6.6,0,12.6-0.9,18-2.8c5.4-1.9,10-4.7,13.9-8.5c3.9-3.8,6.9-8.5,9.1-14.2l24.3,6.8
c-2.6,8.2-6.9,15.5-12.9,21.7c-6,6.2-13.5,11-22.4,14.5C894.7,226.8,884.7,228.6,873.6,228.6z" />
</g>
</svg>