<svg width="48" height="48" viewBox="0 0 48 48" fill="none" xmlns="http://www.w3.org/2000/svg">
<g id="favicon">
<path id="Subtract" fill-rule="evenodd" clip-rule="evenodd" d="M24 48C37.2548 48 48 37.2548 48 24C48 10.7452 37.2548 0 24 0C10.7452 0 0 10.7452 0 24C0 37.2548 10.7452 48 24 48ZM21.54 11.232H14.34V36H21.54V11.232ZM24.528 30.492H23.052V36H27.192C29.784 36 31.668 35.448 32.844 34.344C34.02 33.24 34.608 31.584 34.608 29.376C34.608 27.456 34.224 26.04 33.456 25.128C32.784 24.36 31.668 23.796 30.108 23.436V23.292C31.596 22.932 32.676 22.308 33.348 21.42C34.044 20.532 34.392 19.212 34.392 17.46C34.392 13.308 31.98 11.232 27.156 11.232H23.052V16.74H24.312C24.984 16.74 25.488 16.764 25.824 16.812C26.184 16.836 26.448 16.92 26.616 17.064C26.784 17.208 26.892 17.412 26.94 17.676C27.012 17.916 27.048 18.276 27.048 18.756C27.048 19.212 27.012 19.572 26.94 19.836C26.892 20.076 26.784 20.268 26.616 20.412C26.448 20.556 26.184 20.652 25.824 20.7C25.488 20.724 24.984 20.736 24.312 20.736H23.052V26.244H24.528C25.776 26.244 26.544 26.364 26.832 26.604C27 26.748 27.108 26.952 27.156 27.216C27.228 27.48 27.264 27.876 27.264 28.404C27.264 28.908 27.228 29.292 27.156 29.556C27.108 29.82 27 30.024 26.832 30.168C26.664 30.312 26.4 30.408 26.04 30.456C25.704 30.48 25.2 30.492 24.528 30.492Z" fill="white"/>
</g>
</svg>
